<svg version="1" xmlns="http://www.w3.org/2000/svg" width="933.333" height="933.333" viewBox="0 0 700.000000 700.000000"><path d="M345.8 102.5c-9.9 14.8-20.9 25.8-39.9 39.7-5.4 4.1-10 6.5-16.5 8.6-71.5 24-141.2 95-191.2 194.7-12.8 25.7-22.2 47.7-32.3 76-6.5 18-19.7 74.5-25.3 108-4.2 25.2-7.6 57.5-7.6 73.2v2.3H138.7l.6-33.2c2.2-114 25.9-220.3 61.4-274.7 14.5-22.3 30.4-36.5 48-42.7 18.8-6.6 40.9 1.5 68.3 25 18.9 16.3 24.3 19.6 32.3 19.6 7 0 12.7-3 24.2-12.5 32.1-26.7 47.4-34.5 67-34.5 21 0 38.4 11 55.5 34.9 29.2 40.8 54.1 130.7 62.4 225.6 4.4 49.4 4.6 52.5 5.3 72.7l.6 19.8h102.8l-.6-10.8c-2-38-3.9-55.9-8.6-81.2-16-85.9-53-174.2-100.8-241-27.4-38.2-61.7-72.8-93.6-94.1-11-7.4-34.5-20-42.2-22.7l-3.3-1.1 2.1-4.8c5.2-12 8.3-32.8 7-46.7l-.6-7-3.7 6c-5.5 9-16.7 21.4-27.4 30.3-5.4 4.5-9.9 8-10 7.8-.2-.2.4-2.7 1.2-5.7 1.5-5.2 3.1-32.1 2.2-36.5-.3-1.6-1.4-.4-4.9 5-7.7 11.6-19.2 23.7-32.8 34.5-4.3 3.3-4.4 3.4-3.7 1 2.5-8.9 3.6-18.7 3.4-30.1l-.3-12.4-4.7 7z"/><path d="M283.3 350.4c-10 3.3-18.6 11.6-22.4 21.6-3.2 8.6-2.5 20.4 1.9 29.2 10.2 20.7 36.1 25.8 52.8 10.5 3.1-2.8 6.5-7.2 8.1-10.5 2.5-5.1 2.8-6.7 2.8-16.2 0-9.7-.2-11-3-16.3-3.4-6.8-10.9-14.1-17.5-16.9-5.8-2.5-17.2-3.2-22.7-1.4zm30.1 8.2c2.1 2.1 2.6 3.6 2.6 7.4 0 8.7-7.7 13-13.3 7.5-2.7-2.8-3.7-6.1-2.9-10 .6-3.5 5-7.5 8.2-7.5 1.6 0 3.8 1.1 5.4 2.6zM399.3 351.8c-9.5 3.4-15.4 8.7-20.1 17.7-11.7 23 5.1 51.8 30.3 51.9 4.6.1 8.8-.6 12.3-1.9 7.1-2.6 15.1-9.9 18.7-17.1 2.7-5.4 3-6.8 3-15.9 0-8.7-.3-10.7-2.6-15.6-5.7-12.2-16.4-19.7-29.2-20.5-5.4-.4-8.5 0-12.4 1.4zm30.1 7.1c5.7 6.3 2.2 17.4-5.6 17.4-7.1 0-10.8-11.4-5.3-16.8 3-3.1 8.4-3.4 10.9-.6zM323 443c-50.4.3-92.1 1-92.8 1.4-2.3 1.4-1.1 2.4 8.6 6.6 15.1 6.6 31.3 14.9 76.6 39.4l42 22.6 44.5-26.7c24.5-14.7 50.6-29.5 57.9-33 8.1-3.9 13.2-6.9 13.2-7.8 0-.8-.7-1.5-1.5-1.5s-1.5-.5-1.5-1c0-.6-9.8-.9-27.7-.8-15.3.1-69 .4-119.3.8zm140.6 5.2c-1 .6-25.5 12.5-54.4 26.5L356.7 500l-58.1-25.6c-32-14.1-58.8-26-59.6-26.5-.8-.5 48.5-.8 112.5-.8 83.4 0 113.5.3 112.1 1.1z"/></svg>