<svg xmlns:dc="http://purl.org/dc/elements/1.1/" xmlns:cc="http://creativecommons.org/ns#" xmlns:rdf="http://www.w3.org/1999/02/22-rdf-syntax-ns#" xmlns:svg="http://www.w3.org/2000/svg" xmlns="http://www.w3.org/2000/svg" xmlns:sodipodi="http://sodipodi.sourceforge.net/DTD/sodipodi-0.dtd" xmlns:inkscape="http://www.inkscape.org/namespaces/inkscape" viewBox="0 0 790.229 692.608" id="svg2" inkscape:version="0.91 r13725" sodipodi:docname="logo_min.svg"><sodipodi:namedview pagecolor="#ffffff" bordercolor="#666666" borderopacity="1" objecttolerance="10" gridtolerance="10" guidetolerance="10" inkscape:pageopacity="0" inkscape:pageshadow="2" inkscape:window-width="1451" inkscape:window-height="861" id="namedview90" showgrid="false" inkscape:zoom="2.0385922" inkscape:cx="576.28697" inkscape:cy="36.388164" inkscape:window-x="0" inkscape:window-y="0" inkscape:window-maximized="0" inkscape:current-layer="svg2" /><defs id="defs4"><linearGradient id="h"><stop offset="0" stop-color="#a16200" stop-opacity="1" id="stop7" /><stop offset="1" stop-color="#ffc900" stop-opacity="1" id="stop9" /></linearGradient><linearGradient id="g"><stop offset="0" stop-color="#ff9405" stop-opacity="1" id="stop12" /><stop offset="1" stop-color="#ffda05" stop-opacity="1" id="stop14" /></linearGradient><linearGradient id="d"><stop offset="0" stop-color="#ffde05" stop-opacity="1" id="stop17" /><stop offset="1" stop-color="#ff7f04" stop-opacity=".996" id="stop19" /></linearGradient><linearGradient id="e"><stop offset="0" stop-color="#9a9a9a" stop-opacity="1" id="stop22" /><stop offset="1" stop-color="#fff" stop-opacity="0" id="stop24" /></linearGradient><linearGradient id="b"><stop offset="0" stop-color="#cfa200" stop-opacity="1" id="stop27" /><stop offset="1" stop-color="#493900" stop-opacity="1" id="stop29" /></linearGradient><linearGradient id="c"><stop offset="0" stop-color="#fff" stop-opacity="1" id="stop32" /><stop offset="1" stop-color="#fff" stop-opacity="0" id="stop34" /></linearGradient><linearGradient id="a"><stop offset="0" stop-color="#d6e5e5" stop-opacity="1" id="stop37" /><stop offset="1" stop-color="#f1f1f1" stop-opacity="0" id="stop39" /></linearGradient><linearGradient id="f"><stop offset="0" stop-color="#a8e2e2" stop-opacity="1" id="stop42" /><stop offset="1" stop-color="#fff" stop-opacity="0" id="stop44" /></linearGradient></defs><circle cy="227.701" cx="395.1145" style="font-style:normal;font-weight:400;font-size:medium;line-height:125%;font-family:sans-serif;letter-spacing:0;word-spacing:0;opacity:1;fill:none;fill-opacity:1;stroke:#000;stroke-width:16.03499985;stroke-linecap:butt;stroke-linejoin:miter;stroke-miterlimit:4;stroke-opacity:1" r="219.683" font-style="normal" font-weight="400" font-size="medium" letter-spacing="0" word-spacing="0" stroke-miterlimit="4" id="circle46" /><g style="font-style:normal;font-weight:400;font-size:medium;font-family:sans-serif;letter-spacing:0;word-spacing:0;fill-opacity:1;fill-rule:evenodd;stroke:#a16200;stroke-linecap:butt;stroke-linejoin:miter;stroke-miterlimit:4;stroke-opacity:1" font-style="normal" font-weight="400" font-size="medium" letter-spacing="0" word-spacing="0" stroke-miterlimit="4" id="g48" transform="translate(-18.129488,0)"><path inkscape:connector-curvature="0" style="line-height:125%;fill:#331f00;stroke-width:1.96899998" d="M483.751 265.736 416.68 305.88 342.447 266.353 483.752 265.736z" id="path50" /><path inkscape:connector-curvature="0" style="line-height:125%;fill:#efba00;stroke-width:1.99899995" d="m486.65 265.918-70.195 34.026-76.902-33.907 147.097-.12z" id="path52" /></g><g transform="matrix(0.65795,0,0,0.65795,150.50951,2.914)" style="font-style:normal;font-weight:400;font-size:medium;line-height:125%;font-family:sans-serif;letter-spacing:0;word-spacing:0;fill:#000;fill-opacity:1;stroke:none;stroke-width:1;stroke-linecap:butt;stroke-linejoin:miter;stroke-opacity:1" font-style="normal" font-weight="400" font-size="medium" letter-spacing="0" word-spacing="0" id="g54"><ellipse style="fill:#000;fill-opacity:1;stroke:none" transform="matrix(1.24897,-0.11371,0.107,1.17517,1095.87,466.699)" cx="-608.75" cy="-163.138" rx="25.25" ry="28" id="ellipse56" /><ellipse style="fill:#fff;fill-opacity:1" transform="matrix(0.52213,0,0,0.54745,158.757,136.432)" cx="331.35699" cy="347.99301" rx="15.148" ry="17.041" id="ellipse58" /></g><g transform="matrix(0.65795,0,0,0.65795,150.50951,2.914)" style="font-style:normal;font-weight:400;font-size:medium;line-height:125%;font-family:sans-serif;letter-spacing:0;word-spacing:0;fill:#000;fill-opacity:1;stroke:none;stroke-width:1;stroke-linecap:butt;stroke-linejoin:miter;stroke-opacity:1" font-style="normal" font-weight="400" font-size="medium" letter-spacing="0" word-spacing="0" id="g60"><ellipse style="fill:#000;stroke:none" transform="matrix(1.24897,-0.11371,0.107,1.17517,1203.2,467.646)" cx="-608.75" cy="-163.138" rx="25.25" ry="28" id="ellipse62" /><ellipse style="fill:#fff" transform="matrix(0.52213,0,0,0.54745,265.358,136.993)" cx="331.35699" cy="347.99301" rx="15.148" ry="17.041" id="ellipse64" /></g><g style="fill:#000;fill-opacity:1;fill-rule:evenodd;stroke:#000;stroke-width:1;stroke-linecap:butt;stroke-linejoin:miter;stroke-opacity:1" id="g66" transform="translate(-18.129488,0)"><path inkscape:connector-curvature="0" d="m366.404 100.642c18.535-11.051 36.532-22.572 46.94-40.733 1.343 12.303-.106 28.426-10.862 43.448" id="path68" /><path inkscape:connector-curvature="0" d="m389.443 100.642c18.535-11.051 36.532-22.572 46.94-40.733 1.343 12.303-.106 28.426-10.862 43.448" id="path70" /><path inkscape:connector-curvature="0" d="m412.482 100.642c18.535-11.051 36.532-22.572 46.94-40.733 1.343 12.303-.106 28.426-10.862 43.448" id="path72" /></g><path inkscape:connector-curvature="0" d="m391.11251 87.055c-81.852.265-156.446 104.425-180.48 216.453a199.606 199.606.0 0 0 51.824 73.07c7.901-157.897 44.79-266.968 112.57-207.86 10.104 8.835 15.186 12.902 20.088 12.622 4.902.28 9.984-3.786 20.09-12.621 67.771-59.102 104.658 49.935 112.566 207.8a199.606 199.606.0 0 0 51.853-72.894c-24.006-112.072-98.624-216.305-180.504-216.57" style="font-style:normal;font-weight:400;font-size:medium;line-height:125%;font-family:sans-serif;letter-spacing:0;word-spacing:0;opacity:1;fill:#000;fill-opacity:1;stroke:none;stroke-width:12.70199966;stroke-linecap:butt;stroke-linejoin:miter;stroke-miterlimit:4;stroke-opacity:1" font-style="normal" font-weight="400" font-size="medium" letter-spacing="0" word-spacing="0" stroke-miterlimit="4" id="path74" /><path inkscape:connector-curvature="0" id="path78" writing-mode="lr-tb" word-spacing="0" letter-spacing="0" font-size="medium" font-stretch="normal" font-weight="400" font-variant="normal" font-style="normal" style="font-style:normal;font-variant:normal;font-weight:400;font-stretch:normal;font-size:medium;line-height:125%;font-family:ever after;-inkscape-font-specification:'Ever After, Normal';text-align:start;letter-spacing:0;word-spacing:0;writing-mode:lr-tb;text-anchor:start;fill:#959595;fill-opacity:1;stroke:none;stroke-width:1;stroke-linecap:butt;stroke-linejoin:miter;stroke-opacity:1" d="m131.291 689.265h11.41l-20.917-138.294h-12.275l-20.916 138.294h11.41l5.877-45.81h19.361l6.05 45.81zm-24.201-54.972 8.47-64.306 8.471 64.306H107.09zm82.056-83.322h-41.143v10.718h14.867v127.576h11.409v-127.575h14.867z" /><path inkscape:connector-curvature="0" id="path80" writing-mode="lr-tb" word-spacing="0" letter-spacing="0" font-size="medium" font-stretch="normal" font-weight="400" font-variant="normal" font-style="normal" style="font-style:normal;font-variant:normal;font-weight:400;font-stretch:normal;font-size:medium;line-height:125%;font-family:ever after;-inkscape-font-specification:'Ever After, Normal';text-align:start;letter-spacing:0;word-spacing:0;writing-mode:lr-tb;text-anchor:start;fill:#959595;fill-opacity:1;stroke:none;stroke-width:1;stroke-linecap:butt;stroke-linejoin:miter;stroke-opacity:1" d="m228.649 550.971h-41.143v10.718h14.867v127.576h11.409v-127.575h14.867zm44.885.0v61.366h-28.35v-61.367h-11.41v138.294h11.41v-66.383h28.35v66.383h11.237v-138.293zm37.825 138.294h-11.408v-138.294h11.409v138.294zm57.625.0h11.41l-20.917-138.294h-12.274l-20.917 138.294h11.41l5.877-45.81h19.36l6.051 45.81zm-24.201-54.972 8.47-64.306 8.47 64.306h-16.94zm60.446-14.175c-26.432-32.313-16.702-57.374 10.719-70.875l6.05 9.68c-24.534 8.786-26.206 30.304-14.002 47.193 3.342 4.264 6.684 8.47 10.026 12.62 8.413 11.754 12.62 22.818 12.62 33.19-.461 6.338-1.787 12.043-3.976 17.114-5.187 11.87-14.233 19.188-27.14 21.954l-5.878-9.68c10.487-1.038 17.863-6.397 22.127-16.077 1.844-4.034 2.939-8.817 3.284-14.348.0-9.796-4.61-20.053-13.83-30.77z" /><path style="font-style:normal;font-variant:normal;font-weight:400;font-stretch:normal;font-size:medium;line-height:125%;font-family:ever after;-inkscape-font-specification:'Ever After, Normal';text-align:start;letter-spacing:0;word-spacing:0;writing-mode:lr-tb;text-anchor:start;fill:#000;fill-opacity:1;stroke:none;stroke-width:1;stroke-linecap:butt;stroke-linejoin:miter;stroke-opacity:1" d="M485.62109 550.9707V689.26367H517.25781V678.54688H497.03125V622.88086H515.87305V612.33594H497.03125V561.6875L517.25781 561.68945V550.9707H485.62109zM528.50195 550.9707V689.26562H539.85156V550.9707H528.50195zm39.75977.0V602.83008L568.16797 602.6582V623.40234L568.26172 623.57422V689.26562H579.49805V550.9707H568.26172zM594.67773 550.9707V689.26562H608.50781C623.37448 689.26562 633.22641 681.77497 638.06641 666.79297 640.83241 657.91964 642.2168 642.35986 642.2168 620.11719 642.2168 597.87519 640.83241 582.31736 638.06641 573.44336 633.22641 558.46136 623.37448 550.9707 608.50781 550.9707H594.67773zM656.12695 550.9707V689.26562H687.76172V678.54688H667.53516V550.9707H656.12695zM697.99219 550.9707V689.26367H729.62891V678.54688H709.40234V622.88086H728.24414V612.33594H709.40234V561.6875L729.62891 561.68945V550.9707H697.99219zM740.87109 550.9707V689.26562H752.28125V624.26758C753.77925 623.92158 756.08398 623.23003 759.19531 622.19336L777.51953 689.26562H790.13867L769.39453 617.00781C769.39453 617.00781 783.57031 598.79833 783.57031 583.125 783.57031 561.689 774.40798 550.9707 756.08398 550.9707H740.87109zM606.08789 561.68945H607.29688C617.78355 561.68945 624.63986 567.85617 627.86719 580.1875 629.94186 587.56283 630.98047 600.87314 630.98047 620.11914 630.98047 639.36514 629.94186 652.67673 627.86719 660.05273 624.64052 672.3834 617.7842 678.54883 607.29688 678.54883V678.54688H606.08789V561.68945zM752.28125 561.68945H754.87305C761.90305 561.68945 766.80236 563.64841 769.56836 567.56641 771.75836 570.67841 772.85352 575.86628 772.85352 583.12695 772.85352 593.61362 770.14519 601.39156 764.72852 606.46289 761.27119 609.68956 757.87001 611.30273 754.52734 611.30273 753.60601 611.30273 752.85792 611.1292 752.28125 610.7832V561.68945z" id="path82" /><path style="fill:none;fill-rule:evenodd;stroke:#000;stroke-width:10;stroke-linecap:butt;stroke-linejoin:miter;stroke-miterlimit:4;stroke-opacity:1" inkscape:connector-curvature="0" id="path86" stroke-miterlimit="4" d="m535.06 552.36 38 135.54" /><path inkscape:connector-curvature="0" id="path88" writing-mode="lr-tb" word-spacing="0" letter-spacing="0" font-size="172.516" font-stretch="normal" font-weight="400" font-variant="normal" font-style="normal" d="m.089 551.123v138.014h11.386v-116.967c6.61 12.689 13.788 25.885 19.676 36.777l5.705 10 .011-.021.014.021 5.705-10C49.174 596.934 56.128 583.7 62.367 572.17v116.967H73.58v-138.014H62.367c-7.288 13.36-14.815 27.345-21.502 39.809l-4.01 7.422c-9.089-17.053-17.273-32.079-25.38-47.23z" style="font-style:normal;font-variant:normal;font-weight:400;font-stretch:normal;font-size:172.51600647px;line-height:125%;font-family:ever after;-inkscape-font-specification:'Ever After, Normal';text-align:start;letter-spacing:0;word-spacing:0;writing-mode:lr-tb;text-anchor:start;fill:#959595;fill-opacity:1;stroke:none;stroke-width:1;stroke-linecap:butt;stroke-linejoin:miter;stroke-opacity:1" /></svg>