<?xml version="1.0" encoding="UTF-8" standalone="no"?>
<svg
   xmlns:dc="http://purl.org/dc/elements/1.1/"
   xmlns:cc="http://creativecommons.org/ns#"
   xmlns:rdf="http://www.w3.org/1999/02/22-rdf-syntax-ns#"
   xmlns:svg="http://www.w3.org/2000/svg"
   xmlns="http://www.w3.org/2000/svg"
   xmlns:sodipodi="http://sodipodi.sourceforge.net/DTD/sodipodi-0.dtd"
   xmlns:inkscape="http://www.inkscape.org/namespaces/inkscape"
   width="100%"
   height="100%"
   viewBox="0 0 790.229 692.608"
   version="1.1"
   id="svg2"
   inkscape:version="0.91 r13725"
   sodipodi:docname="logo_min.svg">
  <metadata
     id="metadata92">
    <rdf:RDF>
      <cc:Work
         rdf:about="">
        <dc:format>image/svg+xml</dc:format>
        <dc:type
           rdf:resource="http://purl.org/dc/dcmitype/StillImage" />
        <dc:title></dc:title>
      </cc:Work>
    </rdf:RDF>
  </metadata>
  <sodipodi:namedview
     pagecolor="#ffffff"
     bordercolor="#666666"
     borderopacity="1"
     objecttolerance="10"
     gridtolerance="10"
     guidetolerance="10"
     inkscape:pageopacity="0"
     inkscape:pageshadow="2"
     inkscape:window-width="1451"
     inkscape:window-height="861"
     id="namedview90"
     showgrid="false"
     inkscape:zoom="2.0385922"
     inkscape:cx="576.28697"
     inkscape:cy="36.388164"
     inkscape:window-x="0"
     inkscape:window-y="0"
     inkscape:window-maximized="0"
     inkscape:current-layer="svg2" />
  <defs
     id="defs4">
    <linearGradient
       id="h">
      <stop
         offset="0"
         stop-color="#a16200"
         stop-opacity="1"
         id="stop7" />
      <stop
         offset="1"
         stop-color="#ffc900"
         stop-opacity="1"
         id="stop9" />
    </linearGradient>
    <linearGradient
       id="g">
      <stop
         offset="0"
         stop-color="#ff9405"
         stop-opacity="1"
         id="stop12" />
      <stop
         offset="1"
         stop-color="#ffda05"
         stop-opacity="1"
         id="stop14" />
    </linearGradient>
    <linearGradient
       id="d">
      <stop
         offset="0"
         stop-color="#ffde05"
         stop-opacity="1"
         id="stop17" />
      <stop
         offset="1"
         stop-color="#ff7f04"
         stop-opacity=".996"
         id="stop19" />
    </linearGradient>
    <linearGradient
       id="e">
      <stop
         offset="0"
         stop-color="#9a9a9a"
         stop-opacity="1"
         id="stop22" />
      <stop
         offset="1"
         stop-color="#fff"
         stop-opacity="0"
         id="stop24" />
    </linearGradient>
    <linearGradient
       id="b">
      <stop
         offset="0"
         stop-color="#cfa200"
         stop-opacity="1"
         id="stop27" />
      <stop
         offset="1"
         stop-color="#493900"
         stop-opacity="1"
         id="stop29" />
    </linearGradient>
    <linearGradient
       id="c">
      <stop
         offset="0"
         stop-color="#fff"
         stop-opacity="1"
         id="stop32" />
      <stop
         offset="1"
         stop-color="#fff"
         stop-opacity="0"
         id="stop34" />
    </linearGradient>
    <linearGradient
       id="a">
      <stop
         offset="0"
         stop-color="#d6e5e5"
         stop-opacity="1"
         id="stop37" />
      <stop
         offset="1"
         stop-color="#f1f1f1"
         stop-opacity="0"
         id="stop39" />
    </linearGradient>
    <linearGradient
       id="f">
      <stop
         offset="0"
         stop-color="#a8e2e2"
         stop-opacity="1"
         id="stop42" />
      <stop
         offset="1"
         stop-color="#fff"
         stop-opacity="0"
         id="stop44" />
    </linearGradient>
  </defs>
  <circle
     cy="227.701"
     cx="395.1145"
     style="font-style:normal;font-weight:400;font-size:medium;line-height:125%;font-family:sans-serif;letter-spacing:0;word-spacing:0;opacity:1;fill:none;fill-opacity:1;stroke:#000000;stroke-width:16.03499985;stroke-linecap:butt;stroke-linejoin:miter;stroke-miterlimit:4;stroke-opacity:1"
     r="219.683"
     font-style="normal"
     font-weight="400"
     font-size="medium"
     letter-spacing="0"
     word-spacing="0"
     stroke-miterlimit="4"
     id="circle46" />
  <g
     style="font-style:normal;font-weight:400;font-size:medium;font-family:sans-serif;letter-spacing:0;word-spacing:0;fill-opacity:1;fill-rule:evenodd;stroke:#a16200;stroke-linecap:butt;stroke-linejoin:miter;stroke-miterlimit:4;stroke-opacity:1"
     font-style="normal"
     font-weight="400"
     font-size="medium"
     letter-spacing="0"
     word-spacing="0"
     stroke-miterlimit="4"
     id="g48"
     transform="translate(-18.129488,0)">
    <path
       inkscape:connector-curvature="0"
       style="line-height:125%;fill:#331f00;stroke-width:1.96899998"
       d="M 483.751,265.736 416.68,305.88 342.447,266.353 483.752,265.736 Z"
       id="path50" />
    <path
       inkscape:connector-curvature="0"
       style="line-height:125%;fill:#efba00;stroke-width:1.99899995"
       d="m 486.65,265.918 -70.195,34.026 -76.902,-33.907 147.097,-0.12 z"
       id="path52" />
  </g>
  <g
     transform="matrix(0.65795,0,0,0.65795,150.50951,2.914)"
     style="font-style:normal;font-weight:400;font-size:medium;line-height:125%;font-family:sans-serif;letter-spacing:0;word-spacing:0;fill:#000000;fill-opacity:1;stroke:none;stroke-width:1;stroke-linecap:butt;stroke-linejoin:miter;stroke-opacity:1"
     font-style="normal"
     font-weight="400"
     font-size="medium"
     letter-spacing="0"
     word-spacing="0"
     id="g54">
    <ellipse
       style="fill:#000000;fill-opacity:1;stroke:none"
       transform="matrix(1.24897,-0.11371,0.107,1.17517,1095.87,466.699)"
       cx="-608.75"
       cy="-163.138"
       rx="25.25"
       ry="28"
       id="ellipse56" />
    <ellipse
       style="fill:#ffffff;fill-opacity:1"
       transform="matrix(0.52213,0,0,0.54745,158.757,136.432)"
       cx="331.35699"
       cy="347.99301"
       rx="15.148"
       ry="17.041"
       id="ellipse58" />
  </g>
  <g
     transform="matrix(0.65795,0,0,0.65795,150.50951,2.914)"
     style="font-style:normal;font-weight:400;font-size:medium;line-height:125%;font-family:sans-serif;letter-spacing:0;word-spacing:0;fill:#000000;fill-opacity:1;stroke:none;stroke-width:1;stroke-linecap:butt;stroke-linejoin:miter;stroke-opacity:1"
     font-style="normal"
     font-weight="400"
     font-size="medium"
     letter-spacing="0"
     word-spacing="0"
     id="g60">
    <ellipse
       style="fill:#000000;stroke:none"
       transform="matrix(1.24897,-0.11371,0.107,1.17517,1203.2,467.646)"
       cx="-608.75"
       cy="-163.138"
       rx="25.25"
       ry="28"
       id="ellipse62" />
    <ellipse
       style="fill:#ffffff"
       transform="matrix(0.52213,0,0,0.54745,265.358,136.993)"
       cx="331.35699"
       cy="347.99301"
       rx="15.148"
       ry="17.041"
       id="ellipse64" />
  </g>
  <g
     style="fill:#000000;fill-opacity:1;fill-rule:evenodd;stroke:#000000;stroke-width:1;stroke-linecap:butt;stroke-linejoin:miter;stroke-opacity:1"
     id="g66"
     transform="translate(-18.129488,0)">
    <path
       inkscape:connector-curvature="0"
       d="m 366.404,100.642 c 18.535,-11.051 36.532,-22.572 46.94,-40.733 1.343,12.303 -0.106,28.426 -10.862,43.448"
       id="path68" />
    <path
       inkscape:connector-curvature="0"
       d="m 389.443,100.642 c 18.535,-11.051 36.532,-22.572 46.94,-40.733 1.343,12.303 -0.106,28.426 -10.862,43.448"
       id="path70" />
    <path
       inkscape:connector-curvature="0"
       d="m 412.482,100.642 c 18.535,-11.051 36.532,-22.572 46.94,-40.733 1.343,12.303 -0.106,28.426 -10.862,43.448"
       id="path72" />
  </g>
  <path
     inkscape:connector-curvature="0"
     d="m 391.11251,87.055 c -81.852,0.265 -156.446,104.425 -180.48,216.453 a 199.606,199.606 0 0 0 51.824,73.07 c 7.901,-157.897 44.79,-266.968 112.57,-207.86 10.104,8.835 15.186,12.902 20.088,12.622 4.902,0.28 9.984,-3.786 20.09,-12.621 67.771,-59.102 104.658,49.935 112.566,207.8 a 199.606,199.606 0 0 0 51.853,-72.894 c -24.006,-112.072 -98.624,-216.305 -180.504,-216.57"
     style="font-style:normal;font-weight:400;font-size:medium;line-height:125%;font-family:sans-serif;letter-spacing:0;word-spacing:0;opacity:1;fill:#000000;fill-opacity:1;stroke:none;stroke-width:12.70199966;stroke-linecap:butt;stroke-linejoin:miter;stroke-miterlimit:4;stroke-opacity:1"
     font-style="normal"
     font-weight="400"
     font-size="medium"
     letter-spacing="0"
     word-spacing="0"
     stroke-miterlimit="4"
     id="path74" />
  <path
     inkscape:connector-curvature="0"
     id="path78"
     writing-mode="lr-tb"
     word-spacing="0"
     letter-spacing="0"
     font-size="medium"
     font-stretch="normal"
     font-weight="400"
     font-variant="normal"
     font-style="normal"
     style="font-style:normal;font-variant:normal;font-weight:400;font-stretch:normal;font-size:medium;line-height:125%;font-family:'Ever After';-inkscape-font-specification:'Ever After, Normal';text-align:start;letter-spacing:0;word-spacing:0;writing-mode:lr-tb;text-anchor:start;fill:#959595;fill-opacity:1;stroke:none;stroke-width:1;stroke-linecap:butt;stroke-linejoin:miter;stroke-opacity:1"
     d="m 131.291,689.265 11.41,0 -20.917,-138.294 -12.275,0 -20.916,138.294 11.41,0 5.877,-45.81 19.361,0 6.05,45.81 z m -24.201,-54.972 8.47,-64.306 8.471,64.306 -16.941,0 z m 82.056,-83.322 -41.143,0 0,10.718 14.867,0 0,127.576 11.409,0 0,-127.575 14.867,0 z" />
  <path
     inkscape:connector-curvature="0"
     id="path80"
     writing-mode="lr-tb"
     word-spacing="0"
     letter-spacing="0"
     font-size="medium"
     font-stretch="normal"
     font-weight="400"
     font-variant="normal"
     font-style="normal"
     style="font-style:normal;font-variant:normal;font-weight:400;font-stretch:normal;font-size:medium;line-height:125%;font-family:'Ever After';-inkscape-font-specification:'Ever After, Normal';text-align:start;letter-spacing:0;word-spacing:0;writing-mode:lr-tb;text-anchor:start;fill:#959595;fill-opacity:1;stroke:none;stroke-width:1;stroke-linecap:butt;stroke-linejoin:miter;stroke-opacity:1"
     d="m 228.649,550.971 -41.143,0 0,10.718 14.867,0 0,127.576 11.409,0 0,-127.575 14.867,0 z m 44.885,0 0,61.366 -28.35,0 0,-61.367 -11.41,0 0,138.294 11.41,0 0,-66.383 28.35,0 0,66.383 11.237,0 0,-138.293 z m 37.825,138.294 -11.408,0 0,-138.294 11.409,0 0,138.294 z m 57.625,0 11.41,0 -20.917,-138.294 -12.274,0 -20.917,138.294 11.41,0 5.877,-45.81 19.36,0 6.051,45.81 z m -24.201,-54.972 8.47,-64.306 8.47,64.306 -16.94,0 z m 60.446,-14.175 c -26.432,-32.313 -16.702,-57.374 10.719,-70.875 l 6.05,9.68 c -24.534,8.786 -26.206,30.304 -14.002,47.193 3.342,4.264 6.684,8.47 10.026,12.62 8.413,11.754 12.62,22.818 12.62,33.19 -0.461,6.338 -1.787,12.043 -3.976,17.114 -5.187,11.87 -14.233,19.188 -27.14,21.954 l -5.878,-9.68 c 10.487,-1.038 17.863,-6.397 22.127,-16.077 1.844,-4.034 2.939,-8.817 3.284,-14.348 0,-9.796 -4.61,-20.053 -13.83,-30.77 z" />
  <path
     style="font-style:normal;font-variant:normal;font-weight:400;font-stretch:normal;font-size:medium;line-height:125%;font-family:'Ever After';-inkscape-font-specification:'Ever After, Normal';text-align:start;letter-spacing:0;word-spacing:0;writing-mode:lr-tb;text-anchor:start;fill:#000000;fill-opacity:1;stroke:none;stroke-width:1;stroke-linecap:butt;stroke-linejoin:miter;stroke-opacity:1"
     d="M 485.62109 550.9707 L 485.62109 689.26367 L 517.25781 689.26367 L 517.25781 678.54688 L 497.03125 678.54688 L 497.03125 622.88086 L 515.87305 622.88086 L 515.87305 612.33594 L 497.03125 612.33594 L 497.03125 561.6875 L 517.25781 561.68945 L 517.25781 550.9707 L 485.62109 550.9707 z M 528.50195 550.9707 L 528.50195 689.26562 L 539.85156 689.26562 L 539.85156 550.9707 L 528.50195 550.9707 z M 568.26172 550.9707 L 568.26172 602.83008 L 568.16797 602.6582 L 568.16797 623.40234 L 568.26172 623.57422 L 568.26172 689.26562 L 579.49805 689.26562 L 579.49805 550.9707 L 568.26172 550.9707 z M 594.67773 550.9707 L 594.67773 689.26562 L 608.50781 689.26562 C 623.37448 689.26562 633.22641 681.77497 638.06641 666.79297 C 640.83241 657.91964 642.2168 642.35986 642.2168 620.11719 C 642.2168 597.87519 640.83241 582.31736 638.06641 573.44336 C 633.22641 558.46136 623.37448 550.9707 608.50781 550.9707 L 594.67773 550.9707 z M 656.12695 550.9707 L 656.12695 689.26562 L 687.76172 689.26562 L 687.76172 678.54688 L 667.53516 678.54688 L 667.53516 550.9707 L 656.12695 550.9707 z M 697.99219 550.9707 L 697.99219 689.26367 L 729.62891 689.26367 L 729.62891 678.54688 L 709.40234 678.54688 L 709.40234 622.88086 L 728.24414 622.88086 L 728.24414 612.33594 L 709.40234 612.33594 L 709.40234 561.6875 L 729.62891 561.68945 L 729.62891 550.9707 L 697.99219 550.9707 z M 740.87109 550.9707 L 740.87109 689.26562 L 752.28125 689.26562 L 752.28125 624.26758 C 753.77925 623.92158 756.08398 623.23003 759.19531 622.19336 L 777.51953 689.26562 L 790.13867 689.26562 L 769.39453 617.00781 C 769.39453 617.00781 783.57031 598.79833 783.57031 583.125 C 783.57031 561.689 774.40798 550.9707 756.08398 550.9707 L 740.87109 550.9707 z M 606.08789 561.68945 L 607.29688 561.68945 C 617.78355 561.68945 624.63986 567.85617 627.86719 580.1875 C 629.94186 587.56283 630.98047 600.87314 630.98047 620.11914 C 630.98047 639.36514 629.94186 652.67673 627.86719 660.05273 C 624.64052 672.3834 617.7842 678.54883 607.29688 678.54883 L 607.29688 678.54688 L 606.08789 678.54688 L 606.08789 561.68945 z M 752.28125 561.68945 L 754.87305 561.68945 C 761.90305 561.68945 766.80236 563.64841 769.56836 567.56641 C 771.75836 570.67841 772.85352 575.86628 772.85352 583.12695 C 772.85352 593.61362 770.14519 601.39156 764.72852 606.46289 C 761.27119 609.68956 757.87001 611.30273 754.52734 611.30273 C 753.60601 611.30273 752.85792 611.1292 752.28125 610.7832 L 752.28125 561.68945 z "
     id="path82" />
  <path
     style="fill:none;fill-rule:evenodd;stroke:#000000;stroke-width:10;stroke-linecap:butt;stroke-linejoin:miter;stroke-miterlimit:4;stroke-opacity:1"
     inkscape:connector-curvature="0"
     id="path86"
     stroke-miterlimit="4"
     d="m 535.06,552.36 38,135.54" />
  <path
     inkscape:connector-curvature="0"
     id="path88"
     writing-mode="lr-tb"
     word-spacing="0"
     letter-spacing="0"
     font-size="172.516"
     font-stretch="normal"
     font-weight="400"
     font-variant="normal"
     font-style="normal"
     d="m 0.089,551.123 0,138.014 11.386,0 0,-116.967 c 6.61,12.689 13.788,25.885 19.676,36.777 l 5.705,10 0.011,-0.021 0.014,0.021 5.705,-10 C 49.174,596.934 56.128,583.7 62.367,572.17 l 0,116.967 11.213,0 0,-138.014 -11.213,0 c -7.288,13.36 -14.815,27.345 -21.502,39.809 l -4.01,7.422 c -9.089,-17.053 -17.273,-32.079 -25.38,-47.23 z"
     style="font-style:normal;font-variant:normal;font-weight:400;font-stretch:normal;font-size:172.51600647px;line-height:125%;font-family:'Ever After';-inkscape-font-specification:'Ever After, Normal';text-align:start;letter-spacing:0;word-spacing:0;writing-mode:lr-tb;text-anchor:start;fill:#959595;fill-opacity:1;stroke:none;stroke-width:1;stroke-linecap:butt;stroke-linejoin:miter;stroke-opacity:1" />
</svg>
