<svg xmlns="http://www.w3.org/2000/svg" viewBox="0 0 790.2 692.6"><circle cx="395.1" cy="227.7" r="219.7" fill="none" stroke="#000" stroke-width="16" style="line-height:125%" font-weight="400" letter-spacing="0" word-spacing="0" font-family="sans-serif"/><g fill-rule="evenodd" stroke="#a16200" stroke-width="2" font-weight="400" letter-spacing="0" word-spacing="0" font-family="sans-serif"><path fill="#331f00" d="M465.6 265.7l-67 40.2-74.3-40 141.3-1z" style="line-height:125%"/><path fill="#efba00" d="M468.5 266l-70.2 34-77-34h147.2z" style="line-height:125%"/></g><g transform="translate(150.51 2.914) scale(.65795)" style="line-height:125%" font-weight="400" letter-spacing="0" word-spacing="0" font-family="sans-serif"><ellipse cx="-608.8" cy="-163.1" transform="matrix(1.24897 -.1137 .107 1.17517 1095.87 466.7)" rx="25.3" ry="28"/><ellipse cx="331.4" cy="348" fill="#fff" transform="matrix(.52213 0 0 .54745 158.757 136.432)" rx="15.1" ry="17"/></g><g transform="translate(150.51 2.914) scale(.65795)" style="line-height:125%" font-weight="400" letter-spacing="0" word-spacing="0" font-family="sans-serif"><ellipse cx="-608.8" cy="-163.1" transform="matrix(1.24897 -.1137 .107 1.17517 1203.2 467.646)" rx="25.3" ry="28"/><ellipse cx="331.4" cy="348" fill="#fff" transform="matrix(.52213 0 0 .54745 265.358 136.993)" rx="15.1" ry="17"/></g><g fill-rule="evenodd" stroke="#000"><path d="M348.3 100.6c18.5-11 36.5-22.5 47-40.7 1.3 12-.2 28-11 43"/><path d="M371.3 100.6c18.5-11 36.5-22.5 47-40.7 1.3 12-.2 28-11 43"/><path d="M394.4 100.6C413 89.6 431 78 441.4 60c1.2 12.2-.2 28.3-11 43.4"/></g><path d="M391 87c-81.7.3-156.3 104.5-180.4 216.5a199.6 199.6 0 0 0 52 73c7.8-157.8 44.6-267 112.4-207.8 10 9 15.2 13 20 12.6 5 .3 10-3.7 20.2-12.6 67.8-59 104.7 50 112.6 207.8a199.6 199.6 0 0 0 51.8-73c-24-112-98.6-216-180.6-216.3" style="line-height:125%" font-weight="400" letter-spacing="0" word-spacing="0" font-family="sans-serif"/><path fill="#959595" d="M131.3 689.3h11.4l-21-138.3h-12.2l-21 138.3H100l6-45.8h19l6 45.8zm-24.2-55l9-64.3 9 64.3h-17zm82-83.3h-41v10.7h15v127.6h12V561.7h14z" word-spacing="0" letter-spacing="0" font-weight="400" style="line-height:125%;-inkscape-font-specification:'Ever After, Normal';text-align:start" font-family="Ever After"/><path fill="#959595" d="M228.6 551h-41v10.7h14.8v127.6h11.4V561.7h14.8zm45 0v61.3H245V551h-11.4v138.3H245V623h28.3v66.3h11.3V551zm37.8 138.3H300V551h11.4v138.3zm57.6 0h11.4l-21-138.3h-12.2l-21 138.3h11.5l6-45.8H363l6 45.8zm-24.2-55l8.5-64.3 8.4 64.3h-17zm60.4-14.2c-26.4-32-16.7-57 10.7-70l6 10c-25 9-27 31-14 47 3 5 6 9 10 13 8 12 12 23 12 33.8-1 6-2 12-4 17-5 12-14 19-27 22l-6-10c10-1 18-6.3 22-16 2-4 3-9 3-14.3 0-10-5-20-14-31z" word-spacing="0" letter-spacing="0" font-weight="400" style="line-height:125%;-inkscape-font-specification:'Ever After, Normal';text-align:start" font-family="Ever After"/><path d="M485.6 551v138.3h31.7v-10.8H497V623h19v-10.7h-19v-50.6h20.3V551zm43 0v138.3H540V551zm39.7 0v138.3h11.2V551zm26.4 0v138.3h13.8c15 0 24.7-7.5 29.6-22.5 3-9 5-24.4 5-46.7 0-22-1-37-4-46-5-15-15-22-29-22zm61.4 0v138.3h32v-10.8h-20V551zm42 0v138.3h32v-10.8h-20V623h19v-10.7h-19v-50.6h20V551zm43 0v138.3h12v-67c2-.4 4 1 7 0l19 67h12L770 617c27-20.2 16-67.4-13.3-66zm-135 10.7h2c11 0 18 6.2 21 18.5 2 7.4 3 20.7 3 40 0 19.2-1 32.5-3 40-3 12.2-10 18.3-20 18.3h-2zm147 0c13-2.7 19 10.6 19 21.3 0 12-2 28-16 28.3-1 0-1.4-.2-2-.5z" style="line-height:125%;-inkscape-font-specification:'Ever After, Normal';text-align:start" font-weight="400" font-family="Ever After" letter-spacing="0" word-spacing="0"/><path fill="none" stroke="#000" stroke-width="10" d="M535 552.4L573 688"/><path fill="#959595" d="M0 551v138h11.5V572.3c6.6 12.7 13.8 26 19.7 36.7l5.7 10 5-10c6-12 13-25.3 20-36.8v117h11V551H62l-21 39.8-4 7.4c-9.2-17-17.4-32-25.5-47.3z" word-spacing="0" letter-spacing="0" font-size="172.5" font-weight="400" style="line-height:125%;-inkscape-font-specification:'Ever After, Normal';text-align:start" font-family="Ever After"/></svg>