<svg xmlns="http://www.w3.org/2000/svg" viewBox="0 0 790.229 692.608"><circle cx="395.115" cy="227.701" r="219.683" fill="none" stroke="#000" stroke-width="16.035" style="line-height:125%" font-weight="400" letter-spacing="0" word-spacing="0" font-family="sans-serif"/><g fill-rule="evenodd" stroke="#a16200" font-weight="400" letter-spacing="0" word-spacing="0" font-family="sans-serif"><path fill="#331f00" stroke-width="1.969" d="M465.622 265.736l-67.07 40.144-74.234-39.527 141.305-.617z" style="line-height:125%"/><path fill="#efba00" stroke-width="1.999" d="M468.52 265.918l-70.194 34.026-76.902-33.907 147.097-.12z" style="line-height:125%"/></g><g transform="translate(150.51 2.914) scale(.65795)" style="line-height:125%" font-weight="400" letter-spacing="0" word-spacing="0" font-family="sans-serif"><ellipse cx="-608.75" cy="-163.138" transform="matrix(1.24897 -.1137 .107 1.17517 1095.87 466.7)" rx="25.25" ry="28"/><ellipse cx="331.357" cy="347.993" fill="#fff" transform="matrix(.52213 0 0 .54745 158.757 136.432)" rx="15.148" ry="17.041"/></g><g transform="translate(150.51 2.914) scale(.65795)" style="line-height:125%" font-weight="400" letter-spacing="0" word-spacing="0" font-family="sans-serif"><ellipse cx="-608.75" cy="-163.138" transform="matrix(1.24897 -.1137 .107 1.17517 1203.2 467.646)" rx="25.25" ry="28"/><ellipse cx="331.357" cy="347.993" fill="#fff" transform="matrix(.52213 0 0 .54745 265.358 136.993)" rx="15.148" ry="17.041"/></g><g fill-rule="evenodd" stroke="#000"><path d="M348.275 100.642c18.535-11.05 36.532-22.572 46.94-40.733 1.343 12.302-.106 28.425-10.862 43.447"/><path d="M371.314 100.642c18.535-11.05 36.532-22.572 46.94-40.733 1.343 12.302-.106 28.425-10.862 43.447"/><path d="M394.353 100.642c18.535-11.05 36.532-22.572 46.94-40.733 1.343 12.302-.106 28.425-10.862 43.447"/></g><path d="M391.113 87.055c-81.852.265-156.446 104.425-180.48 216.453a199.606 199.606.0 0 0 51.824 73.07c7.9-157.897 44.79-266.968 112.57-207.86 10.104 8.835 15.186 12.902 20.088 12.622 4.902.28 9.984-3.786 20.09-12.62 67.77-59.103 104.658 49.934 112.566 207.8a199.606 199.606.0 0 0 51.854-72.895C555.618 191.553 481 87.32 399.12 87.055" style="line-height:125%" font-weight="400" letter-spacing="0" word-spacing="0" font-family="sans-serif"/><path fill="#959595" d="M131.29 689.265h11.41L121.785 550.97H109.51L88.592 689.266h11.41l5.877-45.81h19.36l6.05 45.81zm-24.2-54.972 8.47-64.306 8.47 64.306h-16.94zm82.056-83.322h-41.143v10.72h14.867v127.575h11.41V561.69h14.866z" word-spacing="0" letter-spacing="0" font-weight="400" style="line-height:125%;-inkscape-font-specification:'Ever After, Normal';text-align:start" font-family="Ever After"/><path fill="#959595" d="M228.65 550.97h-41.144v10.72h14.867v127.575h11.41V561.69h14.866zm44.884.0v61.367h-28.35V550.97h-11.41v138.294h11.41V622.88h28.35v66.384h11.237V550.97zm37.825 138.295h-11.41V550.97h11.41v138.295zm57.624.0h11.41L359.477 550.97h-12.274l-20.917 138.295h11.41l5.877-45.81h19.36l6.05 45.81zm-24.2-54.972 8.47-64.306 8.47 64.306h-16.94zm60.445-14.175c-26.433-32.313-16.703-57.374 10.718-70.875l6.05 9.68c-24.534 8.786-26.206 30.304-14.002 47.193 3.342 4.264 6.684 8.47 10.026 12.62 8.413 11.754 12.62 22.818 12.62 33.19-.46 6.338-1.787 12.043-3.976 17.114-5.187 11.87-14.233 19.188-27.14 21.954l-5.878-9.68c10.487-1.038 17.863-6.397 22.127-16.077 1.844-4.034 2.94-8.817 3.284-14.348.0-9.797-4.61-20.054-13.83-30.77z" word-spacing="0" letter-spacing="0" font-weight="400" style="line-height:125%;-inkscape-font-specification:'Ever After, Normal';text-align:start" font-family="Ever After"/><path d="M485.62 550.97v138.294h31.638v-10.717H497.03V622.88h18.843v-10.544H497.03v-50.65l20.228.003v-10.72H485.62zm42.882.0v138.296h11.35V550.97h-11.35zm39.76.0v51.86l-.094-.172v20.744l.094.172v65.692h11.236V550.97h-11.236zm26.416.0v138.296h13.83c14.866.0 24.718-7.49 29.558-22.473 2.766-8.873 4.15-24.433 4.15-46.676.0-22.242-1.384-37.8-4.15-46.674-4.84-14.982-14.692-22.472-29.558-22.472h-13.83zm61.45.0v138.296h31.634v-10.72h-20.227V550.972h-11.408zm41.864.0v138.294h31.637v-10.717H709.4V622.88h18.842v-10.544H709.4v-50.65l20.227.003v-10.72H697.99zm42.88.0v138.296h11.41v-64.998c1.497-.346 3.802-1.038 6.913-2.075l18.325 67.073h12.62l-20.745-72.258s14.175-18.21 14.175-33.883c0-21.436-9.162-32.154-27.486-32.154H740.87zm-134.784 10.72h1.21c10.486.0 17.342 6.166 20.57 18.497 2.074 7.376 3.112 20.686 3.112 39.932.0 19.245-1.038 32.557-3.113 39.933-3.226 12.33-10.083 18.496-20.57 18.496v-.003h-1.21V561.69zm146.193.0h2.593c7.03.0 11.93 1.958 14.695 5.876 2.19 3.112 3.286 8.3 3.286 15.56.0 10.488-2.71 18.266-8.125 23.337-3.46 3.227-6.86 4.84-10.203 4.84-.92.0-1.67-.174-2.246-.52V561.69z" style="line-height:125%;-inkscape-font-specification:'Ever After, Normal';text-align:start" font-weight="400" font-family="Ever After" letter-spacing="0" word-spacing="0"/><path fill="none" stroke="#000" stroke-width="10" d="M535.06 552.36l38 135.54"/><path fill="#959595" d="M.09 551.123v138.014h11.385V572.17c6.61 12.69 13.788 25.885 19.676 36.777l5.706 10 .01-.02.015.02 5.706-10c6.588-12.013 13.542-25.247 19.78-36.777v116.967H73.58V551.123H62.367c-7.288 13.36-14.815 27.345-21.502 39.81l-4.01 7.42c-9.09-17.052-17.273-32.078-25.38-47.23z" word-spacing="0" letter-spacing="0" font-size="172.516" font-weight="400" style="line-height:125%;-inkscape-font-specification:'Ever After, Normal';text-align:start" font-family="Ever After"/></svg>