<?xml version="1.0" encoding="UTF-8" standalone="no"?>
<svg id="svg2" xmlns:rdf="http://www.w3.org/1999/02/22-rdf-syntax-ns#" xmlns="http://www.w3.org/2000/svg" viewBox="0 0 791.26655 739.59128" height="208.73mm" width="223.31mm" version="1.1" xmlns:cc="http://creativecommons.org/ns#" xmlns:xlink="http://www.w3.org/1999/xlink" xmlns:dc="http://purl.org/dc/elements/1.1/">
 <metadata id="metadata7">
  <rdf:RDF>
   <cc:Work rdf:about="">
    <dc:format>image/svg+xml</dc:format>
    <dc:type rdf:resource="http://purl.org/dc/dcmitype/StillImage"/>
    <dc:title/>
   </cc:Work>
  </rdf:RDF>
 </metadata>
 <g id="layer1" transform="translate(23.586 -156.39)">
  <g id="text4136">
   <g id="g4171" fill="#959595" transform="translate(1078.7 4050.6)">
    <path id="path4141" d="m-1046.5-3156.2v-44.82q0-16.38 0-32.04 0.18-15.66 0.36-32.04l-16.02 108.9h-12.06l-15.84-108.9q0.18 16.38 0.18 32.04 0.18 15.66 0.18 32.04v44.82h-12.6v-148.14h18.36l15.66 115.74 15.66-115.74h18.9v148.14h-12.78z"/>
    <path id="path4143" d="m-983.26-3156.2-3.24-24.84h-22.14l-3.24 24.84h-13.32l20.34-148.14h16.02l19.26 148.14h-13.68zm-4.86-37.44q-2.34-19.08-4.68-37.62-2.34-18.72-4.5-38.34-2.34 19.62-4.86 38.34-2.34 18.54-4.86 37.62h18.9z"/>
    <path id="path4145" d="m-954.68-3156.2v-134.28h-16.56v-13.86h54.62v13.86h-24.56v134.28z"/>
    <path id="path4147" d="m-901.95-3156.2v-134.28h-16.56v-13.86h46.62v13.86h-16.56v134.28h-13.5z"/>
    <path id="path4149" d="m-830.09-3156.2v-68.58h-19.08v68.58h-13.68v-148.14h13.68v66.06h19.08v-66.06h13.68v148.14h-13.68z"/>
    <path id="path4151" d="m-802.72-3156.2v-148.14h13.68v148.14h-13.68z"/>
    <path id="path4153" d="m-737.87-3156.2-3.24-24.84h-22.14l-3.24 24.84h-13.32l20.34-148.14h16.02l19.26 148.14h-13.68zm-4.86-37.44q-2.34-19.08-4.68-37.62-2.34-18.72-4.5-38.34-2.34 19.62-4.86 38.34-2.34 18.54-4.86 37.62h18.9z"/>
    <path id="path4155" d="m-686-3200.1q0-3.42-0.18-5.58t-0.72-3.78-1.44-2.88q-0.9-1.44-2.16-3.06-2.7-3.24-5.4-5.94-2.7-2.88-5.58-5.58-2.88-2.88-5.94-5.94-2.88-3.24-6.12-7.2-3.6-4.14-4.32-8.46-0.54-4.5-0.54-10.8v-22.14q0-24.48 23.04-24.48 12.42 0 17.46 6.12 5.04 5.94 5.04 18.36v27h-12.78v-25.2q0-5.58-1.98-9-1.8-3.42-7.38-3.42-9.54 0-9.54 10.62v21.96q0 4.68 0.54 6.84 0.72 2.16 2.7 4.68 5.4 6.84 10.98 12.06 5.76 5.22 11.52 12.06 1.98 2.34 3.24 4.68t1.98 5.04 0.9 6.12q0.36 3.42 0.36 7.74v21.24q0 11.88-5.4 18.18-5.22 6.3-17.64 6.3-12.06 0-17.64-6.3-5.4-6.3-5.4-18.18v-31.5h13.14v29.52q0 5.76 1.98 9.36 2.16 3.6 7.56 3.6 5.22 0 7.38-2.7 2.34-2.88 2.34-8.28v-21.06z"/>
   </g>
   <path id="path4157" d="m446.59 894.36v-148.14h39.24v13.86h-25.56v52.02h18v13.68h-18v55.08h26.46v13.5h-40.14z"/>
   <path id="path4159" d="m533.77 894.36-25.56-108.18q0.18 16.92 0.18 32.94 0 15.84 0 32.76v42.48h-11.88v-148.14h16.38l22.68 108.54q-0.18-15.3-0.18-29.88 0-14.76 0-30.06v-48.6h12.06v148.14h-13.68z"/>
   <path id="path4161" d="m593.26 771.78q0-5.58-2.52-8.64-2.34-3.06-7.2-3.06h-9.36v120.78h9.36q9.72 0 9.72-11.7v-97.38zm-32.76 122.58v-148.14h23.04q11.88 0 17.64 6.84 5.76 6.66 5.76 18.54v97.56q0 25.2-23.4 25.2h-23.04z"/>
   <path id="path4163" d="m619.21 894.36v-148.14h13.68v134.64h26.46v13.5h-40.14z"/>
   <path id="path4165" d="m667.73 894.36v-148.14h39.24v13.86h-25.56v52.02h18v13.68h-18v55.08h26.46v13.5h-40.14z"/>
   <path id="path4167" d="m752.74 894.36q-2.34-17.46-4.86-33.84-2.52-16.56-5.58-33.48-0.9 0.18-1.62 0.18t-1.62 0h-7.38v67.14h-13.68v-148.14h22.5q12.96 0 19.26 6.12 6.48 5.94 6.48 20.52v29.52q0 16.2-10.98 21.78 3.6 18 6.66 35.46 3.06 17.28 5.76 34.74h-14.94zm-0.36-119.7q0-8.1-2.34-11.34t-9.54-3.24h-8.82v54.72h9q6.3 0 9-2.88 2.7-3.06 2.7-9.36v-27.9z"/>
   <g id="g6656" transform="matrix(.58098 0 0 .58098 -509.11 -1826.6)">
    <circle id="circle6590" cx="1516.7" stroke="#000" cy="3816.8" r="378.13" stroke-width="27.6" fill="none"/>
    <path id="circle6616" d="m1540.1 3418.3a340.77 495.06 0 0 0 -326.1 354.75 345.54 345.54 0 0 0 89.92 138.86c11.5-282.98 75.277-457.19 194.71-353.04 34.183 29.886 34.978 28.135 65.645 0 22.957-21.062 44.562-30.913 64.611-31.088 81.996-0.7165 137.95 160.44 153.93 378.5a345.54 345.54 0 0 0 83.443 -132.62 340.77 495.06 0 0 0 -326.16 -355.36z" transform="translate(-23.586 156.39)"/>
    <path id="path6596" d="m1635.9 3882.2-115.45 69.098-127.77-68.036 243.22-1.0622z" fill-rule="evenodd" stroke="#a16200" stroke-width="3.3892" fill="#331f00"/>
    <path id="path6598" d="m1640.9 3882.6-120.82 58.568-132.37-58.362 253.19-0.2057z" fill-rule="evenodd" stroke="#a16200" stroke-width="3.4408" fill="#efba00"/>
    <g id="g6600" transform="matrix(1.1325 0 0 1.1325 1096.9 3429.9)">
     <g id="g6602" transform="matrix(.46396 -.042241 .042241 .46396 137.47 164.69)">
      <ellipse id="ellipse6604" rx="25.25" transform="matrix(2.692 0 0 2.5329 1989.9 832.09)" ry="28" cy="-163.14" cx="-608.75"/>
     </g>
     <ellipse id="ellipse6606" rx="15.148" transform="matrix(.52213 0 0 .54745 158.76 136.43)" ry="17.041" cy="347.99" cx="331.36" fill="#fff"/>
    </g>
    <g id="g6608" transform="matrix(1.1325 0 0 1.1325 1096.9 3429.9)">
     <ellipse id="ellipse6610" rx="25.25" transform="matrix(1.249 -.11371 .10699 1.1752 1203.2 467.65)" ry="28" cy="-163.14" cx="-608.75"/>
     <ellipse id="ellipse6612" rx="15.148" transform="matrix(.52213 0 0 .54745 265.36 136.99)" ry="17.041" cy="347.99" cx="331.36" fill="#fff"/>
    </g>
    <path id="path6614" d="m1464.8 3587.6s57.265-36.945 62.806-64.654c5.5417-27.709 3.6945 27.709-25.862 59.112s51.723-25.862 57.265-59.112c5.5418-33.251 12.931 38.792-18.472 66.501s51.723-27.709 57.265-62.806c5.5418-35.098 14.778 40.64-12.931 62.806-27.709 22.167-116.38 3.6945-120.07-1.8473z" fill-rule="evenodd"/>
   </g>
  </g>
 </g>
</svg>
