<svg xmlns:dc="http://purl.org/dc/elements/1.1/" xmlns:cc="http://creativecommons.org/ns#" xmlns:rdf="http://www.w3.org/1999/02/22-rdf-syntax-ns#" xmlns:svg="http://www.w3.org/2000/svg" xmlns="http://www.w3.org/2000/svg" xmlns:sodipodi="http://sodipodi.sourceforge.net/DTD/sodipodi-0.dtd" xmlns:inkscape="http://www.inkscape.org/namespaces/inkscape" width="1200" height="630" viewBox="-396e3 0 0 90" style="clip-rule:evenodd;fill-rule:evenodd;stroke-linejoin:round;stroke-miterlimit:1.41420996" id="svg2" inkscape:version="0.91 r13725" sodipodi:docname="hacktoberfest_social.svg"><sodipodi:namedview pagecolor="#efe6c9" bordercolor="#666666" borderopacity="1" objecttolerance="10" gridtolerance="10" guidetolerance="10" inkscape:pageopacity="1" inkscape:pageshadow="2" inkscape:window-width="1440" inkscape:window-height="856" id="namedview444" showgrid="false" inkscape:zoom=".20789401" inkscape:cx="126.33738" inkscape:cy="47.903226" inkscape:window-x="0" inkscape:window-y="0" inkscape:window-maximized="0" inkscape:current-layer="svg2" /><g id="g4524" transform="matrix(3.9533633,0,0,3.9533633,-59.861798,-2020.823)"><g id="g4388"><g id="g10" transform="matrix(0.84996007,0,0,0.84996007,39.285684,555.77387)"><path d="m230.017 66.07c0 1.949-1.58 3.528-3.528 3.528h-21.391c-1.948.0-3.528-1.579-3.528-3.528v-36.605c0-1.949 1.58-3.529 3.528-3.529h21.391c1.948.0 3.528 1.58 3.528 3.529V66.07z" style="fill:#bcbebd;fill-rule:nonzero" id="path12" inkscape:connector-curvature="0" /><path d="M203.224 27.039h25.139v39.251999H203.224z" style="fill:#f9a436;fill-rule:nonzero" id="rect14" /><path d="m228.682 66.291h-11.565 11.246v-39.252h-11.246v-.221h11.565v39.473z" style="fill:#b6a588;fill-rule:nonzero" id="path16" inkscape:connector-curvature="0" /><path d="m228.363 66.291h-11.246v-16.341c.215-.026.416-.198.493-.448.099-.324-.046-.655-.324-.74-.045-.014-.091-.021-.136-.021-.011.0-.022.001-.033.002v-12.268c.182-.055.342-.213.409-.43.099-.323-.047-.655-.325-.74-.028-.009-.056-.015-.084-.018v-8.248h11.246v39.252zm-10.757-6.964c-.094.0-.186.072-.219.18-.04.129.018.262.129.296.018.005.036.007.054.007.094.0.186-.071.219-.181.041-.129-.018-.26-.129-.294-.018-.005-.036-.008-.054-.008zm-.239-1.664c-.095.0-.187.072-.221.181-.039.129.019.261.13.297.018.005.036.008.054.008.094.0.186-.073.219-.183.04-.127-.018-.26-.13-.295-.017-.005-.035-.008-.052-.008zm1.075-3.079c-.094.0-.186.073-.219.182-.04.128.018.262.13.296.017.005.036.007.053.007.094.0.187-.071.22-.18.04-.129-.019-.261-.13-.297-.017-.005-.036-.008-.054-.008zm.277-2.196c-.094.0-.186.071-.219.179-.039.13.017.264.129.299.018.005.035.007.052.007.095.0.188-.071.222-.18.039-.131-.019-.261-.131-.297-.017-.006-.035-.008-.053-.008zm1.149-1.159c-.093.0-.185.071-.217.18-.041.129.017.262.128.296.018.006.036.008.054.008.095.0.186-.072.22-.181.04-.129-.018-.262-.13-.295-.017-.005-.036-.008-.055-.008zm-.066-1.942c-.094.0-.185.072-.218.181-.04.126.019.26.129.295.018.005.036.008.054.008.095.0.187-.073.22-.181.04-.129-.019-.26-.131-.295-.017-.005-.036-.008-.054-.008zm-1.872-5.395c-.095.0-.187.072-.22.182-.04.128.018.26.129.295.018.005.036.008.054.008.094.0.185-.072.22-.181.039-.128-.02-.261-.13-.296-.018-.005-.036-.008-.053-.008zm3.377-1.796c-.237.0-.465.18-.549.452-.098.322.047.655.324.739.045.013.091.02.137.02.236.0.463-.179.547-.45.099-.323-.047-.655-.325-.741-.044-.013-.089-.02-.134-.02zm6.098-2.409c-.236.0-.465.18-.549.451-.098.323.046.655.325.74.045.013.09.02.135.02.237.0.466-.179.549-.451.1-.323-.045-.655-.324-.739-.045-.014-.091-.021-.136-.021zm-5.14-1.231c-.093.0-.186.072-.218.18-.041.13.017.262.128.295.019.006.037.009.056.009.094.0.185-.072.218-.18.04-.129-.018-.263-.13-.296-.017-.006-.036-.008-.054-.008zm-1.328-1.985c-.236.0-.466.181-.549.452-.099.324.046.655.324.74.045.014.09.02.134.02.237.0.467-.18.55-.451.099-.322-.046-.655-.325-.741-.044-.014-.089-.02-.134-.02zm1.8.233c-.095.0-.187.072-.22.181-.04.128.018.261.13.295.018.005.036.008.054.008.094.0.186-.072.219-.18.04-.129-.019-.262-.129-.296-.018-.006-.036-.008-.054-.008z" style="fill:#f2912d;fill-rule:nonzero" id="path18" inkscape:connector-curvature="0" /><path d="m220.484 22.05.055-.074.039.079c-.032-.002-.062-.003-.094-.005zm-8.438-.16c.044-.071.09-.141.131-.214.033.054.064.109.099.162-.078.015-.153.034-.23.052zm-3.309 2.656-.08-.088c.045-.013.094-.022.139-.036-.02.04-.039.083-.059.124zm22.286.032c.081-.344.134-.699.134-1.068.0-1.221-.478-2.324-1.241-3.16.029-.218.064-.435.064-.662.0-2.76-2.238-4.998-4.998-4.998-1.69.0-3.181.84-4.086 2.123-.83-1.609-2.505-2.712-4.441-2.712-1.706.0-3.211.857-4.113 2.161-.949-1.972-2.96-3.337-5.295-3.337-3.248.0-5.881 2.633-5.881 5.881.0 1.571.62 2.996 1.624 4.051-2.464.7-4.27 2.963-4.27 5.652.0 3.248 2.632 5.88 5.88 5.88 2.549.0 4.712-1.623 5.528-3.89.88.772 2.03 1.244 3.293 1.244 1.306.0 2.491-.504 3.381-1.324.914.993 2.22 1.618 3.675 1.618 1.169.0 2.243-.404 3.095-1.077.913 1.19 2.346 1.96 3.962 1.96 2.761.0 4.998-2.238 4.998-4.998.0-1.293-.503-2.459-1.309-3.344z" style="fill:#fff;fill-rule:nonzero" id="path20" inkscape:connector-curvature="0" /><path d="m201.622 37.057c0 0-10.683-2.018-11.632 2.016-.949 4.037-2.848 17.924 2.137 19.466 4.985 1.543 8.427 1.663 9.02 1.663.594.0.95 1.186 1.425 1.069.475-.121.831-5.343.356-5.461-.475-.118-.711-.356-1.306.475-.593.831-8.44 1.057-8.813-4.689-.401-6.186-.133-9.409.58-10.282.978-1.202 5.741-1.765 6.691-.46.949 1.306 2.017 1.78 2.255.95.237-.83.712-5.341-.713-4.747z" style="fill:#bcbebd;fill-rule:nonzero" id="path22" inkscape:connector-curvature="0" /><path d="m205.184 36.498c-.034.0-.068-.004-.102-.014-.211-.066-.321-.317-.246-.564.064-.206.238-.343.417-.343.034.0.069.005.102.016.211.065.322.317.247.562-.063.208-.238.343-.418.343z" style="fill:url(#_Linear1)" id="path24" inkscape:connector-curvature="0" /><path d="m207.339 39.543c-.035.0-.069-.005-.102-.016-.212-.065-.323-.316-.245-.563.062-.206.236-.343.415-.343.034.0.069.005.102.015.211.065.323.316.247.563-.063.206-.238.344-.417.344z" style="fill:url(#_Linear2)" id="path26" inkscape:connector-curvature="0" /><path d="m210.842 35.186c-.029.0-.058-.004-.086-.013-.178-.054-.271-.267-.208-.473.054-.174.2-.29.351-.29.029.0.058.005.087.014.179.054.272.266.208.474-.053.173-.201.288-.352.288z" style="fill:url(#_Linear3)" id="path28" inkscape:connector-curvature="0" /><path d="m211.417 37.179c-.034.0-.068-.005-.102-.015-.212-.065-.323-.316-.247-.562.063-.207.237-.344.417-.344.034.0.069.005.103.016.211.065.321.316.245.562-.062.206-.237.343-.416.343z" style="fill:url(#_Linear4)" id="path30" inkscape:connector-curvature="0" /><path d="m211.307 41.601c-.045.0-.09-.006-.134-.02-.278-.085-.423-.418-.325-.74.084-.271.313-.452.549-.452.045.0.09.007.135.021.278.085.423.417.324.74-.083.271-.313.451-.549.451z" style="fill:url(#_Linear5)" id="path32" inkscape:connector-curvature="0" /><path d="m215.104 37.639c-.045.0-.091-.007-.136-.02-.277-.085-.423-.418-.323-.741.084-.271.313-.451.549-.451.044.0.089.007.133.02.279.086.425.416.326.74-.084.272-.313.452-.549.452z" style="fill:url(#_Linear6)" id="path34" inkscape:connector-curvature="0" /><path d="m216.004 59.444c-.046.0-.092-.006-.137-.02-.278-.085-.424-.415-.324-.74.083-.272.311-.45.548-.45.045.0.091.007.136.02.278.084.423.416.324.739-.083.272-.311.451-.547.451z" style="fill:url(#_Linear7)" id="path36" inkscape:connector-curvature="0" /><path d="m217.061 49.953c-.045.0-.091-.006-.135-.02-.278-.086-.423-.417-.324-.74.079-.26.291-.434.515-.45v1.207c-.019.002-.038.003-.056.003z" style="fill:url(#_Linear8)" id="path38" inkscape:connector-curvature="0" /><path d="m217.117 49.95v-1.207c.011-.001.022-.002.033-.002.045.0.091.007.136.021.278.085.423.416.324.74-.077.25-.278.422-.493.448z" style="fill:url(#_Linear9)" id="path40" inkscape:connector-curvature="0" /><path d="m221.219 43.307c-.046.0-.092-.007-.137-.02-.277-.084-.422-.417-.324-.739.084-.272.312-.452.549-.452.045.0.09.007.134.02.278.086.424.418.325.741-.084.271-.311.45-.547.45z" style="fill:url(#_Linear10)" id="path42" inkscape:connector-curvature="0" /><path d="m211.854 58.583c-.045.0-.09-.006-.134-.02-.279-.086-.423-.417-.325-.74.085-.272.313-.451.55-.451.045.0.09.006.135.02.277.085.423.417.324.74-.083.272-.313.451-.55.451z" style="fill:url(#_Linear11)" id="path44" inkscape:connector-curvature="0" /><path d="m214.064 50.237c-.046.0-.091-.006-.136-.02-.279-.084-.424-.416-.325-.741.082-.269.311-.45.547-.45.045.0.092.007.137.021.278.084.423.416.324.74-.084.271-.312.45-.547.45z" style="fill:url(#_Linear12)" id="path46" inkscape:connector-curvature="0" /><path d="m208.384 50.341c-.045.0-.09-.007-.135-.02-.278-.085-.424-.417-.324-.741.083-.27.312-.45.548-.45.045.0.091.006.135.02.278.086.423.416.324.739-.084.272-.313.452-.548.452z" style="fill:url(#_Linear13)" id="path48" inkscape:connector-curvature="0" /><path d="m220.846 37.683c-.044.0-.089-.006-.134-.02-.278-.085-.423-.416-.324-.74.083-.271.313-.452.549-.452.045.0.09.006.134.02.279.086.424.419.325.741-.083.271-.313.451-.55.451z" style="fill:url(#_Linear14)" id="path50" inkscape:connector-curvature="0" /><path d="m227.316 40.898c-.045.0-.09-.007-.135-.02-.279-.085-.423-.417-.325-.74.084-.271.313-.451.549-.451.045.0.091.007.136.021.279.084.424.416.324.739-.083.272-.312.451-.549.451z" style="fill:url(#_Linear15)" id="path52" inkscape:connector-curvature="0" /><path d="m216.975 36.496c-.045.0-.09-.006-.134-.02-.277-.087-.423-.417-.325-.741.084-.271.314-.451.55-.451.017.0.034.001.051.003v1.188c-.047.014-.094.021-.142.021z" style="fill:url(#_Linear16)" id="path54" inkscape:connector-curvature="0" /><path d="m217.117 36.475v-1.188c.028.003.056.009.084.018.278.085.424.417.325.74-.067.217-.227.375-.409.43z" style="fill:url(#_Linear17)" id="path56" inkscape:connector-curvature="0" /><path d="m205.04 38.537c-.019.0-.037-.003-.056-.009-.111-.034-.17-.166-.129-.295.034-.108.126-.181.221-.181.017.0.035.002.052.008.112.035.169.167.13.296-.034.109-.124.181-.218.181z" style="fill:url(#_Linear18)" id="path58" inkscape:connector-curvature="0" /><path d="m222.701 37.188c-.018.0-.036-.003-.054-.008-.112-.034-.17-.167-.13-.295.033-.109.125-.181.22-.181.018.0.036.002.054.008.11.034.169.167.129.296-.033.108-.125.18-.219.18z" style="fill:url(#_Linear19)" id="path60" inkscape:connector-curvature="0" /><path d="m222.231 38.94c-.019.0-.037-.003-.056-.009-.111-.033-.169-.165-.128-.295.032-.108.125-.18.218-.18.018.0.037.002.054.008.112.033.17.167.13.296-.033.108-.124.18-.218.18z" style="fill:url(#_Linear20)" id="path62" inkscape:connector-curvature="0" /><path d="m207.611 37.556c-.018.0-.036-.002-.055-.008-.111-.033-.169-.165-.13-.296.034-.107.126-.179.221-.179.018.0.036.003.054.008.11.034.169.167.128.297-.033.107-.124.178-.218.178z" style="fill:url(#_Linear21)" id="path64" inkscape:connector-curvature="0" /><path d="m213.026 48.164c-.019.0-.037-.003-.055-.008-.111-.033-.168-.167-.129-.297.033-.108.124-.179.218-.179.019.0.037.002.055.008.112.033.17.165.131.295-.033.109-.125.181-.22.181z" style="fill:url(#_Linear22)" id="path66" inkscape:connector-curvature="0" /><path d="m217.893 44.377c-.018.0-.036-.003-.054-.008-.111-.035-.169-.167-.129-.295.033-.11.125-.182.22-.182.017.0.035.003.053.008.11.035.169.168.13.296-.035.109-.126.181-.22.181z" style="fill:url(#_Linear23)" id="path68" inkscape:connector-curvature="0" /><path d="m212.968 55.682c-.017.0-.036-.003-.053-.008-.111-.034-.169-.167-.13-.295.034-.109.126-.181.222-.181.017.0.034.002.051.007.112.035.17.168.131.296-.035.109-.126.181-.221.181z" style="fill:url(#_Linear24)" id="path70" inkscape:connector-curvature="0" /><path d="m213.383 52.682c-.018.0-.037-.003-.055-.009-.111-.034-.169-.165-.13-.296.034-.107.126-.179.219-.179.018.0.036.003.054.009.112.033.17.166.131.294-.034.109-.125.181-.219.181z" style="fill:url(#_Linear25)" id="path72" inkscape:connector-curvature="0" /><path d="m216.231 51.813c-.018.0-.037-.003-.055-.009-.111-.034-.17-.166-.13-.295.034-.11.125-.181.219-.181.018.0.036.002.055.008.11.035.168.167.128.295-.033.11-.123.182-.217.182z" style="fill:url(#_Linear26)" id="path74" inkscape:connector-curvature="0" /><path d="m216.711 55.856c-.019.0-.037-.003-.055-.009-.111-.033-.169-.165-.13-.296.034-.108.125-.179.219-.179.018.0.036.002.054.007.112.035.17.166.13.296-.033.109-.124.181-.218.181z" style="fill:url(#_Linear27)" id="path76" inkscape:connector-curvature="0" /><path d="m218.406 55.069c-.017.0-.036-.002-.053-.007-.112-.034-.17-.168-.13-.296.033-.109.125-.182.219-.182.018.0.037.003.054.008.111.036.17.168.13.297-.033.109-.126.18-.22.18z" style="fill:url(#_Linear28)" id="path78" inkscape:connector-curvature="0" /><path d="m218.681 52.873c-.017.0-.034-.002-.052-.007-.112-.035-.168-.169-.129-.299.033-.108.125-.179.219-.179.018.0.036.002.053.008.112.036.17.166.131.297-.034.109-.127.18-.222.18z" style="fill:url(#_Linear29)" id="path80" inkscape:connector-curvature="0" /><path d="m219.833 51.713c-.018.0-.036-.002-.054-.008-.111-.034-.169-.167-.128-.296.032-.109.124-.18.217-.18.019.0.038.003.055.008.112.033.17.166.13.295-.034.109-.125.181-.22.181z" style="fill:url(#_Linear30)" id="path82" inkscape:connector-curvature="0" /><path d="m219.767 49.771c-.018.0-.036-.003-.054-.008-.11-.035-.169-.169-.129-.295.033-.109.124-.181.218-.181.018.0.037.003.054.008.112.035.171.166.131.295-.033.108-.125.181-.22.181z" style="fill:url(#_Linear31)" id="path84" inkscape:connector-curvature="0" /><path d="m217.33 58.149c-.018.0-.036-.003-.054-.008-.111-.036-.169-.168-.13-.297.034-.109.126-.181.221-.181.017.0.035.003.052.008.112.035.17.168.13.295-.033.11-.125.183-.219.183z" style="fill:url(#_Linear32)" id="path86" inkscape:connector-curvature="0" /><path d="m217.57 59.81c-.018.0-.036-.002-.054-.007-.111-.034-.169-.167-.129-.296.033-.108.125-.18.219-.18.018.0.036.003.054.008.111.034.17.165.129.294-.033.11-.125.181-.219.181z" style="fill:url(#_Linear33)" id="path88" inkscape:connector-curvature="0" /><path d="m213.899 36.691c-.018.0-.037-.003-.055-.008-.112-.033-.17-.166-.13-.296.033-.107.125-.179.219-.179.018.0.036.002.054.008.112.033.171.166.129.296-.033.108-.123.179-.217.179z" style="fill:url(#_Linear34)" id="path90" inkscape:connector-curvature="0" /></g><g id="g92" transform="translate(6.7332458,539.99951)"><path d="m137.501 68.135.002-.004c.063-.098 1.371-2.134 3.506-5.125 3.2-4.485 8.277-11.122 13.745-16.546 2.73-2.711 5.56-5.114 8.23-6.785 1.334-.837 2.625-1.49 3.824-1.922 1.201-.434 2.302-.645 3.277-.644.769.001 1.461.125 2.124.382.498.194.982.465 1.469.843.729.565 1.467 1.379 2.181 2.531.713 1.149 1.396 2.634 2.003 4.491l2.197-.719-2.217.654 1.26-.372-1.263.365.003.007 1.26-.372-1.263.365.005.016c.053.184.491 1.872.489 4.107.0 1.446-.181 3.114-.727 4.768-.409 1.243-1.018 2.479-1.918 3.652-.676.879-1.517 1.726-2.583 2.515-1.599 1.181-3.713 2.235-6.541 3.002-2.827.766-6.367 1.237-10.762 1.237-.19.0-.382-.001-.576-.003l-.041 4.624c.207.002.412.003.617.003 5.598-.001 10.101-.707 13.74-1.934 2.727-.921 4.967-2.139 6.771-3.562 2.713-2.131 4.413-4.717 5.385-7.247.978-2.533 1.258-5.003 1.259-7.055-.003-3.108-.641-5.282-.68-5.424l-.01-.033-.01-.032c-.621-1.897-1.336-3.544-2.155-4.966-.615-1.066-1.289-2.006-2.027-2.819-1.106-1.219-2.366-2.151-3.731-2.76-1.363-.611-2.817-.89-4.259-.888-1.098.0-2.192.156-3.272.432-2.026.519-4.01 1.449-5.967 2.643-3.42 2.093-6.773 5.01-9.938 8.209-4.742 4.799-9.044 10.246-12.182 14.508-3.137 4.262-5.101 7.337-5.122 7.368l3.897 2.49z" style="fill:#914a3f;fill-rule:nonzero" id="path94" inkscape:connector-curvature="0" /><path d="m180.563 65.645c-.016-.025-1.318-2.061-3.488-5.11-3.258-4.575-8.456-11.424-14.269-17.221-2.911-2.899-5.972-5.541-9.094-7.511-1.562-.985-3.142-1.803-4.746-2.386-1.602-.582-3.236-.931-4.884-.932-1.282-.001-2.572.217-3.802.697-.921.358-1.805.861-2.627 1.499-1.234.958-2.325 2.214-3.275 3.748-.952 1.537-1.769 3.355-2.468 5.489l-.01.032-.01.033c-.039.142-.677 2.316-.68 5.424.001 1.824.223 3.977.958 6.214.551 1.676 1.396 3.398 2.644 5.022.934 1.218 2.093 2.377 3.502 3.417 2.113 1.563 4.779 2.854 8.081 3.747 3.304.894 7.246 1.398 11.97 1.398.205.0.411-.001.617-.003l-.04-4.624c-.195.002-.387.003-.577.003-5.21.0-9.215-.662-12.261-1.691-2.286-.773-4.033-1.746-5.389-2.813-2.028-1.604-3.209-3.422-3.933-5.281-.719-1.856-.948-3.762-.947-5.389-.001-1.23.129-2.295.258-3.034.064-.37.127-.658.172-.845.022-.093.04-.161.051-.202l.011-.039.001-.003-1.26-.364 1.257.371.003-.007-1.26-.364 1.257.371-2.217-.654 2.197.719c.54-1.65 1.139-3.007 1.767-4.095.47-.817.956-1.483 1.443-2.018.732-.804 1.457-1.317 2.195-1.648.739-.329 1.507-.485 2.372-.486.656.0 1.367.094 2.128.288 1.427.363 3.028 1.085 4.7 2.109 2.931 1.787 6.067 4.481 9.061 7.513 4.497 4.549 8.695 9.851 11.746 13.999 1.527 2.075 2.769 3.862 3.627 5.126.429.632.762 1.134.987 1.475.112.171.197.302.253.389.028.044.049.076.063.098l.015.023.004.006 3.897-2.49z" style="fill:#914a3f;fill-rule:nonzero" id="path96" inkscape:connector-curvature="0" /><path d="m143.959 34.794c0 .324-.262.585-.585.585h-1.025c-.323.0-.585-.261-.585-.585.0-.323.262-.585.585-.585h1.025c.323.0.585.262.585.585z" style="fill:#eae0c2;fill-rule:nonzero" id="path98" inkscape:connector-curvature="0" /><path d="m146.289 33.617c.304-.111.641.045.752.349l.352.961c.111.304-.044.64-.348.752-.304.111-.64-.045-.751-.348l-.353-.963c-.111-.303.045-.64.348-.751z" style="fill:#eae0c2;fill-rule:nonzero" id="path100" inkscape:connector-curvature="0" /><path d="m160.073 37.594c.303-.112.64.044.751.348l.352.962c.111.303-.044.639-.348.751-.303.111-.64-.045-.751-.348l-.353-.962c-.111-.304.045-.641.349-.751z" style="fill:#eae0c2;fill-rule:nonzero" id="path102" inkscape:connector-curvature="0" /><path d="m164.146 47.522c.304-.111.641.045.752.349l.352.961c.111.304-.045.641-.348.752-.304.111-.64-.045-.752-.349l-.352-.962c-.111-.304.045-.64.348-.751z" style="fill:#eae0c2;fill-rule:nonzero" id="path104" inkscape:connector-curvature="0" /><path d="m169.634 63.494c.252.203.292.572.089.824l-.643.797c-.202.253-.571.292-.823.089-.252-.202-.292-.571-.089-.824l.643-.797c.203-.252.572-.291.823-.089z" style="fill:#eae0c2;fill-rule:nonzero" id="path106" inkscape:connector-curvature="0" /><path d="m157.639 66.051c.304-.111.64.045.752.348l.352.962c.111.304-.045.639-.349.751-.303.111-.64-.044-.751-.348l-.352-.962c-.111-.304.045-.64.348-.751z" style="fill:#eae0c2;fill-rule:nonzero" id="path108" inkscape:connector-curvature="0" /><path d="m171.454 55.293c-.067.315-.378.519-.694.452l-1.003-.211c-.316-.067-.519-.378-.452-.694.067-.317.377-.519.694-.453l1.002.212c.317.067.519.377.453.694z" style="fill:#eae0c2;fill-rule:nonzero" id="path110" inkscape:connector-curvature="0" /><path d="m163.818 66.514c-.067.317-.378.519-.694.453l-1.003-.212c-.316-.067-.518-.377-.452-.694.067-.316.378-.519.694-.452l1.002.211c.317.067.519.378.453.694z" style="fill:#eae0c2;fill-rule:nonzero" id="path112" inkscape:connector-curvature="0" /><path d="m167.586 50.742c.304-.111.64.044.751.349l.353.961c.111.305-.045.64-.349.752-.303.111-.64-.045-.751-.349l-.352-.962c-.111-.303.044-.64.348-.751z" style="fill:#eae0c2;fill-rule:nonzero" id="path114" inkscape:connector-curvature="0" /><path d="m174.54 58.578c.266.183.333.548.149.814l-.581.843c-.184.267-.548.334-.814.15-.267-.183-.334-.548-.15-.814l.581-.843c.184-.266.548-.334.815-.15z" style="fill:#eae0c2;fill-rule:nonzero" id="path116" inkscape:connector-curvature="0" /><path d="m152.478 45.99c.201.253.16.622-.093.823l-.802.638c-.252.201-.62.16-.822-.093-.202-.252-.16-.621.093-.823l.801-.638c.253-.201.622-.159.823.093z" style="fill:#eae0c2;fill-rule:nonzero" id="path118" inkscape:connector-curvature="0" /><path d="m135.824 38.325c.304-.111.64.045.752.349l.352.962c.11.303-.045.64-.348.751-.304.111-.64-.045-.752-.349l-.352-.961c-.111-.305.045-.64.348-.752z" style="fill:#eae0c2;fill-rule:nonzero" id="path120" inkscape:connector-curvature="0" /><path d="m134.507 51.791c.304-.111.639.045.751.349l.352.962c.111.303-.044.639-.348.751-.304.111-.64-.045-.751-.348l-.352-.963c-.111-.303.044-.64.348-.751z" style="fill:#eae0c2;fill-rule:nonzero" id="path122" inkscape:connector-curvature="0" /><path d="m139.145 38.046c-.304-.111-.461-.446-.351-.751l.351-.962c.11-.304.446-.461.75-.35.304.11.461.446.35.75l-.35.963c-.111.304-.446.461-.75.35z" style="fill:#eae0c2;fill-rule:nonzero" id="path124" inkscape:connector-curvature="0" /><path d="m144.316 54.048c-.304-.11-.461-.446-.35-.75l.35-.963c.111-.303.446-.46.75-.35.304.111.461.447.35.751l-.35.962c-.11.304-.446.461-.75.35z" style="fill:#eae0c2;fill-rule:nonzero" id="path126" inkscape:connector-curvature="0" /><path d="m136.74 66.355c-.308-.1-.476-.43-.375-.738l.318-.974c.099-.307.43-.475.738-.375.307.101.475.431.375.739l-.318.974c-.101.307-.431.475-.738.374z" style="fill:#eae0c2;fill-rule:nonzero" id="path128" inkscape:connector-curvature="0" /><path d="m140.362 57.957c.126-.297.469-.437.768-.311l.943.398c.298.125.438.469.312.767-.126.298-.469.438-.767.312l-.944-.399c-.298-.126-.437-.469-.312-.767z" style="fill:#eae0c2;fill-rule:nonzero" id="path130" inkscape:connector-curvature="0" /><path d="m133.514 48.819c-.315.07-.628-.128-.699-.443l-.224-1c-.07-.316.128-.629.443-.7.316-.07.629.128.7.444l.223.999c.071.316-.127.629-.443.7z" style="fill:#eae0c2;fill-rule:nonzero" id="path132" inkscape:connector-curvature="0" /><path d="m135.662 59.065c-.316.07-.629-.128-.7-.444l-.224-.999c-.071-.316.128-.629.443-.7.316-.07.629.128.699.444l.225.999c.07.316-.128.629-.443.7z" style="fill:#eae0c2;fill-rule:nonzero" id="path134" inkscape:connector-curvature="0" /><path d="m134.933 44.582c-.303-.11-.46-.447-.35-.75l.35-.963c.111-.304.446-.461.751-.35.303.11.46.446.35.75l-.35.963c-.111.304-.447.46-.751.35z" style="fill:#eae0c2;fill-rule:nonzero" id="path136" inkscape:connector-curvature="0" /><path d="m151.383 38.056c-.27.177-.633.101-.811-.168l-.562-.857c-.178-.27-.102-.633.168-.811.27-.177.633-.102.811.168l.562.857c.178.27.102.633-.168.811z" style="fill:#eae0c2;fill-rule:nonzero" id="path138" inkscape:connector-curvature="0" /><path d="m155.555 39.69c-.27.177-.634.102-.811-.168l-.563-.856c-.177-.271-.102-.633.168-.811.27-.178.633-.102.811.168l.562.856c.178.27.103.633-.167.811z" style="fill:#eae0c2;fill-rule:nonzero" id="path140" inkscape:connector-curvature="0" /><path d="m171.359 35.387c-.188.263-.554.323-.817.134l-.833-.597c-.263-.188-.322-.554-.134-.817.188-.262.554-.323.817-.134l.833.597c.262.189.322.554.134.817z" style="fill:#eae0c2;fill-rule:nonzero" id="path142" inkscape:connector-curvature="0" /><path d="m165.243 34.898c.308.1.477.431.377.738l-.316.974c-.1.308-.43.476-.738.377-.307-.1-.476-.43-.376-.738l.316-.974c.1-.308.43-.476.737-.377z" style="fill:#eae0c2;fill-rule:nonzero" id="path144" inkscape:connector-curvature="0" /><path d="m180.514 51.319c-.283.157-.639.056-.797-.227l-.497-.896c-.157-.282-.055-.639.227-.795.283-.158.64-.056.796.227l.498.895c.157.283.055.639-.227.796z" style="fill:#eae0c2;fill-rule:nonzero" id="path146" inkscape:connector-curvature="0" /><path d="m178.841 40.629c.307.1.476.43.376.738l-.316.974c-.099.308-.43.476-.738.377-.307-.1-.476-.43-.376-.738l.317-.974c.099-.308.429-.476.737-.377z" style="fill:#eae0c2;fill-rule:nonzero" id="path148" inkscape:connector-curvature="0" /><path d="m175.788 35.604c.315-.072.629.127.7.443l.224.999c.072.316-.127.629-.442.699-.316.071-.629-.127-.7-.442l-.225-1c-.07-.315.127-.628.443-.699z" style="fill:#eae0c2;fill-rule:nonzero" id="path150" inkscape:connector-curvature="0" /><path d="m180.252 44.532c.316-.071.629.128.7.443l.225.999c.071.316-.127.629-.443.7-.315.071-.629-.127-.7-.443l-.225-.999c-.07-.316.128-.629.443-.7z" style="fill:#eae0c2;fill-rule:nonzero" id="path152" inkscape:connector-curvature="0" /><path d="m180.526 56.003c.011.324-.242.595-.565.606l-1.024.036c-.323.011-.594-.242-.605-.566-.011-.322.242-.594.565-.604l1.024-.036c.323-.011.594.242.605.564z" style="fill:#eae0c2;fill-rule:nonzero" id="path154" inkscape:connector-curvature="0" /><path d="m178.184 63.907c.012.324-.242.595-.565.606l-1.024.035c-.323.011-.594-.241-.605-.565-.011-.323.242-.594.565-.605l1.024-.035c.323-.011.594.241.605.564z" style="fill:#eae0c2;fill-rule:nonzero" id="path156" inkscape:connector-curvature="0" /><path d="m155.003 44.077c-.298-.124-.44-.467-.316-.765l.394-.946c.124-.299.467-.44.765-.316.299.124.441.467.316.766l-.394.946c-.123.298-.466.44-.765.315z" style="fill:#eae0c2;fill-rule:nonzero" id="path158" inkscape:connector-curvature="0" /><path d="m148.075 51.835c-.298-.124-.44-.467-.316-.766l.394-.946c.124-.298.467-.439.765-.315.299.124.44.467.316.765l-.394.947c-.124.298-.466.439-.765.315z" style="fill:#eae0c2;fill-rule:nonzero" id="path160" inkscape:connector-curvature="0" /><path d="m153.15 67.155c-.299-.125-.441-.467-.316-.766l.393-.946c.124-.298.467-.44.766-.315.298.124.439.467.315.765l-.393.946c-.124.298-.467.439-.765.316z" style="fill:#eae0c2;fill-rule:nonzero" id="path162" inkscape:connector-curvature="0" /><path d="m149.433 67.325c-.32.046-.617-.176-.663-.496l-.145-1.014c-.046-.32.177-.617.497-.662.32-.047.616.175.662.496l.145 1.014c.046.32-.176.617-.496.662z" style="fill:#eae0c2;fill-rule:nonzero" id="path164" inkscape:connector-curvature="0" /><path d="m143.721 64.509c.066-.317.377-.52.693-.454l1.003.208c.317.066.52.376.454.692-.065.317-.375.521-.692.455l-1.003-.209c-.317-.066-.52-.376-.455-.692z" style="fill:#eae0c2;fill-rule:nonzero" id="path166" inkscape:connector-curvature="0" /><path d="m139.738 62.663c-.299-.125-.44-.468-.316-.766l.394-.946c.124-.299.466-.44.765-.316.298.124.44.467.316.766l-.394.945c-.124.299-.467.441-.765.317z" style="fill:#eae0c2;fill-rule:nonzero" id="path168" inkscape:connector-curvature="0" /><path d="m160.31 44.501c.152-.285.507-.395.792-.243l.905.481c.286.151.394.505.243.791-.152.286-.506.394-.792.243l-.905-.48c-.285-.152-.394-.506-.243-.792z" style="fill:#eae0c2;fill-rule:nonzero" id="path170" inkscape:connector-curvature="0" /></g><g id="g172" transform="translate(0,540)"><path d="M74.616 70.269C72.953 52.975 60.632 46.324 60.632 46.324l-5.607-.323v-.01l-.119.005-.118-.005v.01l-6.193.323c0 0-11.736 6.651-13.399 23.945.0.0 3.532 4.061 19.592 5.084v.016c.041-.002.078-.005.118-.008.041.003.078.006.119.008v-.016C71.086 74.33 74.616 70.269 74.616 70.269z" style="fill:#f9a436;fill-rule:nonzero" id="path174" inkscape:connector-curvature="0" /><path d="M68.257 63.563C67.108 50.587 59.806 45.597 59.806 45.597l-5.088-.242v-.008l-.082.004-.081-.004v.008l-5.088.242c0 0-7.303 4.99-8.451 17.966.0.0 2.441 3.047 13.539 3.814v.013c.027-.002.054-.004.081-.007.028.003.055.005.082.007v-.013C65.817 66.61 68.257 63.563 68.257 63.563z" style="fill:#ebeae9;fill-rule:nonzero" id="path176" inkscape:connector-curvature="0" /><clipPath id="_clip35"><path d="M74.616 70.378C72.953 53.45 61.649 46.94 61.649 46.94l-6.624-.315v-.011l-.119.005-.118-.005v.011l-7.119.315c0 0-10.81 6.51-12.473 23.438.0.0 3.532 3.974 19.592 4.975v.016c.041-.002.078-.005.118-.008.041.003.078.006.119.008v-.016c16.061-1.001 19.591-4.975 19.591-4.975z" id="path179" inkscape:connector-curvature="0" /></clipPath><g clip-path="url(#_clip35)" id="g181"><path d="m78.77 66.925c-15.789 7.639-31.939 7.641-47.727.0.118-.263.178-.394.296-.656 15.593 7.544 31.541 7.544 47.134.0.119.262.178.393.297.656z" style="fill:#161a1e;fill-rule:nonzero" id="path183" inkscape:connector-curvature="0" /></g><g id="g185"><clipPath id="_clip36"><path d="M54.515999 45.951h20.468v33.129002H54.515999z" id="rect188" /></clipPath><g clip-path="url(#_clip36)" id="g190"><path d="m55.025 75.369c-.041-.002-.078-.005-.119-.008-.04.003-.077.006-.118.008v-.016c-.092-.006-.182-.012-.272-.018v-2.682c.13.001.259.002.389.002 6.525.0 13.052-1.276 19.528-3.827-.033-.247-.07-.492-.108-.734-6.44 2.556-12.929 3.833-19.419 3.833-.13.0-.26-.001-.39-.001v-4.551c.013.001.026.001.039.002v.013c.027-.002.054-.004.081-.007.028.003.055.005.082.007v-.013C65.817 66.61 68.257 63.563 68.257 63.563 67.37 53.548 62.818 48.29 60.787 46.412c1.425.836 12.276 7.704 13.829 23.857.0.0-3.53 4.061-19.591 5.084v.016z" style="fill:#f7942e;fill-rule:nonzero" id="path192" inkscape:connector-curvature="0" /><path d="m54.718 67.39c-.027-.002-.054-.004-.082-.007-.027.003-.054.005-.081.007v-.013c-.013-.001-.026-.001-.039-.002v-20.248h6.12v-.801c.014.008.066.036.151.086 2.031 1.878 6.583 7.136 7.47 17.151.0.0-2.44 3.047-13.539 3.814v.013z" style="fill:#e9cfac;fill-rule:nonzero" id="path194" inkscape:connector-curvature="0" /><path d="m54.905 72.655c-.13.0-.259-.001-.389-.002v-.727c.13.0.26.001.39.001 6.49.0 12.979-1.277 19.419-3.833.038.242.075.487.108.734-6.476 2.551-13.003 3.827-19.528 3.827z" style="fill:#171513;fill-rule:nonzero" id="path196" inkscape:connector-curvature="0" /></g></g><path d="m60.256 32.618V26.32h-.814v5.868c-.421-.161-.877-.253-1.355-.253-1.551.0-2.883.931-3.473 2.263-.59-1.332-1.922-2.263-3.472-2.263-.75.0-1.447.22-2.036.595v-6.21h-.813v6.907c-.589.669-.949 1.544-.949 2.506.0 1.115.483 2.114 1.247 2.809v8.585h12.045v-8.585c.766-.694 1.249-1.694 1.249-2.809.0-1.29-.645-2.429-1.629-3.115z" style="fill:#be202e;fill-rule:nonzero" id="path198" inkscape:connector-curvature="0" /><path d="m56.344 37.609c0 .161-.13.292-.291.292h-2.509c-.161.0-.292-.131-.292-.292.0-.161.131-.292.292-.292h2.509c.161.0.291.131.291.292z" style="fill:#161a1e;fill-rule:nonzero" id="path200" inkscape:connector-curvature="0" /><path d="m56.344 39.418c0 .161-.13.291-.291.291h-2.509c-.161.0-.292-.13-.292-.291.0-.162.131-.292.292-.292h2.509c.161.0.291.13.291.292z" style="fill:#161a1e;fill-rule:nonzero" id="path202" inkscape:connector-curvature="0" /><path d="m56.344 41.226c0 .161-.13.292-.291.292h-2.509c-.161.0-.292-.131-.292-.292.0-.161.131-.292.292-.292h2.509c.161.0.291.131.291.292z" style="fill:#161a1e;fill-rule:nonzero" id="path204" inkscape:connector-curvature="0" /><path d="m56.344 43.035c0 .161-.13.291-.291.291h-2.509c-.161.0-.292-.13-.292-.291.0-.161.131-.292.292-.292h2.509c.161.0.291.131.291.292z" style="fill:#161a1e;fill-rule:nonzero" id="path206" inkscape:connector-curvature="0" /><path d="m56.344 44.843c0 .161-.13.292-.291.292h-2.509c-.161.0-.292-.131-.292-.292.0-.161.131-.292.292-.292h2.509c.161.0.291.131.291.292z" style="fill:#161a1e;fill-rule:nonzero" id="path208" inkscape:connector-curvature="0" /><g id="g210"><clipPath id="_clip37"><path d="m60.256 32.618V26.32h-.814v5.868c-.421-.161-.877-.253-1.355-.253-1.551.0-2.883.931-3.473 2.263-.59-1.332-1.922-2.263-3.472-2.263-.75.0-1.447.22-2.036.595v-6.21h-.813v6.907c-.589.669-.949 1.544-.949 2.506.0 1.115.483 2.114 1.247 2.809v8.585h12.045v-8.585c.766-.694 1.249-1.694 1.249-2.809.0-1.29-.645-2.429-1.629-3.115z" id="path213" inkscape:connector-curvature="0" /></clipPath><g clip-path="url(#_clip37)" id="g215"><path d="m60.636 47.127h-6.12v-1.992h1.537c.161.0.291-.131.291-.292.0-.161-.13-.292-.291-.292h-1.537v-1.225h1.537c.161.0.291-.13.291-.291.0-.161-.13-.292-.291-.292h-1.537v-1.225h1.537c.161.0.291-.131.291-.292.0-.161-.13-.292-.291-.292h-1.537v-1.225h1.537c.161.0.291-.13.291-.291.0-.162-.13-.292-.291-.292h-1.537v-1.225h1.537c.161.0.291-.131.291-.292.0-.161-.13-.292-.291-.292h-1.537v-3.322c.035.066.067.134.098.203.59-1.332 1.922-2.263 3.473-2.263.478.0.934.092 1.355.253v-5.868h.814v6.298c.984.686 1.629 1.825 1.629 3.115.0 1.115-.483 2.115-1.249 2.809v8.585z" style="fill:#ad1e26;fill-rule:nonzero" id="path217" inkscape:connector-curvature="0" /><path d="m56.053 37.901h-1.537v-.584h1.537c.161.0.291.131.291.292.0.161-.13.292-.291.292z" style="fill:#140f14;fill-rule:nonzero" id="path219" inkscape:connector-curvature="0" /><path d="m56.053 39.709h-1.537v-.583h1.537c.161.0.291.13.291.292.0.161-.13.291-.291.291z" style="fill:#140f14;fill-rule:nonzero" id="path221" inkscape:connector-curvature="0" /><path d="m56.053 41.518h-1.537v-.584h1.537c.161.0.291.131.291.292.0.161-.13.292-.291.292z" style="fill:#140f14;fill-rule:nonzero" id="path223" inkscape:connector-curvature="0" /><path d="m56.053 43.326h-1.537v-.583h1.537c.161.0.291.131.291.292.0.161-.13.291-.291.291z" style="fill:#140f14;fill-rule:nonzero" id="path225" inkscape:connector-curvature="0" /><path d="m56.053 45.135h-1.537v-.584h1.537c.161.0.291.131.291.292.0.161-.13.292-.291.292z" style="fill:#140f14;fill-rule:nonzero" id="path227" inkscape:connector-curvature="0" /></g></g></g><g id="g229" transform="translate(5.6023712,539.99979)"><path d="m115.157 46.122-11.398.122-11.398-.122-4.305 25.455c0 0 7.598 4.939 14.437.507v-13.17c0 0 .578-.405 1.266-.432.688.027 1.266.432 1.266.432v13.17c6.839 4.432 14.437-.507 14.437-.507l-4.305-25.455z" style="fill:#7aaa63;fill-rule:nonzero" id="path231" inkscape:connector-curvature="0" /><path d="m110.282 27.759v5.945c-1.444-.737-3.826-1.219-6.523-1.219-2.697.0-5.079.482-6.523 1.219v-5.945h-1.772v23.112h1.772v-13.866c1.444.737 3.826 1.219 6.523 1.219 2.697.0 5.079-.482 6.523-1.219v13.866h1.772v-23.112h-1.772z" style="fill:#8c6b52;fill-rule:nonzero" id="path233" inkscape:connector-curvature="0" /><path d="m97.047 35.104c0 .35-.284.633-.634.633-.349.0-.632-.283-.632-.633.0-.35.283-.633.632-.633.35.0.634.283.634.633z" style="fill:#fff;fill-rule:nonzero" id="path235" inkscape:connector-curvature="0" /><path d="m111.77 35.104c0 .35-.284.633-.633.633-.35.0-.633-.283-.633-.633.0-.35.283-.633.633-.633.349.0.633.283.633.633z" style="fill:#fff;fill-rule:nonzero" id="path237" inkscape:connector-curvature="0" /><path d="m97.047 49.636c0 .35-.284.633-.634.633-.349.0-.632-.283-.632-.633.0-.349.283-.633.632-.633.35.0.634.284.634.633z" style="fill:#fff;fill-rule:nonzero" id="path239" inkscape:connector-curvature="0" /><path d="m111.77 49.636c0 .35-.284.633-.633.633-.35.0-.633-.283-.633-.633.0-.349.283-.633.633-.633.349.0.633.284.633.633z" style="fill:#fff;fill-rule:nonzero" id="path241" inkscape:connector-curvature="0" /><g id="g243"><clipPath id="_clip38"><path d="m115.157 46.122-11.398.122-11.398-.122-4.305 25.455c0 0 7.598 4.939 14.437.507v-13.17c0 0 .578-.405 1.266-.432.688.027 1.266.432 1.266.432v13.17c6.839 4.432 14.437-.507 14.437-.507l-4.305-25.455z" id="path246" inkscape:connector-curvature="0" /></clipPath><g clip-path="url(#_clip38)" id="g248"><path d="m111.349 73.931c-2.015.0-4.206-.474-6.324-1.847v-13.17c0 0-.578-.405-1.266-.432-.057.003-.113.007-.169.014v-12.254l.169.002 6.523-.07v4.697h1.772v-4.716l3.103-.033 4.305 25.455c0 0-3.62 2.354-8.113 2.354z" style="fill:#699850;fill-rule:nonzero" id="path250" inkscape:connector-curvature="0" /><path d="m103.324 71.153c-6.305 1.309-11.064.883-17.037-1.524.193-.382.289-.573.481-.955 5.014 2.517 10.872 3.041 16.253 1.454.121.411.182.615.303 1.025z" style="fill:#161a1e;fill-rule:nonzero" id="path252" inkscape:connector-curvature="0" /><path d="m121.491 69.769c-6.011 2.308-10.776 2.656-17.059 1.243.128-.408.192-.611.32-1.02 5.354 1.675 11.22 1.248 16.274-1.186.186.385.279.578.465.963z" style="fill:#161a1e;fill-rule:nonzero" id="path254" inkscape:connector-curvature="0" /></g></g><g id="g256"><clipPath id="_clip39"><path d="m110.282 27.759v5.945c-1.444-.737-3.826-1.219-6.523-1.219-2.697.0-5.079.482-6.523 1.219v-5.945h-1.772v23.112h1.772v-13.866c1.444.737 3.826 1.219 6.523 1.219 2.697.0 5.079-.482 6.523-1.219v13.866h1.772v-23.112h-1.772z" id="path259" inkscape:connector-curvature="0" /></clipPath><g clip-path="url(#_clip39)" id="g261"><path d="m110.282 46.174v-9.169c-1.444.737-3.826 1.219-6.523 1.219-.019.0-.038.0-.057.0v-5.739c.019.0.038.0.057.0 2.697.0 5.079.482 6.523 1.219v-5.945h1.772v18.396l-1.772.019zm.855-11.703c-.35.0-.633.283-.633.633.0.35.283.633.633.633.349.0.633-.283.633-.633.0-.35-.284-.633-.633-.633z" style="fill:#795942;fill-rule:nonzero" id="path263" inkscape:connector-curvature="0" /><path d="m111.137 35.737c-.35.0-.633-.283-.633-.633.0-.35.283-.633.633-.633.349.0.633.283.633.633.0.35-.284.633-.633.633z" style="fill:#d9cdc4;fill-rule:nonzero" id="path265" inkscape:connector-curvature="0" /><path d="m112.054 50.871h-1.772v-4.697l1.772-.019v4.716zm-.917-1.868c-.35.0-.633.284-.633.633.0.35.283.633.633.633.349.0.633-.283.633-.633.0-.349-.284-.633-.633-.633z" style="fill:#654e34;fill-rule:nonzero" id="path267" inkscape:connector-curvature="0" /><path d="m111.137 50.269c-.35.0-.633-.283-.633-.633.0-.349.283-.633.633-.633.349.0.633.284.633.633.0.35-.284.633-.633.633z" style="fill:#b2b69e;fill-rule:nonzero" id="path269" inkscape:connector-curvature="0" /></g></g></g><path id="path3" d="m298.273 590.209-2.175-1.346c-.018-.212-.039-.423-.062-.633l1.869-1.743c.19-.178.275-.44.224-.694-.05-.255-.229-.464-.472-.555l-2.389-.893c-.06-.207-.123-.413-.187-.617l1.49-2.07c.152-.21.183-.484.084-.724-.099-.239-.315-.41-.571-.452l-2.519-.41c-.098-.191-.2-.379-.303-.566l1.059-2.323c.108-.237.086-.512-.059-.727-.144-.215-.388-.342-.648-.332l-2.557.089c-.132-.165-.266-.329-.403-.49l.587-2.49c.059-.253-.015-.518-.199-.701-.183-.183-.448-.259-.701-.2l-2.49.587c-.161-.136-.325-.271-.491-.403l.09-2.557c.01-.259-.117-.505-.332-.648-.217-.145-.49-.167-.726-.059l-2.324 1.059c-.187-.103-.375-.205-.565-.304l-.411-2.519c-.042-.256-.213-.472-.452-.571-.239-.1-.514-.068-.724.084l-2.071 1.49c-.204-.065-.409-.127-.616-.187l-.893-2.389c-.091-.244-.3-.422-.555-.473-.255-.05-.516.035-.693.224l-1.743 1.87c-.21-.023-.422-.044-.634-.062l-1.346-2.175c-.136-.22-.377-.354-.636-.354-.26.0-.501.134-.636.354l-1.346 2.175c-.212.018-.424.039-.634.062l-1.744-1.87c-.176-.189-.439-.274-.693-.224-.255.051-.464.229-.555.473l-.893 2.389c-.207.06-.412.123-.616.187l-2.071-1.49c-.21-.152-.485-.184-.724-.084-.239.099-.411.315-.452.571l-.411 2.519c-.19.099-.378.2-.566.304l-2.323-1.059c-.236-.108-.511-.086-.726.059-.216.143-.342.389-.332.648l.089 2.557c-.165.132-.329.267-.491.403l-2.49-.587c-.253-.059-.518.017-.701.2-.184.183-.259.448-.2.701l.587 2.49c-.136.162-.271.325-.403.49l-2.557-.089c-.257-.007-.504.117-.648.332-.144.215-.166.49-.059.727l1.059 2.323c-.103.187-.205.375-.303.566l-2.519.41c-.256.042-.472.213-.571.452-.099.24-.067.514.084.724l1.49 2.07c-.065.204-.128.41-.187.617l-2.389.893c-.243.091-.422.3-.472.555-.051.255.034.516.224.694l1.869 1.743c-.023.21-.044.422-.062.633l-2.175 1.346c-.22.136-.354.377-.354.637.0.26.134.5.354.636l2.175 1.346c.018.212.039.423.062.633l-1.869 1.744c-.19.176-.275.439-.224.693.05.255.229.464.472.555l2.389.893c.059.207.122.412.187.617l-1.49 2.07c-.152.211-.184.485-.084.724.099.24.316.411.571.452l2.519.41c.098.191.199.379.303.566l-1.059 2.323c-.108.236-.085.511.059.726.145.217.391.343.648.333l2.556-.09c.133.166.267.329.404.491l-.587 2.491c-.059.252.016.516.2.7.183.184.448.258.701.199l2.49-.587c.162.138.326.271.491.403l-.089 2.557c-.01.259.116.504.332.649.215.144.49.166.726.058l2.323-1.059c.187.104.375.205.566.304l.411 2.518c.041.256.212.473.452.571.239.1.514.068.724-.083l2.07-1.492c.204.065.409.129.616.188l.894 2.388c.09.243.3.423.555.472.254.052.516-.034.693-.224l1.743-1.869c.211.024.422.045.634.063l1.346 2.175c.136.219.377.354.636.354.26.0.501-.134.637-.354l1.346-2.175c.212-.018.423-.039.633-.063l1.743 1.869c.177.19.439.276.693.224.255-.05.465-.229.556-.472l.893-2.388c.207-.059.412-.123.616-.188l2.071 1.492c.21.151.484.183.723.083.24-.098.411-.316.453-.571l.41-2.518c.19-.099.378-.201.566-.304l2.323 1.059c.236.108.511.086.726-.058.216-.145.342-.39.332-.649l-.089-2.557c.165-.132.329-.265.491-.403l2.489.587c.253.059.519-.015.701-.199.184-.184.259-.448.2-.7l-.587-2.491c.137-.162.271-.325.403-.491l2.557.09c.258.01.504-.116.648-.333.144-.215.167-.49.058-.726l-1.058-2.323c.103-.187.205-.375.303-.566l2.519-.41c.256-.041.472-.212.571-.452.099-.239.068-.513-.084-.724l-1.49-2.07c.064-.205.127-.41.187-.617l2.389-.893c.243-.091.422-.3.471-.555.052-.255-.033-.517-.224-.693l-1.868-1.744c.022-.21.043-.422.062-.633l2.174-1.346c.22-.136.355-.377.355-.636.0-.26-.134-.501-.354-.637v0zm-14.555 18.04c-.83-.179-1.358-.998-1.18-1.831.177-.832.995-1.361 1.825-1.182.831.178 1.36.998 1.182 1.829-.178.832-.997 1.362-1.827 1.184zm-.739-4.998c-.757-.162-1.503.32-1.665 1.079l-.772 3.603c-2.383 1.082-5.028 1.682-7.815 1.682-2.85.0-5.553-.63-7.978-1.758l-.772-3.602c-.162-.759-.907-1.242-1.664-1.079l-3.181.683c-.591-.608-1.14-1.255-1.645-1.938h15.477c.175.0.292-.032.292-.191v-5.475c0-.159-.117-.191-.292-.191h-4.527v-3.47h4.896c.447.0 2.389.127 3.011 2.61.194.764.621 3.248.913 4.043.291.892 1.476 2.674 2.738 2.674h7.712c.088.0.182-.01.28-.028-.535.727-1.122 1.415-1.754 2.058l-3.254-.7v0zm-21.405 4.923c-.831.179-1.648-.351-1.827-1.183-.178-.833.35-1.651 1.181-1.83.83-.178 1.648.352 1.827 1.184.177.831-.351 1.651-1.181 1.829zm-5.871-23.808c.344.778-.006 1.689-.783 2.033-.776.345-1.685-.006-2.029-.784-.345-.778.006-1.688.782-2.032.777-.345 1.685.005 2.03.783zm-1.805 4.278 3.314-1.472c.707-.315 1.027-1.144.713-1.853l-.683-1.543h2.684v12.097h-5.415c-.469-1.651-.721-3.394-.721-5.195.0-.687.037-1.367.108-2.034v0zm14.54-1.175v-3.566h6.392c.33.0 2.331.382 2.331 1.878.0 1.242-1.535 1.687-2.797 1.687h-5.926v.001zm23.227 3.209c0 .474-.017.942-.052 1.406h-1.943c-.194.0-.272.128-.272.319v.892c0 2.1-1.185 2.557-2.223 2.673-.988.112-2.084-.413-2.219-1.018-.583-3.279-1.554-3.98-3.088-5.19 1.904-1.209 3.885-2.992 3.885-5.38.0-2.578-1.768-4.201-2.972-4.998-1.69-1.114-3.562-1.337-4.066-1.337h-20.095c2.725-3.041 6.418-5.195 10.595-5.979l2.369 2.485c.535.56 1.422.581 1.982.045l2.65-2.535c5.554 1.034 10.255 4.491 12.965 9.234l-1.814 4.097c-.314.71.006 1.539.713 1.853l3.493 1.552c.061.62.092 1.246.092 1.881v0zm-20.08-20.726c.613-.588 1.587-.565 2.174.05.587.616.564 1.591-.051 2.178-.613.588-1.587.565-2.174-.051-.586-.615-.564-1.589.051-2.177v0zm18.004 14.489c.344-.777 1.253-1.128 2.029-.783.777.344 1.127 1.255.783 2.032-.344.778-1.253 1.129-2.03.784-.775-.344-1.126-1.254-.782-2.033v0z" style="fill-rule:nonzero" inkscape:connector-curvature="0" /></g></g><defs id="defs272"><linearGradient id="_Linear1" x1="0" y1="0" x2="1" y2="0" gradientUnits="userSpaceOnUse" gradientTransform="matrix(0.812437,0.0239117,0.0239117,0.883124,204.813,36.0504)"><stop offset="0" style="stop-color:#f58126;stop-opacity:1" id="stop275" /><stop offset="1" style="stop-color:#f58126;stop-opacity:1" id="stop277" /></linearGradient><linearGradient id="_Linear2" x1="0" y1="0" x2="1" y2="0" gradientUnits="userSpaceOnUse" gradientTransform="matrix(0.812102,0.0239019,0.0239019,0.882763,206.968,39.0943)"><stop offset="0" style="stop-color:#f58126;stop-opacity:1" id="stop280" /><stop offset="1" style="stop-color:#f58126;stop-opacity:1" id="stop282" /></linearGradient><linearGradient id="_Linear3" x1="0" y1="0" x2="1" y2="0" gradientUnits="userSpaceOnUse" gradientTransform="matrix(0.685349,0.0201712,0.0201712,0.744976,210.529,34.808)"><stop offset="0" style="stop-color:#f58126;stop-opacity:1" id="stop285" /><stop offset="1" style="stop-color:#f58126;stop-opacity:1" id="stop287" /></linearGradient><linearGradient id="_Linear4" x1="0" y1="0" x2="1" y2="0" gradientUnits="userSpaceOnUse" gradientTransform="matrix(0.811772,0.0238921,0.0238921,0.882402,211.045,36.731)"><stop offset="0" style="stop-color:#f58126;stop-opacity:1" id="stop290" /><stop offset="1" style="stop-color:#f58126;stop-opacity:1" id="stop292" /></linearGradient><linearGradient id="_Linear5" x1="0" y1="0" x2="1" y2="0" gradientUnits="userSpaceOnUse" gradientTransform="matrix(1.06861,0.0314515,0.0314515,1.16159,210.819,41.0112)"><stop offset="0" style="stop-color:#f58126;stop-opacity:1" id="stop295" /><stop offset="1" style="stop-color:#f58126;stop-opacity:1" id="stop297" /></linearGradient><linearGradient id="_Linear6" x1="0" y1="0" x2="1" y2="0" gradientUnits="userSpaceOnUse" gradientTransform="matrix(1.06927,0.0314711,0.0314711,1.16231,214.614,37.0494)"><stop offset="0" style="stop-color:#f58126;stop-opacity:1" id="stop300" /><stop offset="1" style="stop-color:#f58126;stop-opacity:1" id="stop302" /></linearGradient><linearGradient id="_Linear7" x1="0" y1="0" x2="1" y2="0" gradientUnits="userSpaceOnUse" gradientTransform="matrix(1.06961,0.0314809,0.0314809,1.16267,215.513,58.8553)"><stop offset="0" style="stop-color:#f58126;stop-opacity:1" id="stop305" /><stop offset="1" style="stop-color:#f58126;stop-opacity:1" id="stop307" /></linearGradient><linearGradient id="_Linear8" x1="0" y1="0" x2="1" y2="0" gradientUnits="userSpaceOnUse" gradientTransform="matrix(1.06828,0.0314417,0.0314417,1.16123,216.572,49.3635)"><stop offset="0" style="stop-color:#f58126;stop-opacity:1" id="stop310" /><stop offset="1" style="stop-color:#f58126;stop-opacity:1" id="stop312" /></linearGradient><linearGradient id="_Linear9" x1="0" y1="0" x2="1" y2="0" gradientUnits="userSpaceOnUse" gradientTransform="matrix(1.06828,0.0314417,0.0314417,1.16123,216.572,49.3635)"><stop offset="0" style="stop-color:#ec6c23;stop-opacity:1" id="stop315" /><stop offset="1" style="stop-color:#ec6c23;stop-opacity:1" id="stop317" /></linearGradient><linearGradient id="_Linear10" x1="0" y1="0" x2="1" y2="0" gradientUnits="userSpaceOnUse" gradientTransform="matrix(1.06861,0.0314515,0.0314515,1.16159,220.729,42.7174)"><stop offset="0" style="stop-color:#ec6c23;stop-opacity:1" id="stop320" /><stop offset="1" style="stop-color:#ec6c23;stop-opacity:1" id="stop322" /></linearGradient><linearGradient id="_Linear11" x1="0" y1="0" x2="1" y2="0" gradientUnits="userSpaceOnUse" gradientTransform="matrix(1.06961,0.0314809,0.0314809,1.16267,211.366,57.9934)"><stop offset="0" style="stop-color:#f58126;stop-opacity:1" id="stop325" /><stop offset="1" style="stop-color:#f58126;stop-opacity:1" id="stop327" /></linearGradient><linearGradient id="_Linear12" x1="0" y1="0" x2="1" y2="0" gradientUnits="userSpaceOnUse" gradientTransform="matrix(1.06861,0.0314515,0.0314515,1.16159,213.573,49.6478)"><stop offset="0" style="stop-color:#f58126;stop-opacity:1" id="stop330" /><stop offset="1" style="stop-color:#f58126;stop-opacity:1" id="stop332" /></linearGradient><linearGradient id="_Linear13" x1="0" y1="0" x2="1" y2="0" gradientUnits="userSpaceOnUse" gradientTransform="matrix(1.06927,0.0314711,0.0314711,1.16231,207.894,49.7511)"><stop offset="0" style="stop-color:#f58126;stop-opacity:1" id="stop335" /><stop offset="1" style="stop-color:#f58126;stop-opacity:1" id="stop337" /></linearGradient><linearGradient id="_Linear14" x1="0" y1="0" x2="1" y2="0" gradientUnits="userSpaceOnUse" gradientTransform="matrix(1.06927,0.0314711,0.0314711,1.16231,220.358,37.0929)"><stop offset="0" style="stop-color:#ec6c23;stop-opacity:1" id="stop340" /><stop offset="1" style="stop-color:#ec6c23;stop-opacity:1" id="stop342" /></linearGradient><linearGradient id="_Linear15" x1="0" y1="0" x2="1" y2="0" gradientUnits="userSpaceOnUse" gradientTransform="matrix(1.06894,0.0314613,0.0314613,1.16195,226.827,40.3086)"><stop offset="0" style="stop-color:#ec6c23;stop-opacity:1" id="stop345" /><stop offset="1" style="stop-color:#ec6c23;stop-opacity:1" id="stop347" /></linearGradient><linearGradient id="_Linear16" x1="0" y1="0" x2="1" y2="0" gradientUnits="userSpaceOnUse" gradientTransform="matrix(1.06927,0.0314711,0.0314711,1.16231,216.487,35.9059)"><stop offset="0" style="stop-color:#f58126;stop-opacity:1" id="stop350" /><stop offset="1" style="stop-color:#f58126;stop-opacity:1" id="stop352" /></linearGradient><linearGradient id="_Linear17" x1="0" y1="0" x2="1" y2="0" gradientUnits="userSpaceOnUse" gradientTransform="matrix(1.06927,0.0314711,0.0314711,1.16231,216.487,35.9059)"><stop offset="0" style="stop-color:#ec6c23;stop-opacity:1" id="stop355" /><stop offset="1" style="stop-color:#ec6c23;stop-opacity:1" id="stop357" /></linearGradient><linearGradient id="_Linear18" x1="0" y1="0" x2="1" y2="0" gradientUnits="userSpaceOnUse" gradientTransform="matrix(0.427179,0.0125728,0.0125728,0.464346,204.843,38.3009)"><stop offset="0" style="stop-color:#f58126;stop-opacity:1" id="stop360" /><stop offset="1" style="stop-color:#f58126;stop-opacity:1" id="stop362" /></linearGradient><linearGradient id="_Linear19" x1="0" y1="0" x2="1" y2="0" gradientUnits="userSpaceOnUse" gradientTransform="matrix(0.427844,0.0125923,0.0125923,0.465068,222.505,36.9525)"><stop offset="0" style="stop-color:#ec6c23;stop-opacity:1" id="stop365" /><stop offset="1" style="stop-color:#ec6c23;stop-opacity:1" id="stop367" /></linearGradient><linearGradient id="_Linear20" x1="0" y1="0" x2="1" y2="0" gradientUnits="userSpaceOnUse" gradientTransform="matrix(0.426844,0.012563,0.012563,0.463984,222.035,38.7047)"><stop offset="0" style="stop-color:#ec6c23;stop-opacity:1" id="stop370" /><stop offset="1" style="stop-color:#ec6c23;stop-opacity:1" id="stop372" /></linearGradient><linearGradient id="_Linear21" x1="0" y1="0" x2="1" y2="0" gradientUnits="userSpaceOnUse" gradientTransform="matrix(0.427844,0.0125923,0.0125923,0.465068,207.415,37.3212)"><stop offset="0" style="stop-color:#f58126;stop-opacity:1" id="stop375" /><stop offset="1" style="stop-color:#f58126;stop-opacity:1" id="stop377" /></linearGradient><linearGradient id="_Linear22" x1="0" y1="0" x2="1" y2="0" gradientUnits="userSpaceOnUse" gradientTransform="matrix(0.427509,0.0125825,0.0125825,0.464707,212.83,47.9287)"><stop offset="0" style="stop-color:#f58126;stop-opacity:1" id="stop380" /><stop offset="1" style="stop-color:#f58126;stop-opacity:1" id="stop382" /></linearGradient><linearGradient id="_Linear23" x1="0" y1="0" x2="1" y2="0" gradientUnits="userSpaceOnUse" gradientTransform="matrix(0.427179,0.0125728,0.0125728,0.464346,217.698,44.1411)"><stop offset="0" style="stop-color:#ec6c23;stop-opacity:1" id="stop385" /><stop offset="1" style="stop-color:#ec6c23;stop-opacity:1" id="stop387" /></linearGradient><linearGradient id="_Linear24" x1="0" y1="0" x2="1" y2="0" gradientUnits="userSpaceOnUse" gradientTransform="matrix(0.427509,0.0125825,0.0125825,0.464707,212.774,55.4462)"><stop offset="0" style="stop-color:#f58126;stop-opacity:1" id="stop390" /><stop offset="1" style="stop-color:#f58126;stop-opacity:1" id="stop392" /></linearGradient><linearGradient id="_Linear25" x1="0" y1="0" x2="1" y2="0" gradientUnits="userSpaceOnUse" gradientTransform="matrix(0.427179,0.0125728,0.0125728,0.464346,213.187,52.4469)"><stop offset="0" style="stop-color:#f58126;stop-opacity:1" id="stop395" /><stop offset="1" style="stop-color:#f58126;stop-opacity:1" id="stop397" /></linearGradient><linearGradient id="_Linear26" x1="0" y1="0" x2="1" y2="0" gradientUnits="userSpaceOnUse" gradientTransform="matrix(0.426844,0.012563,0.012563,0.463984,216.034,51.5769)"><stop offset="0" style="stop-color:#f58126;stop-opacity:1" id="stop400" /><stop offset="1" style="stop-color:#f58126;stop-opacity:1" id="stop402" /></linearGradient><linearGradient id="_Linear27" x1="0" y1="0" x2="1" y2="0" gradientUnits="userSpaceOnUse" gradientTransform="matrix(0.427509,0.0125825,0.0125825,0.464707,216.514,55.6204)"><stop offset="0" style="stop-color:#f58126;stop-opacity:1" id="stop405" /><stop offset="1" style="stop-color:#f58126;stop-opacity:1" id="stop407" /></linearGradient><linearGradient id="_Linear28" x1="0" y1="0" x2="1" y2="0" gradientUnits="userSpaceOnUse" gradientTransform="matrix(0.427509,0.0125825,0.0125825,0.464707,218.211,54.8331)"><stop offset="0" style="stop-color:#ec6c23;stop-opacity:1" id="stop410" /><stop offset="1" style="stop-color:#ec6c23;stop-opacity:1" id="stop412" /></linearGradient><linearGradient id="_Linear29" x1="0" y1="0" x2="1" y2="0" gradientUnits="userSpaceOnUse" gradientTransform="matrix(0.426844,0.012563,0.012563,0.463984,218.489,52.6366)"><stop offset="0" style="stop-color:#ec6c23;stop-opacity:1" id="stop415" /><stop offset="1" style="stop-color:#ec6c23;stop-opacity:1" id="stop417" /></linearGradient><linearGradient id="_Linear30" x1="0" y1="0" x2="1" y2="0" gradientUnits="userSpaceOnUse" gradientTransform="matrix(0.426844,0.012563,0.012563,0.463984,219.639,51.4773)"><stop offset="0" style="stop-color:#ec6c23;stop-opacity:1" id="stop420" /><stop offset="1" style="stop-color:#ec6c23;stop-opacity:1" id="stop422" /></linearGradient><linearGradient id="_Linear31" x1="0" y1="0" x2="1" y2="0" gradientUnits="userSpaceOnUse" gradientTransform="matrix(0.428174,0.0126021,0.0126021,0.465429,219.572,49.5357)"><stop offset="0" style="stop-color:#ec6c23;stop-opacity:1" id="stop425" /><stop offset="1" style="stop-color:#ec6c23;stop-opacity:1" id="stop427" /></linearGradient><linearGradient id="_Linear32" x1="0" y1="0" x2="1" y2="0" gradientUnits="userSpaceOnUse" gradientTransform="matrix(0.427179,0.0125728,0.0125728,0.464346,217.135,57.9124)"><stop offset="0" style="stop-color:#ec6c23;stop-opacity:1" id="stop430" /><stop offset="1" style="stop-color:#ec6c23;stop-opacity:1" id="stop432" /></linearGradient><linearGradient id="_Linear33" x1="0" y1="0" x2="1" y2="0" gradientUnits="userSpaceOnUse" gradientTransform="matrix(0.427509,0.0125825,0.0125825,0.464707,217.375,59.5754)"><stop offset="0" style="stop-color:#ec6c23;stop-opacity:1" id="stop435" /><stop offset="1" style="stop-color:#ec6c23;stop-opacity:1" id="stop437" /></linearGradient><linearGradient id="_Linear34" x1="0" y1="0" x2="1" y2="0" gradientUnits="userSpaceOnUse" gradientTransform="matrix(0.427179,0.0125728,0.0125728,0.464346,213.702,36.4559)"><stop offset="0" style="stop-color:#f58126;stop-opacity:1" id="stop440" /><stop offset="1" style="stop-color:#f58126;stop-opacity:1" id="stop442" /></linearGradient></defs></svg>