<svg xmlns:dc="http://purl.org/dc/elements/1.1/" xmlns:cc="http://creativecommons.org/ns#" xmlns:rdf="http://www.w3.org/1999/02/22-rdf-syntax-ns#" xmlns:svg="http://www.w3.org/2000/svg" xmlns="http://www.w3.org/2000/svg" xmlns:sodipodi="http://sodipodi.sourceforge.net/DTD/sodipodi-0.dtd" xmlns:inkscape="http://www.inkscape.org/namespaces/inkscape" id="svg8" preserveAspectRatio="xMidYMid" viewBox="0 0 500 500" height="500" width="500" sodipodi:docname="ruby.svg" inkscape:version="0.92.2 5c3e80d, 2017-08-06"><sodipodi:namedview pagecolor="#ffffff" bordercolor="#666666" borderopacity="1" objecttolerance="10" gridtolerance="10" guidetolerance="10" inkscape:pageopacity="0" inkscape:pageshadow="2" inkscape:window-width="1449" inkscape:window-height="841" id="namedview14" showgrid="false" inkscape:zoom=".76985346" inkscape:cx="122.79745" inkscape:cy="146.5" inkscape:window-x="0" inkscape:window-y="0" inkscape:window-maximized="0" inkscape:current-layer="svg8" /><path style="fill:#1e1e1e;fill-opacity:1;stroke-width:1.79141665" d="M139.39036 309.5646C79.317104 240.34875 28.055488 181.20589 25.475654 178.13605L20.785048 172.55453 50.479201 118.57146 80.173356 64.58838H250.00001 419.82665l29.69416 53.98308 29.69414 53.98307-4.69059 5.58152c-27.10225 32.24996-223.48205 257.27557-224.52435 257.27557-.76205.0-50.53639-56.63116-110.60965-125.84702zm153.00434-29.55838 41.38109-94.49722-41.8879-.48028c-23.03832-.26415-60.73743-.26415-83.77577.0l-41.88792.48028 41.38112 94.49722c22.7596 51.97349 41.8372 94.49724 42.39469 94.49724.55749.0 19.63509-42.52375 42.39469-94.49724zM169.63766 262.44629 135.96347 185.509 102.35254 185.02102c-18.486012-.26839-33.336207.17607-33.000425.98771.815798 1.97188 133.065665 154.18592 133.567555 153.73064.21569-.19567-14.7612-34.97758-33.28201-77.29308zm195.64373-.36886c36.10844-41.63611 65.65169-76.11627 65.65169-76.6226.0-.50632-15.04503-.70127-33.4334-.43321l-33.43341.48738-33.74473 76.9828c-18.55959 42.34053-33.74471 77.3672-33.74471 77.83705.0 1.07606-7.45133 9.56278 68.70456-78.25142zM122.80942 156.70239c0-1.66557-25.208541-58.84325-26.554629-60.23083-1.06304-1.09582-34.353536 57.19172-34.353536 60.14881.0.61692 13.704338 1.12167 30.454089 1.12167 16.749736.0 30.454076-.46784 30.454076-1.03965zm191.68157.31587c0-1.23356-63.12861-58.39297-64.49098-58.39297-1.36238.0-64.49101 57.15941-64.49101 58.39297.0.39809 29.02096.72378 64.49101.72378 35.47003.0 64.49098-.32569 64.49098-.72378zm123.60776-.39789c0-2.95709-33.29049-61.24463-34.35353-60.14881-1.34609 1.38758-26.55464 58.56526-26.55464 60.23083.0.57181 13.70433 1.03965 30.45408 1.03965 16.74975.0 30.45409-.50475 30.45409-1.12167zm-255.02228-35.64172 29.57684-26.8319-42.50034-.48091c-23.37519-.2645-42.81735-.16389-43.2048.22357-1.29686 1.29686 23.29339 55.00715 24.93368 54.46039.88977-.29659 14.92736-12.61361 31.19462-27.37115zm178.69266.71076c6.59294-14.90256 11.67015-27.41256 11.2827-27.8-.38745-.38746-19.82381-.48807-43.19191-.22357l-42.48746.48091 30.07512 27.3191c16.54132 15.0255 30.58346 27.3191 31.20476 27.3191.62131.0 6.52386-12.19299 13.11679-27.09554z" id="path97" inkscape:connector-curvature="0" /></svg>