<svg width="160mm" height="90mm" viewBox="0 0 16e3 9e3" baseProfile="tiny" xmlns="http://www.w3.org/2000/svg" stroke-width="28.222" stroke-linejoin="round"><path fill="rgb(255,255,255)" stroke="none" d="M8e3 8999H0V0H15999V8999H8e3z"/><path fill="none" stroke="rgb(179,179,179)" stroke-linejoin="round" d="M15679 8818H320"/><path fill="none" stroke="rgb(179,179,179)" stroke-linejoin="round" d="M15679 7090H320"/><path fill="none" stroke="rgb(179,179,179)" stroke-linejoin="round" d="M15679 5362H320"/><path fill="none" stroke="rgb(179,179,179)" stroke-linejoin="round" d="M15679 3635H320"/><path fill="none" stroke="rgb(179,179,179)" stroke-linejoin="round" d="M15679 1907H320"/><path fill="none" stroke="rgb(179,179,179)" stroke-linejoin="round" d="M15679 179H320"/><path fill="none" stroke="rgb(179,179,179)" stroke-linejoin="round" d="M320 8968V8818"/><path fill="none" stroke="rgb(179,179,179)" stroke-linejoin="round" d="M320 8968V8818"/><path fill="none" stroke="rgb(179,179,179)" stroke-linejoin="round" d="M4160 8968V8818"/><path fill="none" stroke="rgb(179,179,179)" stroke-linejoin="round" d="M4160 8968V8818"/><path fill="none" stroke="rgb(179,179,179)" stroke-linejoin="round" d="M8e3 8968V8818"/><path fill="none" stroke="rgb(179,179,179)" stroke-linejoin="round" d="M8e3 8968V8818"/><path fill="none" stroke="rgb(179,179,179)" stroke-linejoin="round" d="M11839 8968V8818"/><path fill="none" stroke="rgb(179,179,179)" stroke-linejoin="round" d="M11839 8968V8818"/><path fill="none" stroke="rgb(179,179,179)" stroke-linejoin="round" d="M15679 8968V8818"/><path fill="none" stroke="rgb(179,179,179)" stroke-linejoin="round" d="M15679 8968V8818"/><path fill="none" stroke="rgb(179,179,179)" stroke-linejoin="round" d="M320 8818H15679"/><path fill="none" stroke="rgb(179,179,179)" stroke-linejoin="round" d="M170 8818H320"/><path fill="none" stroke="rgb(179,179,179)" stroke-linejoin="round" d="M170 8818H320"/><path fill="none" stroke="rgb(179,179,179)" stroke-linejoin="round" d="M170 7090H320"/><path fill="none" stroke="rgb(179,179,179)" stroke-linejoin="round" d="M170 7090H320"/><path fill="none" stroke="rgb(179,179,179)" stroke-linejoin="round" d="M170 5362H320"/><path fill="none" stroke="rgb(179,179,179)" stroke-linejoin="round" d="M170 5362H320"/><path fill="none" stroke="rgb(179,179,179)" stroke-linejoin="round" d="M170 3635H320"/><path fill="none" stroke="rgb(179,179,179)" stroke-linejoin="round" d="M170 3635H320"/><path fill="none" stroke="rgb(179,179,179)" stroke-linejoin="round" d="M170 1907H320"/><path fill="none" stroke="rgb(179,179,179)" stroke-linejoin="round" d="M170 1907H320"/><path fill="none" stroke="rgb(179,179,179)" stroke-linejoin="round" d="M170 179H320"/><path fill="none" stroke="rgb(179,179,179)" stroke-linejoin="round" d="M170 179H320"/><path fill="none" stroke="rgb(179,179,179)" stroke-linejoin="round" d="M320 8818V179"/><path fill="rgb(108,214,255)" stroke="none" d="M12799 8818h1920V7781H12799V8818z"/><path fill="rgb(255,103,95)" stroke="none" d="M8959 8818h1920V8126H8959v692z"/><path fill="rgb(80,80,80)" stroke="none" d="M5120 8818H7040V1907H5120V8818z"/><path fill="rgb(69,201,70)" stroke="none" d="M1280 8818H32e2V7435H1280V8818z"/></svg>