<svg xmlns:dc="http://purl.org/dc/elements/1.1/" xmlns:cc="http://creativecommons.org/ns#" xmlns:rdf="http://www.w3.org/1999/02/22-rdf-syntax-ns#" xmlns:svg="http://www.w3.org/2000/svg" xmlns="http://www.w3.org/2000/svg" id="svg2" width="1365.3333" height="1024" viewBox="0 0 1365.3333 1024"><defs id="defs6"><clipPath clipPathUnits="userSpaceOnUse" id="clipPath20"><path d="M0 0H1024V768H0z" id="path18" /></clipPath><clipPath clipPathUnits="userSpaceOnUse" id="clipPath32"><path d="m100.0866 609.5659h425.3708v58H100.0866z" id="path30" /></clipPath><clipPath clipPathUnits="userSpaceOnUse" id="clipPath46"><path d="M0 0H1024V768H0z" id="path44" /></clipPath><clipPath clipPathUnits="userSpaceOnUse" id="clipPath56"><path d="m100.0866 479.7754h425.3708v58H100.0866z" id="path54" /></clipPath><clipPath clipPathUnits="userSpaceOnUse" id="clipPath70"><path d="M0 0H1024V768H0z" id="path68" /></clipPath><clipPath clipPathUnits="userSpaceOnUse" id="clipPath102"><path d="m100.0866 349.9849h425.3708v58H100.0866z" id="path100" /></clipPath><clipPath clipPathUnits="userSpaceOnUse" id="clipPath116"><path d="M0 0H1024V768H0z" id="path114" /></clipPath><clipPath clipPathUnits="userSpaceOnUse" id="clipPath148"><path d="m100.0866 220.1943h425.3708v58H100.0866z" id="path146" /></clipPath><clipPath clipPathUnits="userSpaceOnUse" id="clipPath162"><path d="M0 0H1024V768H0z" id="path160" /></clipPath><clipPath clipPathUnits="userSpaceOnUse" id="clipPath184"><path d="m100.0866 90.40379h425.3708v58H100.0866z" id="path182" /></clipPath><clipPath clipPathUnits="userSpaceOnUse" id="clipPath198"><path d="M0 0H1024V768H0z" id="path196" /></clipPath></defs><g id="g10" transform="matrix(1.3333333,0,0,-1.3333333,0,1024)"><g id="g14"><g id="g16" clip-path="url(#clipPath20)"><path d="M0 768H1024V0H0z" style="fill:#000;fill-opacity:1;fill-rule:nonzero;stroke:none" id="path22" /><path d="M111.1306 671.5659H514.4135V606.0151H111.1306z" style="fill:#f8ba00;fill-opacity:1;fill-rule:nonzero;stroke:none" id="path24" /></g></g><g id="g26"><g id="g28" clip-path="url(#clipPath32)"><g id="g34" transform="translate(159,620)"><g id="text38" style="font-variant:normal;font-weight:400;font-size:52px;font-family:EnvyCodeR;-inkscape-font-specification:EnvyCodeR;writing-mode:lr-tb;fill:#000;fill-opacity:1;fill-rule:nonzero;stroke:none" transform="scale(1,-1)" aria-label="RUST SOURCE"><path id="path103" d="M16.326172-16.300781Q24.248047-.07617187 24.248047.0H19.652344Q11.832031-15.970703 11.832031-16.046875H8.0234375V0H4.0117187V-36.105469H14.041016q2.082031.0 3.910156.78711 1.828125.787109 3.173828 2.158203 1.371094 1.345703 2.158203 3.173828.787109 1.828125.787109 3.910156.0 1.777344-.583984 3.376953-.583984 1.59961-1.625 2.894532-1.041016 1.294921-2.462891 2.208984-1.421875.914062-3.072265 1.294922zm-2.285156-3.757813q1.24414.0 2.335937-.457031 1.091797-.482422 1.904297-1.294922.837891-.83789 1.294922-1.929687.482422-1.091797.482422-2.335938.0-1.24414-.482422-2.335937-.457031-1.091797-1.294922-1.904297-.8125-.837891-1.904297-1.294922-1.091797-.482422-2.335937-.482422H8.0234375v12.035156z" /><path id="path105" d="m31.940918-36.105469h4.011719v26.076172q0 1.2441407.457031 2.3359376.482422 1.0917969 1.294922 1.9296875.83789.8125 1.929687 1.2949219 1.091797.4570313 2.335938.4570313 1.24414.0 2.335937-.4570313 1.091797-.4824219 1.904297-1.2949219.837891-.8378906 1.294922-1.9296875.482422-1.0917969.482422-2.3359376v-26.076172h4.011719v26.076172q0 2.0820314-.78711 3.9101564-.787109 1.828125-2.158203 3.1992187-1.345703 1.3457032-3.173828 2.13281253Q44.052246.0 41.970215.0 39.888184.0 38.060059-.78710937 36.231934-1.5742187 34.86084-2.9199219 33.515137-4.2910156 32.728027-6.1191406 31.940918-7.9472656 31.940918-10.029297v-10.029297z" /><path id="path107" d="m63.881836-26.076172q0 1.244141.457031 2.335938.482422 1.091797 1.294922 1.929687.837891.8125 1.929688 1.294922 1.091796.457031 2.335937.457031 2.082031.0 3.910156.78711 1.828125.787109 3.173828 2.158203 1.371094 1.345703 2.158204 3.173828.787109 1.828125.787109 3.910156.0 2.0820314-.787109 3.9101564-.78711 1.828125-2.158204 3.1992187-1.345703 1.3457032-3.173828 2.13281253Q71.981445.0 69.899414.0H59.870117v-4.0117187h10.029297q1.244141.0 2.335938-.4570313 1.091796-.4824219 1.904296-1.2949219.837891-.8378906 1.294922-1.9296875.482422-1.0917969.482422-2.3359376.0-1.244141-.482422-2.335937-.457031-1.091797-1.294922-1.904297-.8125-.837891-1.904296-1.294922-1.091797-.482422-2.335938-.482422-2.082031.0-3.910156-.787109-1.828125-.78711-3.199219-2.132813-1.345703-1.371094-2.132812-3.199219-.78711-1.828125-.78711-3.910156.0-2.082031.78711-3.910156.787109-1.828125 2.132812-3.173828 1.371094-1.371094 3.199219-2.158203 1.828125-.78711 3.910156-.78711h10.029297v4.011719H69.899414q-1.244141.0-2.335937.482422-1.091797.457031-1.929688 1.294922-.8125.8125-1.294922 1.904297-.457031 1.091797-.457031 2.335937z" /><path id="path109" d="m95.822754-32.09375h-8.023438v-4.011719h20.058594v4.011719H99.834473V0h-4.011719z" /><path id="path111" d="m147.66943-26.076172q0 1.244141.45703 2.335938.48243 1.091797 1.29493 1.929687.83789.8125 1.92968 1.294922 1.0918.457031 2.33594.457031 2.08203.0 3.91016.78711 1.82812.787109 3.17383 2.158203 1.37109 1.345703 2.1582 3.173828.78711 1.828125.78711 3.910156.0 2.0820314-.78711 3.9101564-.78711 1.828125-2.1582 3.1992187-1.34571 1.3457032-3.17383 2.13281253Q155.76904.0 153.68701.0h-10.0293v-4.0117187h10.0293q1.24414.0 2.33594-.4570313 1.0918-.4824219 1.9043-1.2949219.83789-.8378906 1.29492-1.9296875.48242-1.0917969.48242-2.3359376.0-1.244141-.48242-2.335937-.45703-1.091797-1.29492-1.904297-.8125-.837891-1.9043-1.294922-1.0918-.482422-2.33594-.482422-2.08203.0-3.91015-.787109-1.82813-.78711-3.19922-2.132813-1.34571-1.371094-2.13282-3.199219-.78711-1.828125-.78711-3.910156.0-2.082031.78711-3.910156.78711-1.828125 2.13282-3.173828 1.37109-1.371094 3.19922-2.158203 1.82812-.78711 3.91015-.78711h10.0293v4.011719h-10.0293q-1.24414.0-2.33594.482422-1.09179.457031-1.92968 1.294922-.8125.8125-1.29493 1.904297-.45703 1.091797-.45703 2.335937z" /><path id="path113" d="m171.58691-26.076172q0-2.082031.78711-3.910156.78711-1.828125 2.13282-3.173828 1.37109-1.371094 3.19921-2.158203 1.82813-.78711 3.91016-.78711 2.08203.0 3.91016.78711 1.82812.787109 3.17383 2.158203 1.37109 1.345703 2.1582 3.173828.78711 1.828125.78711 3.910156v16.046875q0 2.0820314-.78711 3.9101564-.78711 1.828125-2.1582 3.1992187-1.34571 1.3457032-3.17383 2.13281253Q183.69824.0 181.61621.0q-2.08203.0-3.91016-.78710937-1.82812-.78710933-3.19921-2.13281253-1.34571-1.3710937-2.13282-3.1992187-.78711-1.828125-.78711-3.9101564zm10.0293-6.017578q-1.24414.0-2.33594.482422-1.09179.457031-1.92968 1.294922-.8125.8125-1.29493 1.904297-.45703 1.091797-.45703 2.335937v16.046875q0 1.2441407.45703 2.3359376.48243 1.0917969 1.29493 1.9296875.83789.8125 1.92968 1.2949219 1.0918.4570313 2.33594.4570313 1.24414.0 2.33594-.4570313 1.0918-.4824219 1.9043-1.2949219.83789-.8378906 1.29492-1.9296875.48242-1.0917969.48242-2.3359376v-16.046875q0-1.24414-.48242-2.335937-.45703-1.091797-1.29492-1.904297-.8125-.837891-1.9043-1.294922-1.0918-.482422-2.33594-.482422z" /><path id="path115" d="m199.51611-36.105469h4.01172v26.076172q0 1.2441407.45703 2.3359376.48243 1.0917969 1.29493 1.9296875.83789.8125 1.92968 1.2949219 1.0918.4570313 2.33594.4570313 1.24414.0 2.33594-.4570313 1.09179-.4824219 1.90429-1.2949219.8379-.8378906 1.29493-1.9296875.48242-1.0917969.48242-2.3359376v-26.076172h4.01172v26.076172q0 2.0820314-.78711 3.9101564-.78711 1.828125-2.15821 3.1992187-1.3457 1.3457032-3.17382 2.13281253Q211.62744.0 209.54541.0q-2.08203.0-3.91016-.78710937-1.82812-.78710933-3.19921-2.13281253-1.34571-1.3710937-2.13282-3.1992187-.78711-1.828125-.78711-3.9101564v-10.029297z" /><path id="path117" d="M239.75977-16.300781Q247.68164-.07617187 247.68164.0h-4.5957q-7.82032-15.970703-7.82032-16.046875h-3.80859V0h-4.01172v-36.105469h10.0293q2.08203.0 3.91016.78711 1.82812.787109 3.17382 2.158203 1.3711 1.345703 2.15821 3.173828.78711 1.828125.78711 3.910156.0 1.777344-.58399 3.376953-.58398 1.59961-1.625 2.894532-1.04101 1.294921-2.46289 2.208984-1.42187.914062-3.07226 1.294922zm-2.28516-3.757813q1.24414.0 2.33594-.457031 1.09179-.482422 1.90429-1.294922.83789-.83789 1.29493-1.929687.48242-1.091797.48242-2.335938.0-1.24414-.48242-2.335937-.45704-1.091797-1.29493-1.904297-.8125-.837891-1.90429-1.294922-1.0918-.482422-2.33594-.482422h-6.01758v12.035156z" /><path id="path119" d="m265.47998-32.09375q-1.29492.0-2.41211.482422-1.11719.457031-1.92969 1.294922-.8125.8125-1.29492 1.904297-.45703 1.091797-.45703 2.335937v16.046875q0 1.2441407.45703 2.3359376.48242 1.0917969 1.29492 1.9296875.8125.8125 1.92969 1.2949219 1.11719.4570313 2.41211.4570313 1.06641.0 2.00586-.2792969.93945-.3046875 1.70117-.8378906.78711-.5332032 1.3457-1.2695313.58399-.7363281.88868-1.625h4.01172q-.35547 1.7265625-1.24415 3.1992188-.88867 1.4726562-2.20898 2.5390624-1.29492 1.0664063-2.94531 1.6757813Q267.38428.0 265.47998.0q-2.13281.0-3.98633-.78710937-1.82812-.78710933-3.19922-2.13281253-1.37109-1.3710937-2.1582-3.1992187-.76172-1.828125-.76172-3.9101564v-16.046875q0-2.082031.76172-3.910156.78711-1.828125 2.1582-3.173828 1.3711-1.371094 3.19922-2.158203 1.85352-.78711 3.98633-.78711 1.9043.0 3.55469.609375 1.67578.609375 2.9707 1.701172 1.29492 1.066406 2.18359 2.539063.88868 1.472656 1.24415 3.173828h-4.01172q-.30469-.863281-.88868-1.59961-.55859-.736328-1.32031-1.269531-.76172-.533203-1.72656-.83789-.93945-.304688-2.00586-.304688z" /><path id="path121" d="m283.30371-36.105469h20.05859v4.011719h-16.04687v12.035156h12.03516v4.011719H287.31543V-4.0117187H303.3623V0h-20.05859z" /></g></g></g></g><g id="g40"><g id="g42" clip-path="url(#clipPath46)"><path d="M111.1306 541.7754H514.4135V476.2246H111.1306z" style="fill:#f8ba00;fill-opacity:1;fill-rule:nonzero;stroke:none" id="path48" /></g></g><g id="g50"><g id="g52" clip-path="url(#clipPath56)"><g id="g58" transform="translate(271,490)"><g id="text62" style="font-variant:normal;font-weight:400;font-size:52px;font-family:EnvyCodeR;-inkscape-font-specification:EnvyCodeR;writing-mode:lr-tb;fill:#000;fill-opacity:1;fill-rule:nonzero;stroke:none" transform="scale(1,-1)" aria-label="HIR"><path id="path124" d="m4.0117187-36.105469h4.0117188v16.046875H20.058594v-16.046875h4.011718V0H20.058594V-16.046875H8.0234375V0H4.0117187z" /><path id="path126" d="m31.940918-4.0117187h8.023437V-32.09375h-8.023437v-4.011719h20.058594v4.011719h-8.023438v28.0820313h8.023438V0H31.940918z" /><path id="path128" d="M72.18457-16.300781Q80.106445-.07617187 80.106445.0H75.510742Q67.69043-15.970703 67.69043-16.046875H63.881836V0h-4.011719v-36.105469h10.029297q2.082031.0 3.910156.78711 1.828125.787109 3.173828 2.158203 1.371094 1.345703 2.158204 3.173828.787109 1.828125.787109 3.910156.0 1.777344-.583984 3.376953-.583985 1.59961-1.625 2.894532-1.041016 1.294921-2.462891 2.208984-1.421875.914062-3.072266 1.294922zm-2.285156-3.757813q1.244141.0 2.335938-.457031 1.091796-.482422 1.904296-1.294922.837891-.83789 1.294922-1.929687.482422-1.091797.482422-2.335938.0-1.24414-.482422-2.335937-.457031-1.091797-1.294922-1.904297-.8125-.837891-1.904296-1.294922-1.091797-.482422-2.335938-.482422h-6.017578v12.035156z" /></g></g></g></g><g id="g64"><g id="g66" clip-path="url(#clipPath70)"><g id="g72" transform="matrix(0,-1,-1,0,312.772,602.5141)"><path d="m0 0h15.23775 5.5" style="fill:none;stroke:#ee220c;stroke-width:11;stroke-linecap:butt;stroke-linejoin:miter;stroke-miterlimit:4;stroke-dasharray:none;stroke-opacity:1" id="path74" /></g><path d="m291.772 587.2764 21-42 21 42z" style="fill:#ee220c;fill-opacity:1;fill-rule:nonzero;stroke:none" id="path76" /><g id="g78" transform="translate(562,582)"><g id="text82" style="font-variant:normal;font-weight:700;font-size:39px;font-family:HelveticaNeue;-inkscape-font-specification:HelveticaNeue-Bold;writing-mode:lr-tb;fill:#fff;fill-opacity:1;fill-rule:nonzero;stroke:none" transform="scale(1,-1)" aria-label="Parsing"><path id="path131" d="m8.814-14.742v-8.346h4.758q1.053.0 2.028.156.975.156 1.716.624.741.429 1.17 1.248.468.819.468 2.145.0 1.326-.468 2.145-.429.819-1.17 1.287-.741.429-1.716.585-.975.156-2.028.156zM2.691-27.846V0h6.123v-9.984h6.435q2.613.0 4.446-.741 1.833-.78 2.964-2.028 1.17-1.248 1.677-2.847.546-1.638.546-3.315.0-1.716-.546-3.315-.507-1.599-1.677-2.847-1.131-1.248-2.964-1.989-1.833-.78-4.446-.78z" /><path id="path133" d="m27.885-13.962q.117-1.95.975-3.237.858-1.287 2.184-2.067 1.326-.78 2.964-1.092 1.677-.351 3.354-.351 1.521.0 3.081.234 1.56.195 2.847.819 1.287.624 2.106 1.755.819 1.092.819 2.925v10.491q0 1.365.156 2.613.156 1.248.546 1.872h-5.616q-.156-.468-.273-.936-.078-.507-.117-1.014-1.326 1.365-3.12 1.911-1.794.546-3.666.546-1.443.0-2.691-.351-1.248-.351-2.184-1.092-.936-.741-1.482-1.872-.507-1.131-.507-2.691.0-1.716.585-2.808.624-1.131 1.56-1.794.975-.663 2.184-.975 1.248-.351 2.496-.546 1.248-.195 2.457-.312 1.209-.117 2.145-.351.936-.234 1.482-.663.546-.468.507-1.326.0-.897-.312-1.404-.273-.546-.78-.819-.468-.312-1.131-.39-.624-.117-1.365-.117-1.638.0-2.574.702-.936.702-1.092 2.34zm12.792 4.095q-.351.312-.897.507-.507.156-1.131.273-.585.117-1.248.195-.663.078-1.326.195-.624.117-1.248.312-.585.195-1.053.546-.429.312-.702.819-.273.507-.273 1.287.0.741.273 1.248.273.507.741.819.468.273 1.092.39.624.117 1.287.117 1.638.0 2.535-.546.897-.546 1.326-1.287.429-.78.507-1.56.117-.78.117-1.248z" /><path id="path135" d="M50.504998-20.163V0h5.538v-9.087q0-1.365.273-2.535.273-1.17.897-2.028.663-.897 1.716-1.404 1.053-.507 2.574-.507.507.0 1.053.078.546.039.936.117v-5.148q-.663-.195-1.209-.195-1.053.0-2.028.312-.975.312-1.833.897-.858.546-1.521 1.365-.663.78-1.053 1.716h-.078v-3.744z" /><path id="path137" d="m69.966-6.552h-5.265q.078 2.028.897 3.393.858 1.326 2.145 2.145 1.326.819 3.003 1.17 1.677.351 3.432.351 1.716.0 3.354-.351 1.677-.312 2.964-1.131 1.287-.819 2.067-2.145.819-1.365.819-3.354.0-1.404-.546-2.34-.546-.975-1.443-1.599-.897-.663-2.067-1.053-1.131-.39-2.34-.663-1.17-.273-2.301-.507-1.131-.234-2.028-.507-.858-.312-1.404-.78-.546-.468-.546-1.209.0-.624.312-.975.312-.39.741-.585.468-.195 1.014-.234.546-.078 1.014-.078 1.482.0 2.574.585 1.092.546 1.209 2.145h5.265q-.156-1.872-.975-3.081-.78-1.248-1.989-1.989-1.209-.741-2.769-1.053-1.521-.312-3.159-.312-1.638.0-3.198.312-1.56.273-2.808 1.014-1.248.702-2.028 1.95-.741 1.248-.741 3.198.0 1.326.546 2.262.546.897 1.443 1.521.897.585 2.028.975 1.17.351 2.379.624 2.964.624 4.602 1.248 1.677.624 1.677 1.872.0.741-.351 1.248-.351.468-.897.78-.507.273-1.17.429-.624.117-1.209.117-.819.0-1.599-.195-.741-.195-1.326-.585-.585-.429-.975-1.053-.351-.663-.351-1.56z" /><path id="path139" d="m92.313-23.283v-4.563h-5.538v4.563zm-5.538 3.12V0h5.538v-20.163z" /><path id="path141" d="M96.680997-20.163V0H102.219v-10.569q0-3.081 1.014-4.407 1.014-1.365 3.276-1.365 1.989.0 2.769 1.248.78 1.209.78 3.705V0h5.538v-12.402q0-1.872-.351-3.393-.312-1.56-1.131-2.613-.819-1.092-2.262-1.677-1.404-.624-3.627-.624-1.755.0-3.432.819-1.677.78-2.73 2.535h-.117v-2.808z" /><path id="path143" d="m129.207-4.758q-1.287.0-2.145-.546-.858-.546-1.404-1.404-.507-.858-.741-1.911-.195-1.092-.195-2.184.0-1.131.234-2.145.273-1.053.819-1.833.585-.819 1.404-1.287.858-.468 2.028-.468 1.365.0 2.262.507.897.507 1.443 1.365.546.858.78 1.989.234 1.092.234 2.34.0 1.092-.312 2.106-.273.975-.858 1.755-.585.78-1.482 1.248-.897.468-2.067.468zm9.984 3.471v-18.876h-5.265v2.691h-.078q-1.014-1.755-2.535-2.496-1.482-.741-3.471-.741-2.106.0-3.744.819-1.599.819-2.691 2.223-1.092 1.365-1.677 3.198-.546 1.794-.546 3.744.0 2.067.468 3.939.507 1.833 1.56 3.237 1.053 1.365 2.691 2.184 1.638.78 3.9.78 1.833.0 3.471-.741 1.677-.78 2.574-2.379h.078v2.652q.039 2.145-1.053 3.549-1.053 1.404-3.393 1.404-1.482.0-2.613-.624-1.131-.585-1.521-2.145h-5.499q.117 1.716.936 2.925.858 1.248 2.106 2.028 1.287.78 2.808 1.131 1.56.39 3.042.39 3.471.0 5.538-.936 2.067-.936 3.159-2.301 1.092-1.326 1.404-2.886.351-1.56.351-2.769z" /></g></g><g id="g88" transform="translate(562,535)"><g id="text92" style="font-variant:normal;font-weight:700;font-size:39px;font-family:HelveticaNeue;-inkscape-font-specification:HelveticaNeue-Bold;writing-mode:lr-tb;fill:#fadd09;fill-opacity:1;fill-rule:nonzero;stroke:none" transform="scale(1,-1)" aria-label="Desugaring"><path id="path147" d="m8.814-5.148v-17.55h4.368q2.262.0 3.783.663 1.56.624 2.496 1.833.936 1.209 1.326 2.925.429 1.677.429 3.783.0 2.301-.585 3.9-.585 1.599-1.56 2.613-.975.975-2.223 1.404-1.248.429-2.574.429zM2.691-27.846V0h12.012q3.198.0 5.538-1.053 2.379-1.092 3.939-2.964 1.599-1.872 2.379-4.446.78-2.574.78-5.616.0-3.471-.975-6.045-.936-2.574-2.652-4.29-1.677-1.716-4.017-2.574-2.301-.858-4.992-.858z" /><path id="path149" d="m44.577-12.246h-9.009q.039-.585.234-1.326.234-.741.741-1.404.546-.663 1.404-1.092.897-.468 2.223-.468 2.028.0 3.003 1.092 1.014 1.092 1.404 3.198zm-9.009 3.51h14.547q.156-2.34-.39-4.485-.546-2.145-1.794-3.822-1.209-1.677-3.12-2.652-1.911-1.014-4.485-1.014-2.301.0-4.212.819-1.872.819-3.237 2.262-1.365 1.404-2.106 3.354-.741 1.95-.741 4.212.0 2.34.702 4.29.741 1.95 2.067 3.354 1.326 1.404 3.237 2.184 1.911.741 4.29.741 3.432.0 5.85-1.56 2.418-1.56 3.588-5.187h-4.875q-.273.936-1.482 1.794-1.209.819-2.886.819-2.34.0-3.588-1.209-1.248-1.209-1.365-3.9z" /><path id="path151" d="m57.681-6.552h-5.265q.078 2.028.897 3.393.858 1.326 2.145 2.145 1.326.819 3.003 1.17 1.677.351 3.432.351 1.716.0 3.354-.351 1.677-.312 2.964-1.131 1.287-.819 2.067-2.145.819-1.365.819-3.354.0-1.404-.546-2.34-.546-.975-1.443-1.599-.897-.663-2.067-1.053-1.131-.39-2.34-.663-1.17-.273-2.301-.507-1.131-.234-2.028-.507-.858-.312-1.404-.78-.546-.468-.546-1.209.0-.624.312-.975.312-.39.741-.585.468-.195 1.014-.234.546-.078 1.014-.078 1.482.0 2.574.585 1.092.546 1.209 2.145h5.265q-.156-1.872-.975-3.081-.78-1.248-1.989-1.989-1.209-.741-2.769-1.053-1.521-.312-3.159-.312-1.638.0-3.198.312-1.56.273-2.808 1.014-1.248.702-2.028 1.95-.741 1.248-.741 3.198.0 1.326.546 2.262.546.897 1.443 1.521.897.585 2.028.975 1.17.351 2.379.624 2.964.624 4.602 1.248 1.677.624 1.677 1.872.0.741-.351 1.248-.351.468-.897.78-.507.273-1.17.429-.624.117-1.209.117-.819.0-1.599-.195-.741-.195-1.326-.585-.585-.429-.975-1.053-.351-.663-.351-1.56z" /><path id="path153" d="m93.248997.0v-20.163h-5.538v10.569q0 3.081-1.014 4.446-1.014 1.326-3.276 1.326-1.989.0-2.769-1.209-.78-1.248-.78-3.744v-11.388h-5.538v12.402q0 1.872.312 3.432.351 1.521 1.17 2.613.819 1.053 2.223 1.638 1.443.585 3.666.585 1.755.0 3.432-.78 1.677-.78 2.73-2.535h.117V0z" /><path id="path155" d="m106.86-4.758q-1.287.0-2.145-.546-.858-.546-1.404-1.404-.507-.858-.741-1.911-.195-1.092-.195-2.184.0-1.131.234-2.145.273-1.053.819-1.833.585-.819 1.404-1.287.858-.468 2.028-.468 1.365.0 2.262.507.897.507 1.443 1.365.546.858.78 1.989.234 1.092.234 2.34.0 1.092-.312 2.106-.273.975-.858 1.755-.585.78-1.482 1.248-.897.468-2.067.468zm9.984 3.471v-18.876h-5.265v2.691h-.078q-1.014-1.755-2.535-2.496-1.482-.741-3.471-.741-2.106.0-3.744.819-1.599.819-2.690997 2.223-1.092 1.365-1.677 3.198-.546 1.794-.546 3.744.0 2.067.468 3.939.507 1.833 1.56 3.237 1.053 1.365 2.690997 2.184 1.638.78 3.9.78 1.833.0 3.471-.741 1.677-.78 2.574-2.379h.078v2.652q.039 2.145-1.053 3.549-1.053 1.404-3.393 1.404-1.482.0-2.613-.624-1.131-.585-1.521-2.145h-5.498997q.117 1.716.936 2.925.858 1.248 2.105997 2.028 1.287.78 2.808 1.131 1.56.39 3.042.39 3.471.0 5.538-.936 2.067-.936 3.159-2.301 1.092-1.326 1.404-2.886.351-1.56.351-2.769z" /><path id="path157" d="m121.056-13.962q.117-1.95.975-3.237.858-1.287 2.184-2.067 1.326-.78 2.964-1.092 1.677-.351 3.354-.351 1.521.0 3.081.234 1.56.195 2.847.819 1.287.624 2.106 1.755.819 1.092.819 2.925v10.491q0 1.365.156 2.613.156 1.248.546 1.872h-5.616q-.156-.468-.273-.936-.078-.507-.117-1.014-1.326 1.365-3.12 1.911-1.794.546-3.666.546-1.443.0-2.691-.351-1.248-.351-2.184-1.092-.936-.741-1.482-1.872-.507-1.131-.507-2.691.0-1.716.585-2.808.624-1.131 1.56-1.794.975-.663 2.184-.975 1.248-.351 2.496-.546 1.248-.195 2.457-.312 1.209-.117 2.145-.351.936-.234 1.482-.663.546-.468.507-1.326.0-.897-.312-1.404-.273-.546-.78-.819-.468-.312-1.131-.39-.624-.117-1.365-.117-1.638.0-2.574.702-.936.702-1.092 2.34zm12.792 4.095q-.351.312-.897.507-.507.156-1.131.273-.585.117-1.248.195-.663.078-1.326.195-.624.117-1.248.312-.585.195-1.053.546-.429.312-.702.819-.273.507-.273 1.287.0.741.273 1.248.273.507.741.819.468.273 1.092.39.624.117 1.287.117 1.638.0 2.535-.546.897-.546 1.326-1.287.429-.78.507-1.56.117-.78.117-1.248z" /><path id="path159" d="M143.67601-20.163V0h5.538v-9.087q0-1.365.273-2.535.273-1.17.897-2.028.663-.897 1.716-1.404 1.053-.507 2.574-.507.507.0 1.053.078.546.039.936.117v-5.148q-.663-.195-1.209-.195-1.053.0-2.028.312-.975.312-1.833.897-.858.546-1.521 1.365-.663.78-1.053 1.716h-.078v-3.744z" /><path id="path161" d="m164.541-23.283v-4.563h-5.538v4.563zm-5.538 3.12V0h5.538v-20.163z" /><path id="path163" d="M168.90899-20.163V0h5.538v-10.569q0-3.081 1.014-4.407 1.014-1.365 3.276-1.365 1.989.0 2.769 1.248.78 1.209.78 3.705V0h5.538v-12.402q0-1.872-.351-3.393-.312-1.56-1.131-2.613-.819-1.092-2.262-1.677-1.404-.624-3.627-.624-1.755.0-3.432.819-1.677.78-2.73 2.535h-.117v-2.808z" /><path id="path165" d="m201.43499-4.758q-1.287.0-2.145-.546-.858-.546-1.404-1.404-.507-.858-.741-1.911-.195-1.092-.195-2.184.0-1.131.234-2.145.273-1.053.819-1.833.585-.819 1.404-1.287.858-.468 2.028-.468 1.365.0 2.262.507.897.507 1.443 1.365.546.858.78 1.989.234 1.092.234 2.34.0 1.092-.312 2.106-.273.975-.858 1.755-.585.78-1.482 1.248-.897.468-2.067.468zm9.984 3.471v-18.876h-5.265v2.691h-.078q-1.014-1.755-2.535-2.496-1.482-.741-3.471-.741-2.106.0-3.744.819-1.599.819-2.691 2.223-1.092 1.365-1.677 3.198-.546 1.794-.546 3.744.0 2.067.468 3.939.507 1.833 1.56 3.237 1.053 1.365 2.691 2.184 1.638.78 3.9.78 1.833.0 3.471-.741 1.677-.78 2.574-2.379h.078v2.652q.039 2.145-1.053 3.549-1.053 1.404-3.393 1.404-1.482.0-2.613-.624-1.131-.585-1.521-2.145h-5.499q.117 1.716.936 2.925.858 1.248 2.106 2.028 1.287.78 2.808 1.131 1.56.39 3.042.39 3.471.0 5.538-.936 2.067-.936 3.159-2.301 1.092-1.326 1.404-2.886.351-1.56.351-2.769z" /></g></g><path d="M111.1306 411.9849H514.4135V346.4341H111.1306z" style="fill:#f8ba00;fill-opacity:1;fill-rule:nonzero;stroke:none" id="path94" /></g></g><g id="g96"><g id="g98" clip-path="url(#clipPath102)"><g id="g104" transform="translate(271,360)"><g id="text108" style="font-variant:normal;font-weight:400;font-size:52px;font-family:EnvyCodeR;-inkscape-font-specification:EnvyCodeR;writing-mode:lr-tb;fill:#000;fill-opacity:1;fill-rule:nonzero;stroke:none" transform="scale(1,-1)" aria-label="MIR"><path id="path169" d="M20.058594-28.082031 14.041016-17.570312 8.0234375-28.082031V0H4.0117187v-36.105469h4.0117188l6.0175785 12.035157 6.017578-12.035157h4.011718V0h-4.011718z" /><path id="path171" d="m31.940918-4.0117187h8.023437V-32.09375h-8.023437v-4.011719h20.058594v4.011719h-8.023438v28.0820313h8.023438V0H31.940918z" /><path id="path173" d="M72.18457-16.300781Q80.106445-.07617187 80.106445.0H75.510742Q67.69043-15.970703 67.69043-16.046875H63.881836V0h-4.011719v-36.105469h10.029297q2.082031.0 3.910156.78711 1.828125.787109 3.173828 2.158203 1.371094 1.345703 2.158204 3.173828.787109 1.828125.787109 3.910156.0 1.777344-.583984 3.376953-.583985 1.59961-1.625 2.894532-1.041016 1.294921-2.462891 2.208984-1.421875.914062-3.072266 1.294922zm-2.285156-3.757813q1.244141.0 2.335938-.457031 1.091796-.482422 1.904296-1.294922.837891-.83789 1.294922-1.929687.482422-1.091797.482422-2.335938.0-1.24414-.482422-2.335937-.457031-1.091797-1.294922-1.904297-.8125-.837891-1.904296-1.294922-1.091797-.482422-2.335938-.482422h-6.017578v12.035156z" /></g></g></g></g><g id="g110"><g id="g112" clip-path="url(#clipPath116)"><g id="g118" transform="matrix(0,-1,-1,0,312.772,472.7236)"><path d="m0 0h15.23775 5.5" style="fill:none;stroke:#ee220c;stroke-width:11;stroke-linecap:butt;stroke-linejoin:miter;stroke-miterlimit:4;stroke-dasharray:none;stroke-opacity:1" id="path120" /></g><path d="m291.772 457.4859 21-42 21 42z" style="fill:#ee220c;fill-opacity:1;fill-rule:nonzero;stroke:none" id="path122" /><g id="g124" transform="translate(562,453)"><g id="text128" style="font-variant:normal;font-weight:700;font-size:39px;font-family:HelveticaNeue;-inkscape-font-specification:HelveticaNeue-Bold;writing-mode:lr-tb;fill:#fff;fill-opacity:1;fill-rule:nonzero;stroke:none" transform="scale(1,-1)" aria-label="Borrow-checking"><path id="path177" d="m8.814-16.575v-6.513h5.733q.819.0 1.56.156.78.117 1.365.468.585.351.936.975.351.624.351 1.599.0 1.755-1.053 2.535-1.053.78-2.691.78zM2.691-27.846V0h13.494q1.872.0 3.627-.468 1.794-.468 3.159-1.443 1.404-.975 2.223-2.496.819-1.56.819-3.666.0-2.613-1.287-4.446-1.248-1.872-3.822-2.613 1.872-.897 2.808-2.301.975-1.404.975-3.51.0-1.95-.663-3.276-.624-1.326-1.794-2.106-1.17-.819-2.808-1.17-1.638-.351-3.627-.351zm6.123 23.088v-7.644h6.669q1.989.0 3.198.936 1.209.897 1.209 3.042.0 1.092-.39 1.794-.351.702-.975 1.131-.624.39-1.443.585-.819.156-1.716.156z" /><path id="path179" d="m34.475999-10.062q0-1.209.234-2.379.234-1.17.78-2.067.585-.897 1.521-1.443.936-.585 2.34-.585 1.404.0 2.34.585.975.546 1.521 1.443.585.897.819 2.067.234 1.17.234 2.379.0 1.209-.234 2.379-.234 1.131-.819 2.067-.546.897-1.521 1.443-.936.546-2.34.546-1.404.0-2.34-.546-.936-.546-1.521-1.443-.546-.936-.78-2.067-.234-1.17-.234-2.379zm-5.538.0q0 2.418.741 4.368.741 1.95 2.106 3.354 1.365 1.365 3.276 2.106 1.911.741 4.29.741 2.379.0 4.29-.741 1.95-.741 3.315-2.106 1.365-1.404 2.106-3.354.741-1.95.741-4.368.0-2.418-.741-4.368-.741-1.989-2.106-3.354-1.365-1.404-3.315-2.145-1.911-.78-4.29-.78-2.379.0-4.29.78-1.911.741-3.276 2.145-1.365 1.365-2.106 3.354-.741 1.95-.741 4.368z" /><path id="path181" d="M53.391-20.163V0h5.538v-9.087q0-1.365.273-2.535.273-1.17.897-2.028.663-.897 1.716-1.404 1.053-.507 2.574-.507.507.0 1.053.078.546.039.936.117v-5.148q-.663-.195-1.209-.195-1.053.0-2.028.312-.975.312-1.833.897-.858.546-1.521 1.365-.663.78-1.053 1.716h-.078v-3.744z" /><path id="path183" d="M68.562001-20.163V0h5.538v-9.087q0-1.365.273-2.535.273-1.17.897-2.028.663-.897 1.716-1.404 1.053-.507 2.574-.507.507.0 1.053.078.546.039.936.117v-5.148q-.663-.195-1.209-.195-1.053.0-2.028.312-.975.312-1.833.897-.858.546-1.521 1.365-.663.78-1.053 1.716h-.078v-3.744z" /><path id="path185" d="m87.945003-10.062q0-1.209.234-2.379.234-1.17.78-2.067.585-.897 1.521-1.443.936-.585 2.34-.585 1.404.0 2.34.585.975.546 1.521 1.443.585.897.819 2.067.234 1.17.234 2.379.0 1.209-.234 2.379-.234 1.131-.819 2.067-.546.897-1.521 1.443-.936.546-2.34.546-1.404.0-2.34-.546-.936-.546-1.521-1.443-.546-.936-.78-2.067-.234-1.17-.234-2.379zm-5.538.0q0 2.418.741 4.368.741 1.95 2.106 3.354 1.365 1.365 3.276 2.106 1.911.741 4.29.741 2.379.0 4.29-.741 1.95-.741 3.314997-2.106 1.365-1.404 2.106-3.354.741-1.95.741-4.368.0-2.418-.741-4.368-.741-1.989-2.106-3.354-1.364997-1.404-3.314997-2.145-1.911-.78-4.29-.78-2.379.0-4.29.78-1.911.741-3.276 2.145-1.365 1.365-2.106 3.354-.741 1.95-.741 4.368z" /><path id="path187" d="m129.909.0 6.357-20.163h-5.694l-3.705 13.65h-.078l-3.432-13.65h-5.382l-3.354 13.689h-.078l-3.705-13.689h-5.85L111.384.0h5.733l3.432-13.533h.078L124.215.0z" /><path id="path189" d="m138.567-13.026v4.758h11.739v-4.758z" /><path id="path191" d="m168.207-13.065h5.421q-.117-1.95-.936-3.354-.819-1.443-2.145-2.379-1.287-.975-2.964-1.443-1.638-.468-3.432-.468-2.457.0-4.368.819-1.911.819-3.237 2.301-1.326 1.443-2.028 3.471-.663 1.989-.663 4.329.0 2.262.741 4.173.741 1.872 2.067 3.237 1.326 1.365 3.198 2.145 1.911.741 4.173.741 4.017.0 6.591-2.106 2.574-2.106 3.12-6.123h-5.343q-.273 1.872-1.365 3.003-1.053 1.092-3.042 1.092-1.287.0-2.184-.585-.897-.585-1.443-1.482-.507-.936-.741-2.067-.234-1.131-.234-2.223.0-1.131.234-2.262.234-1.17.78-2.106.585-.975 1.482-1.56.897-.624 2.223-.624 3.549.0 4.095 3.471z" /><path id="path193" d="M176.865-27.846V0h5.538v-10.569q0-3.081 1.014-4.407 1.014-1.365 3.276-1.365 1.989.0 2.769 1.248.78 1.209.78 3.705V0h5.538v-12.402q0-1.872-.351-3.393-.312-1.56-1.131-2.613-.819-1.092-2.262-1.677-1.404-.624-3.627-.624-1.56.0-3.198.819-1.638.78-2.691 2.535h-.117v-10.491z" /><path id="path195" d="m213.564-12.246h-9.009q.039-.585.234-1.326.234-.741.741-1.404.546-.663 1.404-1.092.897-.468 2.223-.468 2.028.0 3.003 1.092 1.014 1.092 1.404 3.198zm-9.009 3.51h14.547q.156-2.34-.39-4.485-.546-2.145-1.794-3.822-1.209-1.677-3.12-2.652-1.911-1.014-4.485-1.014-2.301.0-4.212.819-1.872.819-3.237 2.262-1.365 1.404-2.106 3.354-.741 1.95-.741 4.212.0 2.34.702 4.29.741 1.95 2.067 3.354 1.326 1.404 3.237 2.184 1.911.741 4.29.741 3.432.0 5.85-1.56 2.418-1.56 3.588-5.187h-4.875q-.273.936-1.482 1.794-1.209.819-2.886.819-2.34.0-3.588-1.209-1.248-1.209-1.365-3.9z" /><path id="path197" d="m236.106-13.065h5.421q-.117-1.95-.936-3.354-.819-1.443-2.145-2.379-1.287-.975-2.964-1.443-1.638-.468-3.432-.468-2.457.0-4.368.819-1.911.819-3.237 2.301-1.326 1.443-2.028 3.471-.663 1.989-.663 4.329.0 2.262.741 4.173.741 1.872 2.067 3.237 1.326 1.365 3.198 2.145 1.911.741 4.173.741 4.017.0 6.591-2.106 2.574-2.106 3.12-6.123h-5.343q-.273 1.872-1.365 3.003-1.053 1.092-3.042 1.092-1.287.0-2.184-.585-.897-.585-1.443-1.482-.507-.936-.741-2.067-.234-1.131-.234-2.223.0-1.131.234-2.262.234-1.17.78-2.106.585-.975 1.482-1.56.897-.624 2.223-.624 3.549.0 4.095 3.471z" /><path id="path199" d="M245.271-27.846V0h5.538v-6.942l2.145-2.067L258.492.0h6.708l-8.463-12.753 7.605-7.41h-6.552l-6.981 7.254v-14.937z" /><path id="path201" d="m272.84401-23.283v-4.563h-5.538v4.563zm-5.538 3.12V0h5.538v-20.163z" /><path id="path203" d="M277.21199-20.163V0h5.538v-10.569q0-3.081 1.014-4.407 1.014-1.365 3.276-1.365 1.989.0 2.769 1.248.78 1.209.78 3.705V0h5.538v-12.402q0-1.872-.351-3.393-.312-1.56-1.131-2.613-.819-1.092-2.262-1.677-1.404-.624-3.627-.624-1.755.0-3.432.819-1.677.78-2.73 2.535h-.117v-2.808z" /><path id="path205" d="m309.738-4.758q-1.287.0-2.145-.546-.858-.546-1.404-1.404-.507-.858-.741-1.911-.195-1.092-.195-2.184.0-1.131.234-2.145.273-1.053.819-1.833.585-.819 1.404-1.287.858-.468 2.028-.468 1.365.0 2.262.507.897.507 1.443 1.365.546.858.78 1.989.234 1.092.234 2.34.0 1.092-.312 2.106-.273.975-.858 1.755-.585.78-1.482 1.248-.897.468-2.067.468zm9.984 3.471v-18.876h-5.265v2.691h-.078q-1.014-1.755-2.535-2.496-1.482-.741-3.471-.741-2.106.0-3.744.819-1.599.819-2.691 2.223-1.092 1.365-1.677 3.198-.546 1.794-.546 3.744.0 2.067.468 3.939.507 1.833 1.56 3.237 1.053 1.365 2.691 2.184 1.638.78 3.9.78 1.833.0 3.471-.741 1.677-.78 2.574-2.379h.078v2.652q.039 2.145-1.053 3.549-1.053 1.404-3.393 1.404-1.482.0-2.613-.624-1.131-.585-1.521-2.145h-5.499q.117 1.716.936 2.925.858 1.248 2.106 2.028 1.287.78 2.808 1.131 1.56.39 3.042.39 3.471.0 5.538-.936 2.067-.936 3.159-2.301 1.092-1.326 1.404-2.886.351-1.56.351-2.769z" /></g></g><g id="g134" transform="translate(562,406)"><g id="text138" style="font-variant:normal;font-weight:700;font-size:39px;font-family:HelveticaNeue;-inkscape-font-specification:HelveticaNeue-Bold;writing-mode:lr-tb;fill:#fff;fill-opacity:1;fill-rule:nonzero;stroke:none" transform="scale(1,-1)" aria-label="Optimization"><path id="path208" d="m7.605-13.806q0-1.833.39-3.549.429-1.716 1.326-3.042.897-1.365 2.34-2.145 1.443-.819 3.51-.819 2.067.0 3.51.819 1.443.78 2.34 2.145.897 1.326 1.287 3.042.429 1.716.429 3.549.0 1.755-.429 3.432-.39 1.638-1.287 2.964-.897 1.326-2.34 2.145-1.443.78-3.51.78-2.067.0-3.51-.78-1.443-.819-2.34-2.145-.897-1.326-1.326-2.964-.39-1.677-.39-3.432zm-6.123.0q0 3.042.936 5.694.936 2.613 2.691 4.563 1.755 1.95 4.29 3.081 2.574 1.092 5.772 1.092 3.237.0 5.772-1.092 2.535-1.131 4.29-3.081 1.755-1.95 2.691-4.563.936-2.652.936-5.694.0-3.12-.936-5.772-.936-2.691-2.691-4.68-1.755-1.989-4.29-3.12-2.535-1.131-5.772-1.131-3.198.0-5.772 1.131-2.535 1.131-4.29 3.12-1.755 1.989-2.691 4.68-.936 2.652-.936 5.772z" /><path id="path210" d="m42.626999-3.627q-1.326.0-2.262-.546-.936-.546-1.521-1.404-.546-.897-.819-2.067-.234-1.17-.234-2.379.0-1.248.234-2.418.234-1.17.78-2.067.585-.897 1.482-1.443.936-.585 2.301-.585 1.326.0 2.223.585.936.546 1.521 1.482.585.897.819 2.067.273 1.17.273 2.379.0 1.209-.234 2.379-.234 1.17-.819 2.067-.546.858-1.482 1.404-.897.546-2.262.546zm-10.179-16.536V7.059h5.538v-9.555h.078q1.014 1.482 2.574 2.262 1.599.741 3.471.741 2.223.0 3.861-.858 1.677-.858 2.769-2.301 1.131-1.443 1.677-3.315.546-1.872.546-3.9.0-2.145-.546-4.095-.546-1.989-1.677-3.471-1.131-1.482-2.847-2.379-1.716-.897-4.095-.897-1.872.0-3.432.741-1.56.741-2.574 2.379h-.078v-2.574z" /><path id="path212" d="m63.297001-20.163v-6.045h-5.538v6.045h-3.354v3.705h3.354v11.895q0 1.521.507 2.457.507.936 1.365 1.443.897.507 2.028.663 1.17.195 2.457.195.819.0 1.677-.039.858-.039 1.56-.156v-4.29q-.39.078-.819.117-.429.039-.897.039-1.404.0-1.872-.468-.468-.468-.468-1.872v-9.984h4.056v-3.705z" /><path id="path214" d="m75.699002-23.283v-4.563h-5.538v4.563zm-5.538 3.12V0h5.538v-20.163z" /><path id="path216" d="M80.222999-20.163V0h5.538v-11.7q0-1.482.429-2.379.429-.936 1.014-1.404.624-.507 1.248-.663.663-.195 1.053-.195 1.326.0 1.989.468.702.429.975 1.17.312.741.351 1.638.039.858.039 1.755V0h5.538v-11.232q0-.936.117-1.833.156-.936.546-1.638.429-.741 1.131001-1.17.741-.468 1.911-.468 1.17.0 1.833.39.702.39 1.053 1.053.351.663.429 1.56.078.897.078 1.911V0h5.538v-13.494q0-1.95-.546-3.315-.546-1.404-1.521-2.262-.975-.858-2.34-1.248-1.365-.39-2.964-.39-2.106.0-3.666001 1.014-1.521 1.014-2.418 2.34-.819-1.872-2.418-2.613-1.56-.741-3.471-.741-1.989.0-3.549.858-1.521.858-2.613 2.418h-.078v-2.73z" /><path id="path218" d="m121.095-23.283v-4.563h-5.538v4.563zm-5.538 3.12V0h5.538v-20.163z" /><path id="path220" d="M124.215-4.173V0h18.525v-4.173h-11.232l10.491-11.817v-4.173h-17.004v4.173h9.711z" /><path id="path222" d="m145.47001-13.962q.117-1.95.975-3.237.858-1.287 2.184-2.067 1.326-.78 2.964-1.092 1.677-.351 3.354-.351 1.521.0 3.081.234 1.56.195 2.847.819 1.287.624 2.106 1.755.819 1.092.819 2.925v10.491q0 1.365.156 2.613.156 1.248.546 1.872h-5.616q-.156-.468-.273-.936-.078-.507-.117-1.014-1.326 1.365-3.12 1.911-1.794.546-3.666.546-1.443.0-2.691-.351-1.248-.351-2.184-1.092-.936-.741-1.482-1.872-.507-1.131-.507-2.691.0-1.716.585-2.808.624-1.131 1.56-1.794.975-.663 2.184-.975 1.248-.351 2.496-.546 1.248-.195 2.457-.312 1.209-.117 2.145-.351.936-.234 1.482-.663.546-.468.507-1.326.0-.897-.312-1.404-.273-.546-.78-.819-.468-.312-1.131-.39-.624-.117-1.365-.117-1.638.0-2.574.702-.936.702-1.092 2.34zm12.792 4.095q-.351.312-.897.507-.507.156-1.131.273-.585.117-1.248.195-.663.078-1.326.195-.624.117-1.248.312-.585.195-1.053.546-.429.312-.702.819-.273.507-.273 1.287.0.741.273 1.248.273.507.741.819.468.273 1.092.39.624.117 1.287.117 1.638.0 2.535-.546.897-.546 1.326-1.287.429-.78.507-1.56.117-.78.117-1.248z" /><path id="path224" d="m175.10999-20.163v-6.045h-5.538v6.045h-3.354v3.705h3.354v11.895q0 1.521.507 2.457.507.936 1.365 1.443.897.507 2.028.663 1.17.195 2.457.195.819.0 1.677-.039.858-.039 1.56-.156v-4.29q-.39.078-.819.117-.429.039-.897.039-1.404.0-1.872-.468-.468-.468-.468-1.872v-9.984h4.056v-3.705z" /><path id="path226" d="m187.51201-23.283v-4.563h-5.538v4.563zm-5.538 3.12V0h5.538v-20.163z" /><path id="path228" d="m196.794-10.062q0-1.209.234-2.379.234-1.17.78-2.067.585-.897 1.521-1.443.936-.585 2.34-.585 1.404.0 2.34.585.975.546 1.521 1.443.585.897.819 2.067.234 1.17.234 2.379.0 1.209-.234 2.379-.234 1.131-.819 2.067-.546.897-1.521 1.443-.936.546-2.34.546-1.404.0-2.34-.546-.936-.546-1.521-1.443-.546-.936-.78-2.067-.234-1.17-.234-2.379zm-5.538.0q0 2.418.741 4.368.741 1.95 2.106 3.354 1.365 1.365 3.276 2.106 1.911.741 4.29.741 2.379.0 4.29-.741 1.95-.741 3.315-2.106 1.365-1.404 2.106-3.354.741-1.95.741-4.368.0-2.418-.741-4.368-.741-1.989-2.106-3.354-1.365-1.404-3.315-2.145-1.911-.78-4.29-.78-2.379.0-4.29.78-1.911.741-3.276 2.145-1.365 1.365-2.106 3.354-.741 1.95-.741 4.368z" /><path id="path230" d="M215.709-20.163V0h5.538v-10.569q0-3.081 1.014-4.407 1.014-1.365 3.276-1.365 1.989.0 2.769 1.248.78 1.209.78 3.705V0h5.538v-12.402q0-1.872-.351-3.393-.312-1.56-1.131-2.613-.819-1.092-2.262-1.677-1.404-.624-3.627-.624-1.755.0-3.432.819-1.677.78-2.73 2.535h-.117v-2.808z" /></g></g><path d="M111.1306 282.1943H514.4135V216.6436H111.1306z" style="fill:#f8ba00;fill-opacity:1;fill-rule:nonzero;stroke:none" id="path140" /></g></g><g id="g142"><g id="g144" clip-path="url(#clipPath148)"><g id="g150" transform="translate(215,230)"><g id="text154" style="font-variant:normal;font-weight:400;font-size:52px;font-family:EnvyCodeR;-inkscape-font-specification:EnvyCodeR;writing-mode:lr-tb;fill:#000;fill-opacity:1;fill-rule:nonzero;stroke:none" transform="scale(1,-1)" aria-label="LLVM IR"><path id="path233" d="M4.0117187-36.105469H8.0234375V-4.0117187H24.070312V0H4.0117187z" /><path id="path235" d="m31.940918-36.105469h4.011719V-4.0117187H51.999512V0H31.940918z" /><path id="path237" d="m63.881836-36.105469 6.017578 26.4062502 6.017578-26.4062502h4.011719L71.905273.0h-4.011718l-8.023438-36.105469z" /><path id="path239" d="m103.84619-28.082031-6.017577 10.511719-6.017578-10.511719V0h-4.011719v-36.105469h4.011719l6.017578 12.035157 6.017577-12.035157h4.01172V0h-4.01172z" /><path id="path241" d="m143.65771-4.0117187h8.02344V-32.09375h-8.02344v-4.011719h20.0586v4.011719h-8.02344v28.0820313h8.02344V0h-20.0586z" /><path id="path243" d="M183.90137-16.300781Q191.82324-.07617187 191.82324.0h-4.5957q-7.82031-15.970703-7.82031-16.046875h-3.8086V0h-4.01172v-36.105469h10.0293q2.08203.0 3.91016.78711 1.82812.787109 3.17383 2.158203 1.37109 1.345703 2.1582 3.173828.78711 1.828125.78711 3.910156.0 1.777344-.58399 3.376953-.58398 1.59961-1.625 2.894532-1.04101 1.294921-2.46289 2.208984-1.42187.914062-3.07226 1.294922zm-2.28516-3.757813q1.24414.0 2.33594-.457031 1.0918-.482422 1.9043-1.294922.83789-.83789 1.29492-1.929687.48242-1.091797.48242-2.335938.0-1.24414-.48242-2.335937-.45703-1.091797-1.29492-1.904297-.8125-.837891-1.9043-1.294922-1.0918-.482422-2.33594-.482422h-6.01758v12.035156z" /></g></g></g></g><g id="g156"><g id="g158" clip-path="url(#clipPath162)"><g id="g164" transform="matrix(0,-1,-1,0,312.772,342.9331)"><path d="m0 0h15.23775 5.5" style="fill:none;stroke:#ee220c;stroke-width:11;stroke-linecap:butt;stroke-linejoin:miter;stroke-miterlimit:4;stroke-dasharray:none;stroke-opacity:1" id="path166" /></g><path d="m291.772 327.6953 21-42 21 42z" style="fill:#ee220c;fill-opacity:1;fill-rule:nonzero;stroke:none" id="path168" /><g id="g170" transform="translate(562,300)"><g id="text174" style="font-variant:normal;font-weight:700;font-size:39px;font-family:HelveticaNeue;-inkscape-font-specification:HelveticaNeue-Bold;writing-mode:lr-tb;fill:#fff;fill-opacity:1;fill-rule:nonzero;stroke:none" transform="scale(1,-1)" aria-label="Optimization"><path id="path246" d="m7.605-13.806q0-1.833.39-3.549.429-1.716 1.326-3.042.897-1.365 2.34-2.145 1.443-.819 3.51-.819 2.067.0 3.51.819 1.443.78 2.34 2.145.897 1.326 1.287 3.042.429 1.716.429 3.549.0 1.755-.429 3.432-.39 1.638-1.287 2.964-.897 1.326-2.34 2.145-1.443.78-3.51.78-2.067.0-3.51-.78-1.443-.819-2.34-2.145-.897-1.326-1.326-2.964-.39-1.677-.39-3.432zm-6.123.0q0 3.042.936 5.694.936 2.613 2.691 4.563 1.755 1.95 4.29 3.081 2.574 1.092 5.772 1.092 3.237.0 5.772-1.092 2.535-1.131 4.29-3.081 1.755-1.95 2.691-4.563.936-2.652.936-5.694.0-3.12-.936-5.772-.936-2.691-2.691-4.68-1.755-1.989-4.29-3.12-2.535-1.131-5.772-1.131-3.198.0-5.772 1.131-2.535 1.131-4.29 3.12-1.755 1.989-2.691 4.68-.936 2.652-.936 5.772z" /><path id="path248" d="m42.626999-3.627q-1.326.0-2.262-.546-.936-.546-1.521-1.404-.546-.897-.819-2.067-.234-1.17-.234-2.379.0-1.248.234-2.418.234-1.17.78-2.067.585-.897 1.482-1.443.936-.585 2.301-.585 1.326.0 2.223.585.936.546 1.521 1.482.585.897.819 2.067.273 1.17.273 2.379.0 1.209-.234 2.379-.234 1.17-.819 2.067-.546.858-1.482 1.404-.897.546-2.262.546zm-10.179-16.536V7.059h5.538v-9.555h.078q1.014 1.482 2.574 2.262 1.599.741 3.471.741 2.223.0 3.861-.858 1.677-.858 2.769-2.301 1.131-1.443 1.677-3.315.546-1.872.546-3.9.0-2.145-.546-4.095-.546-1.989-1.677-3.471-1.131-1.482-2.847-2.379-1.716-.897-4.095-.897-1.872.0-3.432.741-1.56.741-2.574 2.379h-.078v-2.574z" /><path id="path250" d="m63.297001-20.163v-6.045h-5.538v6.045h-3.354v3.705h3.354v11.895q0 1.521.507 2.457.507.936 1.365 1.443.897.507 2.028.663 1.17.195 2.457.195.819.0 1.677-.039.858-.039 1.56-.156v-4.29q-.39.078-.819.117-.429.039-.897.039-1.404.0-1.872-.468-.468-.468-.468-1.872v-9.984h4.056v-3.705z" /><path id="path252" d="m75.699002-23.283v-4.563h-5.538v4.563zm-5.538 3.12V0h5.538v-20.163z" /><path id="path254" d="M80.222999-20.163V0h5.538v-11.7q0-1.482.429-2.379.429-.936 1.014-1.404.624-.507 1.248-.663.663-.195 1.053-.195 1.326.0 1.989.468.702.429.975 1.17.312.741.351 1.638.039.858.039 1.755V0h5.538v-11.232q0-.936.117-1.833.156-.936.546-1.638.429-.741 1.131001-1.17.741-.468 1.911-.468 1.17.0 1.833.39.702.39 1.053 1.053.351.663.429 1.56.078.897.078 1.911V0h5.538v-13.494q0-1.95-.546-3.315-.546-1.404-1.521-2.262-.975-.858-2.34-1.248-1.365-.39-2.964-.39-2.106.0-3.666001 1.014-1.521 1.014-2.418 2.34-.819-1.872-2.418-2.613-1.56-.741-3.471-.741-1.989.0-3.549.858-1.521.858-2.613 2.418h-.078v-2.73z" /><path id="path256" d="m121.095-23.283v-4.563h-5.538v4.563zm-5.538 3.12V0h5.538v-20.163z" /><path id="path258" d="M124.215-4.173V0h18.525v-4.173h-11.232l10.491-11.817v-4.173h-17.004v4.173h9.711z" /><path id="path260" d="m145.47001-13.962q.117-1.95.975-3.237.858-1.287 2.184-2.067 1.326-.78 2.964-1.092 1.677-.351 3.354-.351 1.521.0 3.081.234 1.56.195 2.847.819 1.287.624 2.106 1.755.819 1.092.819 2.925v10.491q0 1.365.156 2.613.156 1.248.546 1.872h-5.616q-.156-.468-.273-.936-.078-.507-.117-1.014-1.326 1.365-3.12 1.911-1.794.546-3.666.546-1.443.0-2.691-.351-1.248-.351-2.184-1.092-.936-.741-1.482-1.872-.507-1.131-.507-2.691.0-1.716.585-2.808.624-1.131 1.56-1.794.975-.663 2.184-.975 1.248-.351 2.496-.546 1.248-.195 2.457-.312 1.209-.117 2.145-.351.936-.234 1.482-.663.546-.468.507-1.326.0-.897-.312-1.404-.273-.546-.78-.819-.468-.312-1.131-.39-.624-.117-1.365-.117-1.638.0-2.574.702-.936.702-1.092 2.34zm12.792 4.095q-.351.312-.897.507-.507.156-1.131.273-.585.117-1.248.195-.663.078-1.326.195-.624.117-1.248.312-.585.195-1.053.546-.429.312-.702.819-.273.507-.273 1.287.0.741.273 1.248.273.507.741.819.468.273 1.092.39.624.117 1.287.117 1.638.0 2.535-.546.897-.546 1.326-1.287.429-.78.507-1.56.117-.78.117-1.248z" /><path id="path262" d="m175.10999-20.163v-6.045h-5.538v6.045h-3.354v3.705h3.354v11.895q0 1.521.507 2.457.507.936 1.365 1.443.897.507 2.028.663 1.17.195 2.457.195.819.0 1.677-.039.858-.039 1.56-.156v-4.29q-.39.078-.819.117-.429.039-.897.039-1.404.0-1.872-.468-.468-.468-.468-1.872v-9.984h4.056v-3.705z" /><path id="path264" d="m187.51201-23.283v-4.563h-5.538v4.563zm-5.538 3.12V0h5.538v-20.163z" /><path id="path266" d="m196.794-10.062q0-1.209.234-2.379.234-1.17.78-2.067.585-.897 1.521-1.443.936-.585 2.34-.585 1.404.0 2.34.585.975.546 1.521 1.443.585.897.819 2.067.234 1.17.234 2.379.0 1.209-.234 2.379-.234 1.131-.819 2.067-.546.897-1.521 1.443-.936.546-2.34.546-1.404.0-2.34-.546-.936-.546-1.521-1.443-.546-.936-.78-2.067-.234-1.17-.234-2.379zm-5.538.0q0 2.418.741 4.368.741 1.95 2.106 3.354 1.365 1.365 3.276 2.106 1.911.741 4.29.741 2.379.0 4.29-.741 1.95-.741 3.315-2.106 1.365-1.404 2.106-3.354.741-1.95.741-4.368.0-2.418-.741-4.368-.741-1.989-2.106-3.354-1.365-1.404-3.315-2.145-1.911-.78-4.29-.78-2.379.0-4.29.78-1.911.741-3.276 2.145-1.365 1.365-2.106 3.354-.741 1.95-.741 4.368z" /><path id="path268" d="M215.709-20.163V0h5.538v-10.569q0-3.081 1.014-4.407 1.014-1.365 3.276-1.365 1.989.0 2.769 1.248.78 1.209.78 3.705V0h5.538v-12.402q0-1.872-.351-3.393-.312-1.56-1.131-2.613-.819-1.092-2.262-1.677-1.404-.624-3.627-.624-1.755.0-3.432.819-1.677.78-2.73 2.535h-.117v-2.808z" /></g></g><path d="M111.1306 152.4038H514.4135V86.85302H111.1306z" style="fill:#f8ba00;fill-opacity:1;fill-rule:nonzero;stroke:none" id="path176" /></g></g><g id="g178"><g id="g180" clip-path="url(#clipPath184)"><g id="g186" transform="translate(145,100)"><g id="text190" style="font-variant:normal;font-weight:400;font-size:52px;font-family:EnvyCodeR;-inkscape-font-specification:EnvyCodeR;writing-mode:lr-tb;fill:#000;fill-opacity:1;fill-rule:nonzero;stroke:none" transform="scale(1,-1)" aria-label="MACHINE CODE"><path id="path271" d="M20.058594-28.082031 14.041016-17.570312 8.0234375-28.082031V0H4.0117187v-36.105469h4.0117188l6.0175785 12.035157 6.017578-12.035157h4.011718V0h-4.011718z" /><path id="path273" d="m31.940918-26.076172q0-2.082031.787109-3.910156.78711-1.828125 2.132813-3.173828 1.371094-1.371094 3.199219-2.158203 1.828125-.78711 3.910156-.78711 2.082031.0 3.910156.78711 1.828125.787109 3.173828 2.158203 1.371094 1.345703 2.158203 3.173828.78711 1.828125.78711 3.910156V0H47.987793V-16.046875H35.952637V0h-4.011719zm16.046875 6.017578v-6.017578q0-1.24414-.482422-2.335937-.457031-1.091797-1.294922-1.904297-.8125-.837891-1.904297-1.294922-1.091797-.482422-2.335937-.482422-1.244141.0-2.335938.482422-1.091797.457031-1.929687 1.294922-.8125.8125-1.294922 1.904297-.457031 1.091797-.457031 2.335937v6.017578z" /><path id="path275" d="m69.975586-32.09375q-1.294922.0-2.412109.482422-1.117188.457031-1.929688 1.294922-.8125.8125-1.294922 1.904297-.457031 1.091797-.457031 2.335937v16.046875q0 1.2441407.457031 2.3359376.482422 1.0917969 1.294922 1.9296875.8125.8125 1.929688 1.2949219 1.117187.4570313 2.412109.4570313 1.066406.0 2.005859-.2792969.939453-.3046875 1.701172-.8378906.78711-.5332032 1.345703-1.2695313.583985-.7363281.888672-1.625h4.011719Q79.573242-6.296875 78.68457-4.8242187 77.795898-3.3515625 76.475586-2.2851563 75.180664-1.21875 73.530273-.609375 71.879883.0 69.975586.0 67.842773.0 65.989258-.78710937 64.161133-1.5742187 62.790039-2.9199219 61.418945-4.2910156 60.631836-6.1191406 59.870117-7.9472656 59.870117-10.029297v-16.046875q0-2.082031.761719-3.910156.787109-1.828125 2.158203-3.173828 1.371094-1.371094 3.199219-2.158203 1.853515-.78711 3.986328-.78711 1.904297.0 3.554687.609375 1.675782.609375 2.970704 1.701172 1.294921 1.066406 2.183593 2.539063.888672 1.472656 1.244141 3.173828h-4.011719q-.304687-.863281-.888672-1.59961-.558593-.736328-1.320312-1.269531-.761719-.533203-1.726563-.83789-.939453-.304688-2.005859-.304688z" /><path id="path277" d="m87.799316-36.105469h4.011719v16.046875h12.035155v-16.046875h4.01172V0h-4.01172V-16.046875H91.811035V0h-4.011719z" /><path id="path279" d="m115.72852-4.0117187h8.02343V-32.09375h-8.02343v-4.011719h20.05859v4.011719h-8.02344v28.0820313h8.02344V0h-20.05859z" /><path id="path281" d="m143.65771.0v-36.105469h4.01172l12.03516 26.7109377V-36.105469h4.01172V0h-4.01172L147.66943-26.710937V0z" /><path id="path283" d="m171.58691-36.105469h20.0586v4.011719h-16.04688v12.035156h12.03516v4.011719h-12.03516v12.0351563h16.04688V0h-20.0586z" /><path id="path285" d="m237.55078-32.09375q-1.29492.0-2.41211.482422-1.11719.457031-1.92969 1.294922-.8125.8125-1.29492 1.904297-.45703 1.091797-.45703 2.335937v16.046875q0 1.2441407.45703 2.3359376.48242 1.0917969 1.29492 1.9296875.8125.8125 1.92969 1.2949219 1.11719.4570313 2.41211.4570313 1.06641.0 2.00586-.2792969.93945-.3046875 1.70117-.8378906.78711-.5332032 1.34571-1.2695313.58398-.7363281.88867-1.625h4.01172q-.35547 1.7265625-1.24414 3.1992188-.88868 1.4726562-2.20899 2.5390624-1.29492 1.0664063-2.94531 1.6757813Q239.45508.0 237.55078.0q-2.13281.0-3.98633-.78710937-1.82812-.78710933-3.19922-2.13281253-1.37109-1.3710937-2.1582-3.1992187-.76172-1.828125-.76172-3.9101564v-16.046875q0-2.082031.76172-3.910156.78711-1.828125 2.1582-3.173828 1.3711-1.371094 3.19922-2.158203 1.85352-.78711 3.98633-.78711 1.9043.0 3.55469.609375 1.67578.609375 2.9707 1.701172 1.29492 1.066406 2.1836 2.539063.88867 1.472656 1.24414 3.173828h-4.01172q-.30469-.863281-.88867-1.59961-.5586-.736328-1.32032-1.269531-.76172-.533203-1.72656-.83789-.93945-.304688-2.00586-.304688z" /><path id="path287" d="m255.37451-26.076172q0-2.082031.78711-3.910156.78711-1.828125 2.13281-3.173828 1.3711-1.371094 3.19922-2.158203 1.82813-.78711 3.91016-.78711 2.08203.0 3.91015.78711 1.82813.787109 3.17383 2.158203 1.3711 1.345703 2.15821 3.173828.78711 1.828125.78711 3.910156v16.046875q0 2.0820314-.78711 3.9101564-.78711 1.828125-2.15821 3.1992187-1.3457 1.3457032-3.17383 2.13281253Q267.48584.0 265.40381.0q-2.08203.0-3.91016-.78710937-1.82812-.78710933-3.19922-2.13281253-1.3457-1.3710937-2.13281-3.1992187-.78711-1.828125-.78711-3.9101564zm10.0293-6.017578q-1.24414.0-2.33594.482422-1.0918.457031-1.92969 1.294922-.8125.8125-1.29492 1.904297-.45703 1.091797-.45703 2.335937v16.046875q0 1.2441407.45703 2.3359376.48242 1.0917969 1.29492 1.9296875.83789.8125 1.92969 1.2949219 1.0918.4570313 2.33594.4570313 1.24414.0 2.33594-.4570313 1.09179-.4824219 1.90429-1.2949219.83789-.8378906 1.29492-1.9296875.48243-1.0917969.48243-2.3359376v-16.046875q0-1.24414-.48243-2.335937-.45703-1.091797-1.29492-1.904297-.8125-.837891-1.90429-1.294922-1.0918-.482422-2.33594-.482422z" /><path id="path289" d="m283.30371-36.105469h10.0293q2.08203.0 3.91015.78711 1.82813.787109 3.17383 2.158203 1.3711 1.345703 2.15821 3.173828.7871 1.828125.7871 3.910156v16.046875q0 2.0820314-.7871 3.9101564-.78711 1.828125-2.15821 3.1992187-1.3457 1.3457032-3.17383 2.13281253Q295.41504.0 293.33301.0h-10.0293zm10.0293 32.0937503q1.24414.0 2.33594-.4570313 1.09179-.4824219 1.90429-1.2949219.83789-.8378906 1.29492-1.9296875.48243-1.0917969.48243-2.3359376v-16.046875q0-1.24414-.48243-2.335937-.45703-1.091797-1.29492-1.904297-.8125-.837891-1.90429-1.294922-1.0918-.482422-2.33594-.482422h-6.01758v28.0820313z" /><path id="path291" d="m311.23291-36.105469h20.05859v4.011719h-16.04687v12.035156h12.03516v4.011719H315.24463V-4.0117187H331.2915V0h-20.05859z" /></g></g></g></g><g id="g192"><g id="g194" clip-path="url(#clipPath198)"><g id="g200" transform="matrix(0,-1,-1,0,312.772,213.1425)"><path d="m0 0h15.23775 5.5" style="fill:none;stroke:#ee220c;stroke-width:11;stroke-linecap:butt;stroke-linejoin:miter;stroke-miterlimit:4;stroke-dasharray:none;stroke-opacity:1" id="path202" /></g><path d="m291.772 197.9048 21-42 21 42z" style="fill:#ee220c;fill-opacity:1;fill-rule:nonzero;stroke:none" id="path204" /><g id="g206" transform="translate(562,170)"><g id="text210" style="font-variant:normal;font-weight:700;font-size:39px;font-family:HelveticaNeue;-inkscape-font-specification:HelveticaNeue-Bold;writing-mode:lr-tb;fill:#fff;fill-opacity:1;fill-rule:nonzero;stroke:none" transform="scale(1,-1)" aria-label="Optimization"><path id="path294" d="m7.605-13.806q0-1.833.39-3.549.429-1.716 1.326-3.042.897-1.365 2.34-2.145 1.443-.819 3.51-.819 2.067.0 3.51.819 1.443.78 2.34 2.145.897 1.326 1.287 3.042.429 1.716.429 3.549.0 1.755-.429 3.432-.39 1.638-1.287 2.964-.897 1.326-2.34 2.145-1.443.78-3.51.78-2.067.0-3.51-.78-1.443-.819-2.34-2.145-.897-1.326-1.326-2.964-.39-1.677-.39-3.432zm-6.123.0q0 3.042.936 5.694.936 2.613 2.691 4.563 1.755 1.95 4.29 3.081 2.574 1.092 5.772 1.092 3.237.0 5.772-1.092 2.535-1.131 4.29-3.081 1.755-1.95 2.691-4.563.936-2.652.936-5.694.0-3.12-.936-5.772-.936-2.691-2.691-4.68-1.755-1.989-4.29-3.12-2.535-1.131-5.772-1.131-3.198.0-5.772 1.131-2.535 1.131-4.29 3.12-1.755 1.989-2.691 4.68-.936 2.652-.936 5.772z" /><path id="path296" d="m42.626999-3.627q-1.326.0-2.262-.546-.936-.546-1.521-1.404-.546-.897-.819-2.067-.234-1.17-.234-2.379.0-1.248.234-2.418.234-1.17.78-2.067.585-.897 1.482-1.443.936-.585 2.301-.585 1.326.0 2.223.585.936.546 1.521 1.482.585.897.819 2.067.273 1.17.273 2.379.0 1.209-.234 2.379-.234 1.17-.819 2.067-.546.858-1.482 1.404-.897.546-2.262.546zm-10.179-16.536V7.059h5.538v-9.555h.078q1.014 1.482 2.574 2.262 1.599.741 3.471.741 2.223.0 3.861-.858 1.677-.858 2.769-2.301 1.131-1.443 1.677-3.315.546-1.872.546-3.9.0-2.145-.546-4.095-.546-1.989-1.677-3.471-1.131-1.482-2.847-2.379-1.716-.897-4.095-.897-1.872.0-3.432.741-1.56.741-2.574 2.379h-.078v-2.574z" /><path id="path298" d="m63.297001-20.163v-6.045h-5.538v6.045h-3.354v3.705h3.354v11.895q0 1.521.507 2.457.507.936 1.365 1.443.897.507 2.028.663 1.17.195 2.457.195.819.0 1.677-.039.858-.039 1.56-.156v-4.29q-.39.078-.819.117-.429.039-.897.039-1.404.0-1.872-.468-.468-.468-.468-1.872v-9.984h4.056v-3.705z" /><path id="path300" d="m75.699002-23.283v-4.563h-5.538v4.563zm-5.538 3.12V0h5.538v-20.163z" /><path id="path302" d="M80.222999-20.163V0h5.538v-11.7q0-1.482.429-2.379.429-.936 1.014-1.404.624-.507 1.248-.663.663-.195 1.053-.195 1.326.0 1.989.468.702.429.975 1.17.312.741.351 1.638.039.858.039 1.755V0h5.538v-11.232q0-.936.117-1.833.156-.936.546-1.638.429-.741 1.131001-1.17.741-.468 1.911-.468 1.17.0 1.833.39.702.39 1.053 1.053.351.663.429 1.56.078.897.078 1.911V0h5.538v-13.494q0-1.95-.546-3.315-.546-1.404-1.521-2.262-.975-.858-2.34-1.248-1.365-.39-2.964-.39-2.106.0-3.666001 1.014-1.521 1.014-2.418 2.34-.819-1.872-2.418-2.613-1.56-.741-3.471-.741-1.989.0-3.549.858-1.521.858-2.613 2.418h-.078v-2.73z" /><path id="path304" d="m121.095-23.283v-4.563h-5.538v4.563zm-5.538 3.12V0h5.538v-20.163z" /><path id="path306" d="M124.215-4.173V0h18.525v-4.173h-11.232l10.491-11.817v-4.173h-17.004v4.173h9.711z" /><path id="path308" d="m145.47001-13.962q.117-1.95.975-3.237.858-1.287 2.184-2.067 1.326-.78 2.964-1.092 1.677-.351 3.354-.351 1.521.0 3.081.234 1.56.195 2.847.819 1.287.624 2.106 1.755.819 1.092.819 2.925v10.491q0 1.365.156 2.613.156 1.248.546 1.872h-5.616q-.156-.468-.273-.936-.078-.507-.117-1.014-1.326 1.365-3.12 1.911-1.794.546-3.666.546-1.443.0-2.691-.351-1.248-.351-2.184-1.092-.936-.741-1.482-1.872-.507-1.131-.507-2.691.0-1.716.585-2.808.624-1.131 1.56-1.794.975-.663 2.184-.975 1.248-.351 2.496-.546 1.248-.195 2.457-.312 1.209-.117 2.145-.351.936-.234 1.482-.663.546-.468.507-1.326.0-.897-.312-1.404-.273-.546-.78-.819-.468-.312-1.131-.39-.624-.117-1.365-.117-1.638.0-2.574.702-.936.702-1.092 2.34zm12.792 4.095q-.351.312-.897.507-.507.156-1.131.273-.585.117-1.248.195-.663.078-1.326.195-.624.117-1.248.312-.585.195-1.053.546-.429.312-.702.819-.273.507-.273 1.287.0.741.273 1.248.273.507.741.819.468.273 1.092.39.624.117 1.287.117 1.638.0 2.535-.546.897-.546 1.326-1.287.429-.78.507-1.56.117-.78.117-1.248z" /><path id="path310" d="m175.10999-20.163v-6.045h-5.538v6.045h-3.354v3.705h3.354v11.895q0 1.521.507 2.457.507.936 1.365 1.443.897.507 2.028.663 1.17.195 2.457.195.819.0 1.677-.039.858-.039 1.56-.156v-4.29q-.39.078-.819.117-.429.039-.897.039-1.404.0-1.872-.468-.468-.468-.468-1.872v-9.984h4.056v-3.705z" /><path id="path312" d="m187.51201-23.283v-4.563h-5.538v4.563zm-5.538 3.12V0h5.538v-20.163z" /><path id="path314" d="m196.794-10.062q0-1.209.234-2.379.234-1.17.78-2.067.585-.897 1.521-1.443.936-.585 2.34-.585 1.404.0 2.34.585.975.546 1.521 1.443.585.897.819 2.067.234 1.17.234 2.379.0 1.209-.234 2.379-.234 1.131-.819 2.067-.546.897-1.521 1.443-.936.546-2.34.546-1.404.0-2.34-.546-.936-.546-1.521-1.443-.546-.936-.78-2.067-.234-1.17-.234-2.379zm-5.538.0q0 2.418.741 4.368.741 1.95 2.106 3.354 1.365 1.365 3.276 2.106 1.911.741 4.29.741 2.379.0 4.29-.741 1.95-.741 3.315-2.106 1.365-1.404 2.106-3.354.741-1.95.741-4.368.0-2.418-.741-4.368-.741-1.989-2.106-3.354-1.365-1.404-3.315-2.145-1.911-.78-4.29-.78-2.379.0-4.29.78-1.911.741-3.276 2.145-1.365 1.365-2.106 3.354-.741 1.95-.741 4.368z" /><path id="path316" d="M215.709-20.163V0h5.538v-10.569q0-3.081 1.014-4.407 1.014-1.365 3.276-1.365 1.989.0 2.769 1.248.78 1.209.78 3.705V0h5.538v-12.402q0-1.872-.351-3.393-.312-1.56-1.131-2.613-.819-1.092-2.262-1.677-1.404-.624-3.627-.624-1.755.0-3.432.819-1.677.78-2.73 2.535h-.117v-2.808z" /></g></g></g></g></g></svg>