<svg viewBox="0 0 1232 563" xmlns="http://www.w3.org/2000/svg" xmlns:xlink="http://www.w3.org/1999/xlink" style="fill-rule:evenodd;clip-rule:evenodd;stroke-linejoin:round;stroke-miterlimit:1.41421"><path d="M31.746 97.114h1199.38v20.19H31.746z" style="fill:#bdbec0;fill-rule:nonzero"/><path d="M187.769 132.167c-.573.0-1.036-.463-1.036-1.035v-11.116c0-.495.353-.921.838-1.016.423-.083 10.366-2.156 10.366-12.788.0-8.157-9.14-10.091-12.27-10.51v.829c0 .572-.464 1.036-1.036 1.036-.573.0-1.036-.464-1.036-1.036v-1.972c0-.572.463-1.036 1.036-1.036.154.0 15.378.946 15.378 12.689.0 10.421-8.468 13.787-11.205 14.603v10.317c0 .572-.463 1.035-1.035 1.035z" style="fill:#58595c;fill-rule:nonzero"/><path d="M160.651 136.078h54.234l-27.117 32.064-27.117-32.064z" style="fill:#0d5166;fill-rule:nonzero"/><path d="M327.687 254.17l-38.39-68.939c-2.867-5.735-7.605-10.32-13.431-12.998l-52.718-24.23-30.558 35.413-4.822-15.274-4.817 15.279-30.563-35.418-52.718 24.23c-5.826 2.678-10.563 7.263-13.431 12.998l-38.39 68.939 47.042 25.933 14.474-26.536-13.268 154.393c0 0 39.202 13.268 91.671 13.268 52.47.0 91.671-13.268 91.671-13.268l-13.268-154.393 14.474 26.536 47.042-25.933z" style="fill:#0b5b79;fill-rule:nonzero"/><path d="M86.239 185.231l-38.39 68.939 47.042 25.933 14.474-26.536c5.958-35.801-9.695-81.334-9.695-81.334-5.825 2.678-10.563 7.263-13.431 12.998z" style="fill:#40a4bc;fill-rule:nonzero"/><path d="M289.297 185.231l38.39 68.939-47.042 25.933-14.474-26.536c-5.958-35.801 9.695-81.334 9.695-81.334 5.826 2.678 10.564 7.263 13.431 12.998z" style="fill:#40a4bc;fill-rule:nonzero"/><path d="M181.823 421.165c1.964.038 3.941.063 5.945.063 2.004.0 3.982-.025 5.946-.063v-239.051l-5.946-13.972-5.945 13.972v239.051z" style="fill:#40a4bc;fill-rule:nonzero"/><path d="M193.714 183.416l29.434-35.413-8.263-11.925-27.117 32.064 5.946 15.274z" style="fill:#084251;fill-rule:nonzero"/><path d="M181.823 183.416l5.945-15.274-27.117-32.064-8.263 11.925 29.435 35.413z" style="fill:#084251;fill-rule:nonzero"/><path d="M209.054 142.973l2.776-3.282-22.813-10.549c-.549-.254-1.179-.257-1.727-.005l-23.482 10.673 2.779 3.287 21.553-9.795 20.914 9.671z" style="fill:#58595c;fill-rule:nonzero"/><path d="M346.977 132.166c-.572.0-1.036-.463-1.036-1.035v-11.116c0-.495.353-.921.839-1.016.423-.083 10.366-2.155 10.366-12.787.0-8.157-9.139-10.091-12.27-10.51v.829c0 .572-.463 1.036-1.036 1.036-.572.0-1.036-.464-1.036-1.036v-1.972c0-.572.464-1.036 1.036-1.036.154.0 15.378.946 15.378 12.689.0 10.421-8.469 13.787-11.205 14.602v10.317c0 .572-.463 1.035-1.036 1.035z" style="fill:#58595c;fill-rule:nonzero"/><path d="M264.887 148.901h164.181l-10.431 25.682-143.319 8.986-10.431-34.668z" style="fill:#897e72;fill-rule:nonzero"/><path d="M429.068 148.901l-17.432 3.709c-42.629 9.07-86.688 9.07-129.317.0l-17.432-3.709-35.805 201.733 87.33 11.353 30.566-94.317 30.565 94.317 87.33-11.353-35.805-201.733z" style="fill:#aa9e93;fill-rule:nonzero"/><path d="M278.148 169.907l1.669-17.829-14.93-3.177-9.95 56.059c0 0 19.041-17.756 23.211-35.053z" style="fill:#776f67;fill-rule:nonzero"/><path d="M415.807 169.907l-1.669-17.829 14.93-3.177 9.95 56.059c0 0-19.04-17.756-23.211-35.053z" style="fill:#776f67;fill-rule:nonzero"/><path d="M278.148 169.907c45.379 9.655 92.28 9.655 137.659.0l16.371-3.483-3.11-17.523-17.432 3.709c-42.629 9.07-86.688 9.07-129.317.0l-17.432-3.709-3.11 17.523 16.371 3.483z" style="fill:#414043;fill-rule:nonzero"/><path d="M321.145 347.383l-89.302-12.308-2.761 15.559 87.33 11.353 5.143-15.871-.41 1.267z" style="fill:#414043;fill-rule:nonzero"/><path d="M372.81 347.383l89.302-12.308 2.761 15.559-87.33 11.353-5.143-15.871.41 1.267z" style="fill:#414043;fill-rule:nonzero"/><path d="M358.675 240.647c-.955.0-1.798-.696-1.952-1.672-.221-1.417-5.463-34.834-6.449-46.153-.603-6.933-2.485-13.752-3.8-17.848-2.447 4.457-6.332 13.095-7.6 24.816-1.967 18.188-3.429 25.599-3.49 25.906-.217 1.075-1.272 1.769-2.328 1.552-1.074-.214-1.766-1.256-1.554-2.329.016-.073 1.493-7.586 3.437-25.554 2.014-18.629 10.105-29.701 10.449-30.163.429-.576 1.121-.881 1.852-.781.711.095 1.314.569 1.581 1.237.178.457 4.395 11.286 5.396 22.82.975 11.183 6.364 45.536 6.418 45.882.17 1.081-.569 2.093-1.651 2.264-.101.015-.205.023-.309.023z" style="fill:#414043;fill-rule:nonzero"/><path d="M337.736 225.308c0 2.37-1.922 4.292-4.293 4.292-2.371.0-4.292-1.922-4.292-4.292.0-2.371 1.921-4.293 4.292-4.293 2.371.0 4.293 1.922 4.293 4.293z" style="fill:#414043;fill-rule:nonzero"/><path d="M363.033 238.731c0 2.371-1.922 4.292-4.292 4.292-2.371.0-4.293-1.921-4.293-4.292.0-2.371 1.922-4.292 4.293-4.292 2.37.0 4.292 1.921 4.292 4.292z" style="fill:#414043;fill-rule:nonzero"/><path d="M298.493 155.604l48.748-22.194 48.19 22.199c1.882-.297 3.759-.633 5.637-.965-.116-.643-.497-1.229-1.135-1.523l-51.82-23.872c-.548-.252-1.177-.256-1.726-.004l-52.431 23.872c-.639.291-1.023.874-1.141 1.515 1.891.335 3.782.673 5.678.972z" style="fill:#58595c;fill-rule:nonzero"/><path d="M465.916 154.173c-.789.0-1.547-.438-1.918-1.195-.516-1.058-.079-2.335.979-2.852l38.874-19.028c.596-.295 1.293-.291 1.885.005l38.321 19.028c1.057.524 1.487 1.803.963 2.858-.525 1.055-1.806 1.489-2.857.961l-37.381-18.56-37.931 18.566c-.302.147-.62.217-.935.217z" style="fill:#58595c;fill-rule:nonzero"/><path d="M504.511 134.079c-.589.0-1.066-.477-1.066-1.066v-11.441c0-.511.362-.949.862-1.047.437-.085 10.673-2.219 10.673-13.162.0-8.396-9.409-10.388-12.631-10.819v.854c0 .589-.476 1.066-1.066 1.066-.589.0-1.066-.477-1.066-1.066v-2.031c0-.589.477-1.066 1.066-1.066.158.0 15.829.974 15.829 13.062.0 10.726-8.717 14.191-11.535 15.03v10.62c0 .589-.477 1.066-1.066 1.066z" style="fill:#58595c;fill-rule:nonzero"/><path d="M609.259 295.224c-4.203-43.823-13.112-82.941-18.783-104.794-2.991-11.523-10.646-21.268-21.162-26.848l-27.443-14.561c-7.051 13.446-21.123 22.633-37.359 22.633-16.236.0-30.308-9.187-37.359-22.633l-27.443 14.561c-10.516 5.58-18.171 15.325-21.162 26.848-5.671 21.853-14.58 60.971-18.783 104.794-6.432 67.075-12.863 130.474-12.863 130.474h32.159l15.62-120.366v120.366h139.662V305.332l15.62 120.366h32.159c0 0-6.432-63.399-12.863-130.474z" style="fill:#fbc949;fill-rule:nonzero"/><path d="M424.376 177.508c-2.615 3.92-4.619 8.264-5.828 12.922-5.671 21.853-14.58 60.971-18.783 104.794-6.432 67.075-12.863 130.474-12.863 130.474h32.159l15.62-120.366c8.283-63.831-10.099-127.114-10.305-127.824z" style="fill:#ecb23d;fill-rule:nonzero"/><path d="M584.648 177.508c2.615 3.92 4.619 8.264 5.828 12.922 5.671 21.853 14.58 60.971 18.783 104.794 6.431 67.075 12.863 130.474 12.863 130.474h-32.159l-15.62-120.366c-8.283-63.831 10.098-127.114 10.305-127.824z" style="fill:#ecb23d;fill-rule:nonzero"/><path d="M541.494 149.021l-3.676-15.784c0 0-9.971 27.435-33.306 27.435-23.336.0-33.307-27.435-33.307-27.435l-3.675 15.784c0 0-.038.201-.093.499 7.136 13.17 21.044 22.134 37.075 22.134 16.031.0 29.939-8.964 37.075-22.134-.055-.298-.093-.499-.093-.499z" style="fill:#ecb23d;fill-rule:nonzero"/><path d="M434.681 406.403h139.662v19.295H434.681z" style="fill:#ecb23d;fill-rule:nonzero"/><path d="M750.059 147.317h-75.813-75.813c0 0-51.636 285.182-51.636 348.276l75.712 13.877 6.281-48.148c7.823-59.98 21.56-119.028 41.004-176.282 1.432-4.217 7.472-4.217 8.904.0 19.443 57.254 33.18 116.302 41.004 176.282l6.28 48.148 75.712-13.877c0-63.094-51.635-348.276-51.635-348.276z" style="fill:#bc8b32;fill-rule:nonzero"/><path d="M605.078 174.719l-2.795-.501.662-3.716 2.795.503-.662 3.714z" style="fill:#5a4117;fill-rule:nonzero"/><path d="M602.47 189.491l-2.795-.491 1.305-7.403 2.797.491-1.307 7.403zm-2.59 14.805-2.798-.488 1.294-7.403 2.796.488-1.292 7.403zm-2.571 14.802-2.798-.484 1.282-7.403 2.799.484-1.283 7.403zm-2.551 14.806-2.798-.482 1.273-7.404 2.799.481-1.274 7.405zm-2.528 14.804-2.799-.477 1.263-7.405 2.798.477-1.262 7.405zm-2.503 14.808-2.799-.473 1.25-7.405 2.798.473-1.249 7.405zm-2.477 14.81-2.802-.466 1.238-7.409 2.799.47-1.235 7.405zm-2.457 14.813-2.802-.462 1.226-7.409 2.802.463-1.226 7.408zm-2.43 14.819-2.803-.458 1.213-7.411 2.802.459-1.212 7.41zm-2.392 14.806-2.802-.451 1.192-7.399 2.802.451-1.192 7.399zm-2.368 14.834-2.806-.444 1.183-7.427 2.802.447-1.179 7.424zm-2.333 14.854-2.806-.44 1.161-7.418 2.806.44-1.161 7.418zm-2.288 14.839-2.806-.429 1.139-7.423 2.805.433-1.138 7.419zm-2.242 14.843-2.81-.418 1.117-7.428 2.805.425-1.112 7.421zm-2.187 14.854-2.81-.406 1.087-7.435 2.81.414-1.087 7.427zm-2.124 14.864-2.813-.396 1.055-7.44 2.81.403-1.052 7.433zm-2.046 14.868-2.813-.377 1.013-7.449 2.813.388-1.013 7.438zm-1.948 14.886-2.817-.359.963-7.454 2.813.369-.959 7.444zm-1.817 14.898-2.821-.329c.283-2.434.582-4.926.893-7.466l2.817.344c-.309 2.536-.607 5.021-.889 7.451zm-1.64 14.915-2.824-.288c.245-2.42.51-4.915.794-7.482l2.821.31c-.281 2.56-.545 5.048-.791 7.46zm-1.351 14.934-2.833-.218c.185-2.386.396-4.891.635-7.507l2.828.259c-.238 2.601-.449 5.091-.63 7.466z" style="fill:#5a4117;fill-rule:nonzero"/><path d="M556.954 497.231l-2.835-.122c.05-1.211.114-2.475.188-3.787l2.836.159c-.074 1.301-.137 2.55-.189 3.75z" style="fill:#5a4117;fill-rule:nonzero"/><path d="M743.413 174.719l2.795-.501-.662-3.716-2.795.503.662 3.714z" style="fill:#5a4117;fill-rule:nonzero"/><path d="M744.714 182.088l2.797-.491 1.305 7.403-2.795.491-1.307-7.403zm2.605 14.805 2.796-.488 1.294 7.403-2.798.488-1.292-7.403zm2.58 14.802 2.799-.484 1.283 7.403-2.799.484-1.283-7.403zm2.56 14.804 2.799-.481 1.273 7.404-2.798.482-1.274-7.405zm2.54 14.804 2.799-.477 1.262 7.405-2.798.477-1.263-7.405zm2.516 14.808 2.798-.473 1.25 7.405-2.799.473-1.249-7.405zm2.491 14.81 2.799-.47 1.239 7.409-2.803.466-1.235-7.405zm2.466 14.81 2.803-.463 1.225 7.409-2.802.462-1.226-7.408zm2.444 14.817 2.802-.459 1.213 7.411-2.802.458-1.213-7.41zm2.412 14.817 2.802-.451 1.193 7.399-2.803.451-1.192-7.399zm2.381 14.809 2.802-.447 1.183 7.427-2.806.444-1.179-7.424zm2.351 14.86 2.806-.44 1.161 7.418-2.806.44-1.161-7.418zm2.311 14.838 2.806-.433 1.138 7.423-2.806.429-1.138-7.419zm2.268 14.841 2.806-.425 1.116 7.428-2.809.418-1.113-7.421zm2.212 14.848 2.81-.414 1.087 7.435-2.81.406-1.087-7.427zm2.159 14.858 2.81-.403 1.055 7.44-2.813.396-1.052-7.433zm2.085 14.863 2.814-.388 1.013 7.449-2.814.377-1.013-7.438zm2.002 14.88 2.814-.369.963 7.454-2.817.359-.96-7.444zm1.887 14.891 2.818-.344c.31 2.54.609 5.032.892 7.466l-2.82.329c-.283-2.43-.581-4.915-.89-7.451zm1.738 14.906 2.821-.31c.284 2.567.549 5.062.795 7.482l-2.825.288c-.246-2.412-.51-4.9-.791-7.46zm1.512 14.928 2.828-.259c.239 2.616.449 5.121.634 7.507l-2.832.218c-.181-2.375-.391-4.865-.63-7.466z" style="fill:#5a4117;fill-rule:nonzero"/><path d="M791.537 497.231l2.836-.122c-.052-1.211-.115-2.475-.189-3.787l-2.835.159c.074 1.301.136 2.55.188 3.75z" style="fill:#5a4117;fill-rule:nonzero"/><path d="M598.433 147.317c0 0 21.552 20.505 75.813 20.505 54.26.0 75.813-20.505 75.813-20.505H598.433z" style="fill:#cca96f;fill-rule:nonzero"/><path d="M750.059 147.317c0 0-21.553 20.505-75.813 20.505-54.261.0-75.813-20.505-75.813-20.505.0.0-1.245 6.873-3.345 18.706 17.423 9.819 43.27 18.97 79.158 18.97 35.887.0 61.734-9.151 79.157-18.97-2.1-11.833-3.344-18.706-3.344-18.706z" style="fill:#5a4117;fill-rule:nonzero"/><path d="M672.827 184.994h2.84v3.786H672.827z" style="fill:#5a4117;fill-rule:nonzero"/><path d="M675.667 205.774h-2.84v-8.497h2.84v8.497zm0 16.999h-2.84v-8.5h2.84v8.5zm0 16.994h-2.84v-8.497h2.84v8.497z" style="fill:#5a4117;fill-rule:nonzero"/><path d="M678.032 253.472h-5.205v-5.206h2.84v2.366h2.365v2.84z" style="fill:#5a4117;fill-rule:nonzero"/><path d="M696.487 205.235h-2.839v-8.207h2.839v8.207zm0 16.416h-2.839v-8.207h2.839v8.207zm-1.874 16.569-2.78-.588c.51-2.414.943-5.096 1.287-7.97l2.817.336c-.352 2.958-.799 5.723-1.324 8.222zm-7.412 15.252h-.961l-.011-2.69c0 0 .003-.002.011-.007v-.143h.177c.477-.417 1.8-1.804 3.213-5.362l2.639 1.046c-2.174 5.485-4.355 6.799-4.769 7.006l-.299.15z" style="fill:#5a4117;fill-rule:nonzero"/><path d="M693.648 184.994h2.839v3.786H693.648z" style="fill:#5a4117;fill-rule:nonzero"/><path d="M674.248 132.377c-.573.0-1.036-.463-1.036-1.035v-11.116c0-.495.352-.921.838-1.016.424-.083 10.366-2.156 10.366-12.788.0-8.157-9.14-10.091-12.27-10.51v.829c0 .572-.463 1.036-1.036 1.036-.573.0-1.036-.464-1.036-1.036v-1.972c0-.572.463-1.036 1.036-1.036.154.0 15.378.946 15.378 12.689.0 10.421-8.469 13.787-11.204 14.603v10.317c0 .572-.464 1.035-1.036 1.035z" style="fill:#58595c;fill-rule:nonzero"/><path d="M618.659 158.645l55.852-25.031 55.331 25.027c1.618-.629 3.13-1.262 4.541-1.892-.198-.454-.543-.847-1.029-1.067l-57.985-26.228c-.543-.246-1.164-.245-1.702-.003l-58.523 26.228c-.49.22-.838.613-1.036 1.069 1.414.632 2.929 1.267 4.551 1.897z" style="fill:#58595c;fill-rule:nonzero"/><path d="M806.702 151.689c-.767.0-1.503-.426-1.862-1.162-.504-1.027-.078-2.267.949-2.77l37.768-18.486c.578-.285 1.255-.281 1.832.005l37.229 18.486c1.025.509 1.443 1.752.934 2.777-.508 1.022-1.749 1.445-2.777.933l-36.314-18.031-36.851 18.036c-.292.144-.603.212-.908.212z" style="fill:#58595c;fill-rule:nonzero"/><path d="M844.199 132.167c-.573.0-1.036-.463-1.036-1.035v-11.116c0-.495.353-.921.839-1.016.422-.083 10.365-2.156 10.365-12.788.0-8.158-9.139-10.091-12.27-10.51v.829c0 .572-.464 1.036-1.036 1.036-.573.0-1.036-.464-1.036-1.036v-1.972c0-.572.463-1.036 1.036-1.036.154.0 15.378.946 15.378 12.689.0 10.421-8.468 13.787-11.204 14.603v10.317c0 .572-.464 1.035-1.036 1.035z" style="fill:#58595c;fill-rule:nonzero"/><path d="M945.737 180.228c-2.867-5.735-7.605-10.32-13.431-12.998l-51.843-23.829c-2.135 18.142-17.539 32.224-36.254 32.224-18.716.0-34.12-14.082-36.254-32.224l-51.844 23.829c-5.826 2.678-10.564 7.263-13.431 12.998l-38.39 68.939 47.042 25.933 14.474-26.536v154.445h156.805v-154.445l14.475 26.536 47.041-25.933-38.39-68.939z" style="fill:#25a9e1;fill-rule:nonzero"/><clipPath id="_clip1"><path d="M807.955 143.401l-51.844 23.829c0 0 9.695 61.894 9.695 81.334v154.445h78.403v-227.384c-18.716.0-34.12-14.082-36.254-32.224z"/></clipPath><g clip-path="url(#_clip1)"><path d="M745.781 151.309h98.428v6.87H745.781z" style="fill:#1675bc;fill-rule:nonzero"/><path d="M745.781 168.927h98.428v6.869H745.781z" style="fill:#1675bc;fill-rule:nonzero"/><path d="M745.781 186.544h98.428v6.87H745.781z" style="fill:#1675bc;fill-rule:nonzero"/><path d="M745.781 204.162h98.428v6.869H745.781z" style="fill:#1675bc;fill-rule:nonzero"/><path d="M745.781 221.779h98.428v6.87H745.781z" style="fill:#1675bc;fill-rule:nonzero"/><path d="M745.781 239.397h98.428v6.869H745.781z" style="fill:#1675bc;fill-rule:nonzero"/><path d="M745.781 257.014h98.428v6.87H745.781z" style="fill:#1675bc;fill-rule:nonzero"/><path d="M745.781 274.632h98.428v6.87H745.781z" style="fill:#1675bc;fill-rule:nonzero"/><path d="M745.781 292.249h98.428v6.87H745.781z" style="fill:#1675bc;fill-rule:nonzero"/><path d="M745.781 309.867h98.428v6.87H745.781z" style="fill:#1675bc;fill-rule:nonzero"/><path d="M745.781 327.485h98.428v6.869H745.781z" style="fill:#1675bc;fill-rule:nonzero"/><path d="M745.781 345.102h98.428v6.87H745.781z" style="fill:#1675bc;fill-rule:nonzero"/><path d="M745.781 362.72h98.428v6.869H745.781z" style="fill:#1675bc;fill-rule:nonzero"/><path d="M745.781 380.337h98.428v6.87H745.781z" style="fill:#1675bc;fill-rule:nonzero"/><path d="M745.781 397.955h98.428v6.869H745.781z" style="fill:#1675bc;fill-rule:nonzero"/></g><clipPath id="_clip2"><path d="M880.453 143.401l51.843 23.829c0 0-9.695 61.894-9.695 81.334v154.445h-78.402v-227.384c18.715.0 34.119-14.082 36.254-32.224z"/></clipPath><g clip-path="url(#_clip2)"><path d="M844.199 151.309h98.427v6.87H844.199z" style="fill:#1675bc;fill-rule:nonzero"/><path d="M844.199 168.927h98.427v6.869H844.199z" style="fill:#1675bc;fill-rule:nonzero"/><path d="M844.199 186.544h98.427v6.87H844.199z" style="fill:#1675bc;fill-rule:nonzero"/><path d="M844.199 204.162h98.427v6.869H844.199z" style="fill:#1675bc;fill-rule:nonzero"/><path d="M844.199 221.779h98.427v6.87H844.199z" style="fill:#1675bc;fill-rule:nonzero"/><path d="M844.199 239.397h98.427v6.869H844.199z" style="fill:#1675bc;fill-rule:nonzero"/><path d="M844.199 257.014h98.427v6.87H844.199z" style="fill:#1675bc;fill-rule:nonzero"/><path d="M844.199 274.632h98.427v6.87H844.199z" style="fill:#1675bc;fill-rule:nonzero"/><path d="M844.199 292.249h98.427v6.87H844.199z" style="fill:#1675bc;fill-rule:nonzero"/><path d="M844.199 309.867h98.427v6.87H844.199z" style="fill:#1675bc;fill-rule:nonzero"/><path d="M844.199 327.485h98.427v6.869H844.199z" style="fill:#1675bc;fill-rule:nonzero"/><path d="M844.199 345.102h98.427v6.87H844.199z" style="fill:#1675bc;fill-rule:nonzero"/><path d="M844.199 362.72h98.427v6.869H844.199z" style="fill:#1675bc;fill-rule:nonzero"/><path d="M844.199 380.337h98.427v6.87H844.199z" style="fill:#1675bc;fill-rule:nonzero"/><path d="M844.199 397.955h98.427v6.869H844.199z" style="fill:#1675bc;fill-rule:nonzero"/></g><clipPath id="_clip3"><path d="M742.68 180.228l-38.39 68.939 47.042 25.933 14.474-26.536c0-19.44-9.695-81.334-9.695-81.334-5.826 2.678-10.564 7.263-13.431 12.998z"/></clipPath><g clip-path="url(#_clip3)"><path d="M726.9 167.23l66.894 36.914-3.319 6.015-66.894-36.914 3.319-6.015z" style="fill:#1675bc;fill-rule:nonzero"/><path d="M738.414 155.717l66.893 36.913-3.319 6.015-66.893-36.914 3.319-6.014z" style="fill:#1675bc;fill-rule:nonzero"/><path d="M715.358 178.772l66.894 36.913-3.319 6.015-66.894-36.914 3.319-6.014z" style="fill:#1675bc;fill-rule:nonzero"/><path d="M715.358 196.432l66.894 36.914-3.319 6.015-66.894-36.914 3.319-6.015z" style="fill:#1675bc;fill-rule:nonzero"/><path d="M715.358 214.276l66.894 36.914-3.319 6.014-66.894-36.913 3.319-6.015z" style="fill:#1675bc;fill-rule:nonzero"/><path d="M709.489 228.483l66.893 36.914-3.319 6.015-66.893-36.914 3.319-6.015z" style="fill:#1675bc;fill-rule:nonzero"/><path d="M700.511 240.914l66.894 36.913-3.319 6.015-66.894-36.914 3.319-6.014z" style="fill:#1675bc;fill-rule:nonzero"/></g><clipPath id="_clip4"><path d="M945.737 180.228l38.39 68.939-47.041 25.933-14.475-26.536c0-19.44 9.695-81.334 9.695-81.334 5.826 2.678 10.564 7.263 13.431 12.998z"/></clipPath><g clip-path="url(#_clip4)"><path d="M961.517 167.23l-66.894 36.914 3.32 6.015 66.893-36.914-3.319-6.015z" style="fill:#1675bc;fill-rule:nonzero"/><path d="M950.004 155.717 883.11 192.63l3.319 6.015 66.894-36.914-3.319-6.014z" style="fill:#1675bc;fill-rule:nonzero"/><path d="M973.059 178.772l-66.894 36.913 3.319 6.015 66.894-36.914-3.319-6.014z" style="fill:#1675bc;fill-rule:nonzero"/><path d="M973.059 196.432l-66.894 36.914 3.319 6.015 66.894-36.914-3.319-6.015z" style="fill:#1675bc;fill-rule:nonzero"/><path d="M973.059 214.276l-66.894 36.914 3.319 6.014 66.894-36.913-3.319-6.015z" style="fill:#1675bc;fill-rule:nonzero"/><path d="M978.929 228.483l-66.894 36.914 3.319 6.015 66.894-36.914-3.319-6.015z" style="fill:#1675bc;fill-rule:nonzero"/><path d="M987.906 240.914l-66.894 36.913 3.319 6.015 66.894-36.914-3.319-6.014z" style="fill:#1675bc;fill-rule:nonzero"/></g><path d="M1127.1 285.902c-14.09-61.48-30.08-93.758-38.95-108.205-3.76-6.125-9.65-10.468-16.381-12.235l-16.12-3.595-.359 3.186-63.914 4.657-63.913-4.657-.36-3.186-16.118 3.595c-6.737 1.767-12.624 6.11-16.385 12.235-8.869 14.447-24.861 46.725-38.947 108.205-20.816 90.857-24.147 121.934-24.147 121.934h39.135c0 0 12.49-101.841 43.298-158.626v164.241h154.871V249.21c30.81 56.785 43.3 158.626 43.3 158.626h39.14c0 0-3.33-31.077-24.15-121.934z" style="fill:#bc3836;fill-rule:nonzero"/><path d="M1047.74 137.622c-8.6-4.673-25.018-9.127-56.364-9.127-31.346.0-47.763 4.454-56.362 9.127-6.108 3.32-9.476 10.409-8.665 17.577l1.114 9.854 63.913 4.657 63.914-4.657 1.109-9.854c.811-7.168-2.549-14.257-8.659-17.577z" style="fill:#bc3836;fill-rule:nonzero"/><path d="M900.723 170.727c-2.375 1.94-4.465 4.269-6.123 6.97-8.869 14.447-24.861 46.725-38.947 108.205-20.816 90.857-24.147 121.934-24.147 121.934h39.135c0 0 12.49-101.841 43.298-158.626.0-49.795-13.215-78.481-13.216-78.483z" style="fill:#e65a4a;fill-rule:nonzero"/><path d="M1082.03 170.727c2.37 1.94 4.46 4.269 6.12 6.97 8.87 14.447 24.86 46.725 38.95 108.205 20.82 90.857 24.15 121.934 24.15 121.934h-32.48-6.66c0 0-12.49-101.841-43.3-158.626.0-49.795 13.22-78.481 13.22-78.483z" style="fill:#e65a4a;fill-rule:nonzero"/><path d="M948.639 343.147h85.471V222.175h-85.471v120.972zm92.161 6.69h-98.85V215.486h98.85v134.351z" style="fill:#fff;fill-rule:nonzero"/><path d="M926.349 155.199l1.114 9.854 63.913 4.657c-24.855-17.883-49.931-26.757-59.541-29.741-4.036 3.742-6.141 9.443-5.486 15.23z" style="fill:#e65a4a;fill-rule:nonzero"/><path d="M1056.4 155.199l-1.109 9.854-63.914 4.657c24.856-17.883 49.934-26.757 59.544-29.741 4.03 3.742 6.14 9.443 5.479 15.23z" style="fill:#e65a4a;fill-rule:nonzero"/><path d="M996.251 169.71c0 2.693-2.182 4.876-4.875 4.876-2.692.0-4.875-2.183-4.875-4.876.0-2.692 2.183-4.875 4.875-4.875 2.693.0 4.875 2.183 4.875 4.875z" style="fill:#414043;fill-rule:nonzero"/><path d="M997.728 235.484c-.029.0-.059-.001-.09-.002-.922-.05-1.63-.837-1.581-1.76.013-.234 1.241-23.589.005-38.013-.764-8.9-2.984-14.945-4.51-18.183-1.349 3.449-3.36 9.661-4.137 17.573-1.237 12.574-1.253 20.353-1.253 20.431.0.923-.749 1.672-1.673 1.672-.923.0-1.672-.749-1.672-1.672.0-.079.014-8.005 1.268-20.757 1.279-12.992 5.625-21.447 5.809-21.801.269-.516.786-.855 1.365-.895.577-.037 1.139.221 1.478.694.218.306 5.371 7.658 6.656 22.653 1.258 14.656.016 38.241.004 38.477-.047.892-.786 1.583-1.669 1.583z" style="fill:#414043;fill-rule:nonzero"/><path d="M991.374 132.945c-.572.0-1.036-.463-1.036-1.036v-11.115c0-.495.353-.921.838-1.016.425-.083 10.367-2.156 10.367-12.789.0-8.156-9.141-10.09-12.271-10.509v.829c0 .572-.463 1.035-1.036 1.035-.572.0-1.035-.463-1.035-1.035v-1.972c0-.572.463-1.036 1.035-1.036.154.0 15.378.946 15.378 12.688.0 10.422-8.469 13.788-11.204 14.603v10.317c0 .573-.463 1.036-1.036 1.036z" style="fill:#58595c;fill-rule:nonzero"/><path d="M1024.32 150.444c1.66-.782 3.277-1.521 4.848-2.217l-36.602-18.173c-.575-.287-1.252-.29-1.831-.005l-37.147 18.18c1.58.699 3.204 1.441 4.873 2.228l33.178-16.238 32.681 16.225z" style="fill:#58595c;fill-rule:nonzero"/><path d="M1082.72 149.404c-.79.0-1.54-.451-1.89-1.216-.47-1.044-.01-2.27 1.03-2.743l42.17-19.101c.55-.251 1.18-.244 1.73.008l41.11 19.101c1.04.483 1.49 1.713 1.01 2.751-.48 1.04-1.71 1.491-2.75 1.008l-40.26-18.7-41.29 18.708c-.28.125-.57.184-.86.184z" style="fill:#58595c;fill-rule:nonzero"/><path d="M1124.61 129.268c-.57.0-1.03-.464-1.03-1.036v-11.115c0-.496.35-.923.84-1.018.42-.083 10.36-2.152 10.36-12.786.0-8.157-9.14-10.092-12.27-10.51v.829c0 .573-.46 1.036-1.03 1.036-.57.0-1.04-.463-1.04-1.036V91.66c0-.573.47-1.036 1.04-1.036.15.0 15.38.945 15.38 12.689.0 10.421-8.47 13.788-11.21 14.603v10.316c0 .572-.46 1.036-1.04 1.036z" style="fill:#58595c;fill-rule:nonzero"/><path d="M1198.31 152.57l-35.17-13.398c0 0-6.7 30.147-38.52 55.269-31.83-25.122-38.53-55.269-38.53-55.269l-35.17 13.398c18.43 56.944-16.74 73.692-16.74 73.692v154.082h180.87V226.262c0 0-35.17-16.748-16.74-73.692z" style="fill:#0d4a69;fill-rule:nonzero"/><path d="M1182.4 258.305l-16.4 9.827-16.39-9.827v-27.578h32.79v27.578z" style="fill:#4c7f8b;fill-rule:nonzero"/></svg>