<svg xmlns="http://www.w3.org/2000/svg" style="display: none;"><symbol id="linkedin" viewBox="0 0 510 510"><title>linkedin</title><path d="M459,0H51C22.95,0,0,22.95,0,51v408c0,28.05,22.95,51,51,51h408c28.05,0,51-22.95,51-51V51C510,22.95,487.05,0,459,0z M153,433.5H76.5V204H153V433.5z M114.75,160.65c-25.5,0-45.9-20.4-45.9-45.9s20.4-45.9,45.9-45.9s45.9,20.4,45.9,45.9 S140.25,160.65,114.75,160.65z M433.5,433.5H357V298.35c0-20.399-17.85-38.25-38.25-38.25s-38.25,17.851-38.25,38.25V433.5H204 V204h76.5v30.6c12.75-20.4,40.8-35.7,63.75-35.7c48.45,0,89.25,40.8,89.25,89.25V433.5z"/></symbol><symbol id="twitter" viewBox="0 0 612 612"><title>twitter</title><path style="fill:#010002;" d="M612,116.258c-22.525,9.981-46.694,16.75-72.088,19.772c25.929-15.527,45.777-40.155,55.184-69.411 c-24.322,14.379-51.169,24.82-79.775,30.48c-22.907-24.437-55.49-39.658-91.63-39.658c-69.334,0-125.551,56.217-125.551,125.513 c0,9.828,1.109,19.427,3.251,28.606C197.065,206.32,104.556,156.337,42.641,80.386c-10.823,18.51-16.98,40.078-16.98,63.101 c0,43.559,22.181,81.993,55.835,104.479c-20.575-0.688-39.926-6.348-56.867-15.756v1.568c0,60.806,43.291,111.554,100.693,123.104 c-10.517,2.83-21.607,4.398-33.08,4.398c-8.107,0-15.947-0.803-23.634-2.333c15.985,49.907,62.336,86.199,117.253,87.194 c-42.947,33.654-97.099,53.655-155.916,53.655c-10.134,0-20.116-0.612-29.944-1.721c55.567,35.681,121.536,56.485,192.438,56.485 c230.948,0,357.188-191.291,357.188-357.188l-0.421-16.253C573.872,163.526,595.211,141.422,612,116.258z"/></symbol><symbol id="speakerdeck" viewBox="0 0 459 459"><title>speakerdeck</title><path d="M178.5,127.5v204l127.5-102L178.5,127.5z M408,0H51C22.95,0,0,22.95,0,51v357c0,28.05,22.95,51,51,51h357 c28.05,0,51-22.95,51-51V51C459,22.95,436.05,0,408,0z M408,408H51V51h357V408z"/></symbol><symbol id="stack-overflow" viewBox="0 0 34.641 34.641"><title>stack-overflow</title><path d="M23.994,20.416c0.781,0,1.551,0,2.319,0c0,4.742,0,9.482,0,14.225c-7.536,0-15.057,0-22.585,0c0-4.744,0-9.479,0-14.225 c0.769,0,1.538,0,2.318,0c0,3.971,0,7.938,0,11.92c5.982,0,11.954,0,17.946,0C23.994,28.359,23.994,24.393,23.994,20.416z M17.389,4.498c2.572,3.772,5.138,7.533,7.707,11.3c0.812-0.555,1.611-1.1,2.414-1.647c-2.576-3.776-5.14-7.534-7.707-11.299 C18.995,3.402,18.199,3.945,17.389,4.498z M24.622,16.196c-3.936-2.321-7.854-4.632-11.78-6.948 c-0.499,0.845-0.989,1.675-1.486,2.517c3.926,2.315,7.847,4.627,11.782,6.948C23.637,17.866,24.129,17.034,24.622,16.196z M28.571,0c-0.965,0.168-1.91,0.333-2.879,0.5c0.78,4.499,1.562,8.981,2.34,13.474c0.972-0.168,1.922-0.334,2.88-0.5 C30.131,8.97,29.352,4.487,28.571,0z M22.897,19.539c-4.41-1.188-8.803-2.367-13.208-3.552c-0.254,0.942-0.505,1.875-0.76,2.822 c4.409,1.186,8.806,2.366,13.209,3.551C22.395,21.412,22.645,20.479,22.897,19.539z M21.658,27.104c-4.558,0-9.103,0-13.654,0 c0,0.979,0,1.942,0,2.905c4.559,0,9.104,0,13.654,0C21.658,29.031,21.658,28.066,21.658,27.104z M22,23.349 c-4.547-0.418-9.078-0.838-13.619-1.254C8.29,23.072,8.2,24.033,8.11,25.005c4.547,0.418,9.079,0.836,13.62,1.254 C21.821,25.281,21.909,24.32,22,23.349z"/></symbol><symbol id="github" viewBox="0 0 90 90"><title>github</title><path id="Github__x28_alt_x29_" d="M65.709,10.5c1.17,2.657,1.928,7.07,0.797,10.301c4.625,3.949,6.215,13.549,3.982,21.394 C77.08,42.698,84.932,41.953,90,43.976c-4.738-0.609-11.209-1.804-17.32-1.388c-1.158,0.079-2.873-0.044-2.789,1.585 c7.074,0.555,14.104,1.16,19.912,2.973c-5.761-0.941-12.754-2.375-19.912-2.574c-2.957,5.835-8.908,8.703-17.123,9.307 c0.883,1.922,2.574,2.653,2.987,5.744c0.616,4.618-0.964,11.381,0.595,14.459c0.748,1.475,1.967,1.514,2.789,2.775 c-2.012,2.381-7-0.268-7.568-2.775c-0.973-4.295,1.482-10.953-1.192-13.865c0.188,4.685-1.108,11.264,0.199,15.449 c0.515,1.646,2.002,2.281,1.593,3.766c-9.352,0.949-5.443-12.104-6.972-19.81c-1.411,0.101-0.791,2.113-0.796,2.972 c-0.04,7.524,1.54,17.844-6.57,16.838c-0.237-1.582,1.088-2.119,1.593-3.563c1.479-4.233-0.277-10.542,0.401-15.651 c-3.095,2.334,0.325,10.48-1.593,14.657c-1.105,2.404-4.666,3.45-7.367,2.377c0.352-1.79,2.2-1.501,2.984-3.169 c1.096-2.324,0.008-5.674,0.399-9.111c-5.729,1.144-10.173-0.166-12.348-3.764c-0.973-1.615-1.214-3.52-2.39-4.951 c-1.17-1.432-3.04-1.625-3.582-3.563c7.095-1.708,7.367,7.302,13.739,7.524c1.954,0.071,2.97-0.563,4.778-0.988 c0.506-2.272,1.589-3.967,3.186-5.153c-7.929-1.085-14.477-3.554-17.522-9.504c-7.208,0.354-13.804,1.317-19.913,2.771 c5.545-2.014,12.384-2.736,19.715-2.973c-0.432-2.596-4.219-1.882-6.57-1.782C8.973,42.781,3.473,43.324,0,43.976 c5.034-1.795,12.098-1.571,18.918-1.585c-2.086-6.54-1.363-16.929,3.186-20.798C20.815,18.344,21.215,13.03,22.9,10.5 c5.079,0.228,8.159,2.443,11.35,4.557c3.957-1.125,8.118-1.685,13.54-1.387c2.28,0.126,4.651,1.151,6.369,0.989 c1.685-0.158,3.542-2.049,5.178-2.771C61.468,10.947,63.271,10.588,65.709,10.5z"/></symbol></svg>
